ScienceGothic-BlkCndCtrS.ufo
<glyph name="exclam" format="2">
  <advance width="731"/>
  <unicode hex="0021"/>
  <outline>
    <contour>
      <point x="-15" y="135" type="line" smooth="yes"/>
      <point x="-30.8466" y="44.448"/>
      <point x="10.448" y="-6"/>
      <point x="101" y="-6" type="qcurve" smooth="yes"/>
      <point x="389" y="-6" type="line" smooth="yes"/>
      <point x="479" y="-6"/>
      <point x="539.25" y="45"/>
      <point x="555" y="135" type="qcurve" smooth="yes"/>
      <point x="570" y="224" type="line" smooth="yes"/>
      <point x="585.847" y="313.797"/>
      <point x="543.552" y="364"/>
      <point x="453" y="364" type="qcurve" smooth="yes"/>
      <point x="166" y="364" type="line" smooth="yes"/>
      <point x="76" y="364"/>
      <point x="16" y="313.75"/>
      <point x="1" y="226" type="qcurve" smooth="yes"/>
    </contour>
    <contour>
      <point x="309" y="462" type="line"/>
      <point x="345" y="462" type="line"/>
      <point x="776" y="1400" type="line"/>
      <point x="206" y="1400" type="line"/>
    </contour>
  </outline>
</glyph>
<glyph name="quotedbl" format="2">
  <advance width="1344"/>
  <unicode hex="0022"/>
  <outline>
    <contour>
      <point x="177" y="1234" type="line"/>
      <point x="247" y="835" type="line"/>
      <point x="537" y="835" type="line"/>
      <point x="747" y="1234" type="line"/>
      <point x="773" y="1383" type="line" smooth="yes"/>
      <point x="788.092" y="1469.78"/>
      <point x="767.196" y="1500"/>
      <point x="694" y="1500" type="qcurve" smooth="yes"/>
      <point x="322" y="1500" type="line" smooth="yes"/>
      <point x="248.804" y="1500"/>
      <point x="218.092" y="1469.78"/>
      <point x="203" y="1383" type="qcurve" smooth="yes"/>
    </contour>
    <contour>
      <point x="792" y="1234" type="line"/>
      <point x="862" y="835" type="line"/>
      <point x="1152" y="835" type="line"/>
      <point x="1362" y="1234" type="line"/>
      <point x="1388" y="1383" type="line" smooth="yes"/>
      <point x="1403.09" y="1469.78"/>
      <point x="1382.2" y="1500"/>
      <point x="1309" y="1500" type="qcurve" smooth="yes"/>
      <point x="937" y="1500" type="line" smooth="yes"/>
      <point x="863.804" y="1500"/>
      <point x="833.092" y="1469.78"/>
      <point x="818" y="1383" type="qcurve" smooth="yes"/>
    </contour>
  </outline>
</glyph>
<glyph name="numbersign" format="2">
  <advance width="873"/>
  <unicode hex="0023"/>
  <outline>
    <contour>
      <point x="-30" y="224" type="line"/>
      <point x="675" y="224" type="line"/>
      <point x="778" y="636" type="line"/>
      <point x="73" y="636" type="line"/>
    </contour>
    <contour>
      <point x="103" y="765" type="line"/>
      <point x="808" y="765" type="line"/>
      <point x="910" y="1177" type="line"/>
      <point x="205" y="1177" type="line"/>
    </contour>
    <contour>
      <point x="100" y="0" type="line"/>
      <point x="133" y="0" type="line"/>
      <point x="477" y="1400" type="line"/>
      <point x="444" y="1400" type="line"/>
    </contour>
    <contour>
      <point x="403" y="0" type="line"/>
      <point x="436" y="0" type="line"/>
      <point x="780" y="1400" type="line"/>
      <point x="747" y="1400" type="line"/>
    </contour>
  </outline>
  <guideline angle="0" x="0" y="334"/>
  <guideline angle="0" x="0" y="875"/>
</glyph>
<glyph name="dollar" format="2">
  <advance width="1290"/>
  <unicode hex="0024"/>
  <outline>
    <contour>
      <point x="465" y="-160" type="line"/>
      <point x="527" y="-160" type="line"/>
      <point x="557" y="10" type="line"/>
      <point x="712" y="10" type="line" smooth="yes"/>
      <point x="808" y="10"/>
      <point x="965.438" y="37.625"/>
      <point x="1085.06" y="113.375"/>
      <point x="1165.25" y="247.5"/>
      <point x="1184" y="354" type="qcurve" smooth="yes"/>
      <point x="1191" y="398" type="line" smooth="yes"/>
      <point x="1209.38" y="501.5"/>
      <point x="1171.97" y="629.875"/>
      <point x="1075.78" y="701.125"/>
      <point x="928.5" y="726"/>
      <point x="837" y="726" type="qcurve" smooth="yes"/>
      <point x="682" y="726" type="line"/>
      <point x="791" y="1354" type="line"/>
      <point x="812" y="1354" type="line"/>
      <point x="812" y="1354"/>
      <point x="812" y="1354"/>
      <point x="812" y="1354" type="qcurve"/>
      <point x="743" y="958" type="line"/>
      <point x="1278" y="1006" type="line"/>
      <point x="1287" y="1062" type="line" smooth="yes"/>
      <point x="1305" y="1164.75"/>
      <point x="1268.12" y="1292.94"/>
      <point x="1172.88" y="1364.56"/>
      <point x="1026.5" y="1390"/>
      <point x="935" y="1390" type="qcurve" smooth="yes"/>
      <point x="798" y="1390" type="line"/>
      <point x="827" y="1560" type="line"/>
      <point x="765" y="1560" type="line"/>
      <point x="736" y="1390" type="line"/>
      <point x="603" y="1390" type="line" smooth="yes"/>
      <point x="511.5" y="1390"/>
      <point x="354" y="1363.88"/>
      <point x="231" y="1291.12"/>
      <point x="147" y="1161.5"/>
      <point x="129" y="1058" type="qcurve"/>
      <point x="124" y="1034" type="line"/>
      <point x="105.625" y="928.25"/>
      <point x="138.344" y="794.312"/>
      <point x="230.406" y="718.188"/>
      <point x="376.75" y="690"/>
      <point x="472" y="690" type="qcurve" smooth="yes"/>
      <point x="613" y="690" type="line"/>
      <point x="501" y="46" type="line"/>
      <point x="478" y="46" type="line"/>
      <point x="478" y="46"/>
      <point x="478" y="46"/>
      <point x="478" y="46" type="qcurve"/>
      <point x="551" y="462" type="line"/>
      <point x="-4" y="410" type="line"/>
      <point x="-15" y="352" type="line" smooth="yes"/>
      <point x="-33.375" y="246.25"/>
      <point x="0.28125" y="112.938"/>
      <point x="93.4688" y="37.5625"/>
      <point x="240.75" y="10"/>
      <point x="336" y="10" type="qcurve" smooth="yes"/>
      <point x="495" y="10" type="line"/>
    </contour>
    <contour>
      <point x="620" y="726" type="line"/>
      <point x="597" y="726" type="line"/>
      <point x="597" y="726"/>
      <point x="597" y="726"/>
      <point x="597" y="726" type="qcurve"/>
      <point x="706" y="1354" type="line"/>
      <point x="706" y="1354"/>
      <point x="706" y="1354"/>
      <point x="706" y="1354" type="qcurve"/>
      <point x="729" y="1354" type="line"/>
    </contour>
    <contour>
      <point x="563" y="46" type="line"/>
      <point x="675" y="690" type="line"/>
      <point x="696" y="690" type="line"/>
      <point x="696" y="690"/>
      <point x="696" y="690"/>
      <point x="696" y="690" type="qcurve"/>
      <point x="584" y="46" type="line"/>
      <point x="584" y="46"/>
      <point x="584" y="46"/>
      <point x="584" y="46" type="qcurve"/>
    </contour>
  </outline>
</glyph>
<glyph name="percent" format="2">
  <advance width="1933"/>
  <unicode hex="0025"/>
  <outline>
    <contour>
      <point x="334" y="614" type="qcurve" smooth="yes"/>
      <point x="549" y="614" type="line" smooth="yes"/>
      <point x="660" y="614"/>
      <point x="792" y="688"/>
      <point x="812" y="801" type="qcurve" smooth="yes"/>
      <point x="889" y="1238" type="line" smooth="yes"/>
      <point x="908" y="1347"/>
      <point x="795" y="1418"/>
      <point x="689" y="1418" type="qcurve" smooth="yes"/>
      <point x="474" y="1418" type="line" smooth="yes"/>
      <point x="368" y="1418"/>
      <point x="232" y="1347"/>
      <point x="213" y="1238" type="qcurve" smooth="yes"/>
      <point x="136" y="801" type="line" smooth="yes"/>
      <point x="116" y="689"/>
      <point x="223" y="614"/>
    </contour>
    <contour>
      <point x="404" y="648" type="line"/>
      <point x="404" y="648"/>
      <point x="404" y="648"/>
      <point x="404" y="648" type="qcurve"/>
      <point x="532" y="1384" type="line"/>
      <point x="532" y="1384"/>
      <point x="532" y="1384"/>
      <point x="532" y="1384" type="qcurve"/>
      <point x="620" y="1384" type="line"/>
      <point x="620" y="1384"/>
      <point x="620" y="1384"/>
      <point x="620" y="1384" type="qcurve"/>
      <point x="492" y="648" type="line"/>
      <point x="492" y="648"/>
      <point x="492" y="648"/>
      <point x="492" y="648" type="qcurve"/>
    </contour>
    <contour>
      <point x="528" y="0" type="line"/>
      <point x="561" y="0" type="line"/>
      <point x="1409" y="1400" type="line"/>
      <point x="1376" y="1400" type="line"/>
    </contour>
    <contour>
      <point x="1251" y="-10" type="qcurve" smooth="yes"/>
      <point x="1466" y="-10" type="line" smooth="yes"/>
      <point x="1577" y="-10"/>
      <point x="1709" y="64"/>
      <point x="1729" y="177" type="qcurve" smooth="yes"/>
      <point x="1806" y="614" type="line" smooth="yes"/>
      <point x="1825" y="723"/>
      <point x="1712" y="794"/>
      <point x="1606" y="794" type="qcurve" smooth="yes"/>
      <point x="1391" y="794" type="line" smooth="yes"/>
      <point x="1285" y="794"/>
      <point x="1149" y="723"/>
      <point x="1130" y="614" type="qcurve" smooth="yes"/>
      <point x="1053" y="177" type="line" smooth="yes"/>
      <point x="1033" y="65"/>
      <point x="1140" y="-10"/>
    </contour>
    <contour>
      <point x="1321" y="24" type="line"/>
      <point x="1321" y="24"/>
      <point x="1321" y="24"/>
      <point x="1321" y="24" type="qcurve"/>
      <point x="1449" y="760" type="line"/>
      <point x="1449" y="760"/>
      <point x="1449" y="760"/>
      <point x="1449" y="760" type="qcurve"/>
      <point x="1537" y="760" type="line"/>
      <point x="1537" y="760"/>
      <point x="1537" y="760"/>
      <point x="1537" y="760" type="qcurve"/>
      <point x="1409" y="24" type="line"/>
      <point x="1409" y="24"/>
      <point x="1409" y="24"/>
      <point x="1409" y="24" type="qcurve"/>
    </contour>
  </outline>
</glyph>
<glyph name="ampersand" format="2">
  <advance width="1595"/>
  <unicode hex="0026"/>
  <outline>
    <contour>
      <point x="122" y="-10" type="qcurve" smooth="yes"/>
      <point x="401" y="-10" type="line" smooth="yes"/>
      <point x="445.25" y="-10"/>
      <point x="529.75" y="4"/>
      <point x="618.25" y="38.5"/>
      <point x="714.75" y="96.75"/>
      <point x="771" y="141" type="qcurve" smooth="yes"/>
      <point x="832" y="189" type="line"/>
      <point x="946" y="0" type="line"/>
      <point x="1475" y="0" type="line"/>
      <point x="1180" y="474" type="line"/>
      <point x="1504" y="730" type="line"/>
      <point x="1482" y="759" type="line"/>
      <point x="1160" y="504" type="line"/>
      <point x="839" y="1022" type="line"/>
      <point x="839" y="1022"/>
      <point x="839" y="1022"/>
      <point x="839" y="1022" type="qcurve"/>
      <point x="902" y="1378" type="line"/>
      <point x="902" y="1378"/>
      <point x="902" y="1378"/>
      <point x="902" y="1378" type="qcurve"/>
      <point x="1011" y="1378" type="line"/>
      <point x="1011" y="1378"/>
      <point x="1011" y="1378"/>
      <point x="1011" y="1378" type="qcurve"/>
      <point x="948" y="1022" type="line"/>
      <point x="1393" y="1076" type="line"/>
      <point x="1404" y="1139" type="line" smooth="yes"/>
      <point x="1427.39" y="1271.81"/>
      <point x="1276.26" y="1414"/>
      <point x="1111" y="1414" type="qcurve" smooth="yes"/>
      <point x="753" y="1414" type="line" smooth="yes"/>
      <point x="599.062" y="1414"/>
      <point x="410.902" y="1258.41"/>
      <point x="386" y="1109" type="qcurve" smooth="yes"/>
      <point x="383" y="1091" type="line" smooth="yes"/>
      <point x="374.375" y="1038.5"/>
      <point x="382.531" y="955.969"/>
      <point x="411.219" y="879.281"/>
      <point x="458" y="800.125"/>
      <point x="488" y="751" type="qcurve"/>
      <point x="92" y="475" type="line" smooth="yes"/>
      <point x="23.3314" y="426.706"/>
      <point x="-39.4172" y="329.478"/>
      <point x="-53" y="251" type="qcurve" smooth="yes"/>
      <point x="-60" y="213" type="line" smooth="yes"/>
      <point x="-69.375" y="158.625"/>
      <point x="-55.0625" y="75.3438"/>
      <point x="-8.9375" y="18.9062"/>
      <point x="68.375" y="-10"/>
    </contour>
    <contour>
      <point x="354" y="26" type="line"/>
      <point x="354" y="26"/>
      <point x="354" y="26"/>
      <point x="354" y="26" type="qcurve"/>
      <point x="470" y="695" type="line"/>
      <point x="470" y="695"/>
      <point x="470" y="695"/>
      <point x="470" y="695" type="qcurve"/>
      <point x="505" y="718" type="line"/>
      <point x="812" y="219" type="line"/>
      <point x="746" y="168" type="line" smooth="yes"/>
      <point x="626.019" y="75.1842"/>
      <point x="480.442" y="26"/>
      <point x="408" y="26" type="qcurve" smooth="yes"/>
    </contour>
  </outline>
</glyph>
<glyph name="quotesingle" format="2">
  <advance width="730"/>
  <unicode hex="0027"/>
  <outline>
    <contour>
      <point x="169" y="1184" type="line"/>
      <point x="239" y="785" type="line"/>
      <point x="529" y="785" type="line"/>
      <point x="739" y="1184" type="line"/>
      <point x="765" y="1333" type="line" smooth="yes"/>
      <point x="780" y="1420"/>
      <point x="759" y="1450"/>
      <point x="686" y="1450" type="qcurve" smooth="yes"/>
      <point x="314" y="1450" type="line" smooth="yes"/>
      <point x="241" y="1450"/>
      <point x="210" y="1420"/>
      <point x="195" y="1333" type="qcurve" smooth="yes"/>
    </contour>
  </outline>
</glyph>
<glyph name="parenleft" format="2">
  <advance width="664"/>
  <unicode hex="0028"/>
  <outline>
    <contour>
      <point x="494" y="-256" type="line"/>
      <point x="435" y="-206"/>
      <point x="375" y="-125"/>
      <point x="370" y="41"/>
      <point x="418" y="347"/>
      <point x="466" y="622" type="qcurve" smooth="yes"/>
      <point x="514" y="897"/>
      <point x="573" y="1203"/>
      <point x="636" y="1369"/>
      <point x="724" y="1450"/>
      <point x="800" y="1500" type="qcurve"/>
      <point x="752" y="1500" type="line"/>
      <point x="614" y="1426"/>
      <point x="378" y="1242"/>
      <point x="193" y="1021"/>
      <point x="69" y="766"/>
      <point x="44" y="622" type="qcurve" smooth="yes"/>
      <point x="-7" y="331"/>
      <point x="220" y="-107"/>
      <point x="446" y="-256" type="qcurve"/>
    </contour>
  </outline>
</glyph>
<glyph name="parenright" format="2">
  <advance width="664"/>
  <unicode hex="0029"/>
  <outline>
    <contour>
      <point x="149" y="1500" type="line"/>
      <point x="208.25" y="1449.75"/>
      <point x="267.812" y="1369.25"/>
      <point x="272.688" y="1202.75"/>
      <point x="225" y="897.25"/>
      <point x="177" y="622" type="qcurve" smooth="yes"/>
      <point x="129" y="346.75"/>
      <point x="70" y="41.25"/>
      <point x="7" y="-125.25"/>
      <point x="-80.5" y="-205.75"/>
      <point x="-157" y="-256" type="qcurve"/>
      <point x="-109" y="-256" type="line"/>
      <point x="28.625" y="-182.125"/>
      <point x="265.438" y="2.4375"/>
      <point x="449.562" y="222.562"/>
      <point x="573.875" y="477.625"/>
      <point x="599" y="622" type="qcurve" smooth="yes"/>
      <point x="649.558" y="912.521"/>
      <point x="422.625" y="1350.59"/>
      <point x="197" y="1500" type="qcurve"/>
    </contour>
  </outline>
</glyph>
<glyph name="asterisk" format="2">
  <advance width="771"/>
  <unicode hex="002A"/>
  <outline>
    <contour>
      <point x="335" y="903" type="line"/>
      <point x="511" y="903" type="line"/>
      <point x="484" y="1159" type="line"/>
      <point x="641" y="964" type="line"/>
      <point x="750" y="1096" type="line"/>
      <point x="501" y="1188" type="line"/>
      <point x="796" y="1274" type="line"/>
      <point x="726" y="1411" type="line"/>
      <point x="494" y="1217" type="line"/>
      <point x="610" y="1472" type="line"/>
      <point x="434" y="1472" type="line"/>
      <point x="460" y="1217" type="line"/>
      <point x="303" y="1411" type="line"/>
      <point x="194" y="1279" type="line"/>
      <point x="443" y="1188" type="line"/>
      <point x="153" y="1098" type="line"/>
      <point x="223" y="962" type="line"/>
      <point x="450" y="1159" type="line"/>
    </contour>
  </outline>
</glyph>
<glyph name="plus" format="2">
  <advance width="626"/>
  <unicode hex="002B"/>
  <outline>
    <contour>
      <point x="544" y="605" type="line"/>
      <point x="321" y="605" type="line"/>
      <point x="377" y="927" type="line"/>
      <point x="337" y="927" type="line"/>
      <point x="281" y="605" type="line"/>
      <point x="58" y="605" type="line"/>
      <point x="51" y="569" type="line"/>
      <point x="274" y="569" type="line"/>
      <point x="217" y="241" type="line"/>
      <point x="257" y="241" type="line"/>
      <point x="314" y="569" type="line"/>
      <point x="537" y="569" type="line"/>
    </contour>
  </outline>
</glyph>
<glyph name="comma" format="2">
  <advance width="691"/>
  <unicode hex="002C"/>
  <outline>
    <contour>
      <point x="125" y="-346" type="line"/>
      <point x="446" y="0" type="line" smooth="yes"/>
      <point x="480" y="37"/>
      <point x="507" y="91"/>
      <point x="516" y="141" type="qcurve" smooth="yes"/>
      <point x="557" y="385" type="line" smooth="yes"/>
      <point x="572" y="474"/>
      <point x="532" y="524"/>
      <point x="441" y="524" type="qcurve" smooth="yes"/>
      <point x="193" y="524" type="line" smooth="yes"/>
      <point x="103" y="524"/>
      <point x="42" y="474"/>
      <point x="27" y="385" type="qcurve" smooth="yes"/>
      <point x="-14" y="141" type="line" smooth="yes"/>
      <point x="-30" y="50"/>
      <point x="11" y="0"/>
      <point x="102" y="0" type="qcurve" smooth="yes"/>
      <point x="339" y="0" type="line"/>
      <point x="99" y="-340" type="line"/>
    </contour>
  </outline>
</glyph>
<glyph name="hyphen" format="2">
  <advance width="703"/>
  <unicode hex="002D"/>
  <outline>
    <contour>
      <point x="52" y="628" type="line"/>
      <point x="47" y="596" type="line"/>
      <point x="627" y="596" type="line"/>
      <point x="632" y="628" type="line"/>
    </contour>
  </outline>
  <guideline angle="0" x="0" y="612"/>
</glyph>
<glyph name="period" format="2">
  <advance width="690"/>
  <unicode hex="002E"/>
  <outline>
    <contour>
      <point x="-16" y="135" type="line" smooth="yes"/>
      <point x="-32" y="44"/>
      <point x="9" y="-6"/>
      <point x="100" y="-6" type="qcurve" smooth="yes"/>
      <point x="348" y="-6" type="line" smooth="yes"/>
      <point x="438" y="-6"/>
      <point x="498" y="45"/>
      <point x="514" y="135" type="qcurve" smooth="yes"/>
      <point x="557" y="384" type="line" smooth="yes"/>
      <point x="573" y="474"/>
      <point x="531" y="524"/>
      <point x="440" y="524" type="qcurve" smooth="yes"/>
      <point x="193" y="524" type="line" smooth="yes"/>
      <point x="103" y="524"/>
      <point x="43" y="474"/>
      <point x="28" y="386" type="qcurve" smooth="yes"/>
    </contour>
  </outline>
</glyph>
<glyph name="zero" format="2">
  <advance width="1422"/>
  <unicode hex="0030"/>
  <outline>
    <contour>
      <point x="380" y="-10" type="qcurve" smooth="yes"/>
      <point x="798" y="-10" type="line" smooth="yes"/>
      <point x="997.214" y="-10"/>
      <point x="1236.02" y="127.73"/>
      <point x="1273" y="336" type="qcurve" smooth="yes"/>
      <point x="1402" y="1076" type="line" smooth="yes"/>
      <point x="1437.25" y="1277"/>
      <point x="1235" y="1410"/>
      <point x="1046" y="1410" type="qcurve" smooth="yes"/>
      <point x="628" y="1410" type="line" smooth="yes"/>
      <point x="439" y="1410"/>
      <point x="193.25" y="1277"/>
      <point x="158" y="1076" type="qcurve" smooth="yes"/>
      <point x="29" y="336" type="line" smooth="yes"/>
      <point x="-7.2208" y="129.24"/>
      <point x="180.786" y="-10"/>
    </contour>
    <contour>
      <point x="547" y="26" type="line"/>
      <point x="547" y="26"/>
      <point x="547" y="26"/>
      <point x="547" y="26" type="qcurve"/>
      <point x="782" y="1374" type="line"/>
      <point x="782" y="1374"/>
      <point x="782" y="1374"/>
      <point x="782" y="1374" type="qcurve"/>
      <point x="882" y="1374" type="line"/>
      <point x="882" y="1374"/>
      <point x="882" y="1374"/>
      <point x="882" y="1374" type="qcurve"/>
      <point x="647" y="26" type="line"/>
      <point x="647" y="26"/>
      <point x="647" y="26"/>
      <point x="647" y="26" type="qcurve"/>
    </contour>
  </outline>
</glyph>
<glyph name="one" format="2">
  <advance width="872" height="1448"/>
  <unicode hex="0031"/>
  <outline>
    <contour>
      <point x="92" y="0" type="line"/>
      <point x="664" y="0" type="line"/>
      <point x="912" y="1418" type="line"/>
      <point x="139" y="1320" type="line"/>
      <point x="132" y="1283" type="line"/>
      <point x="321" y="1307" type="line"/>
    </contour>
  </outline>
  <guideline angle="90" color="0.4,0.4,0.4,1" name="halfwidth" x="436" y="0"/>
</glyph>
<glyph name="two" format="2">
  <advance width="1384"/>
  <unicode hex="0032"/>
  <outline>
    <contour>
      <point x="-31" y="0" type="line"/>
      <point x="784" y="0" type="line" smooth="yes"/>
      <point x="975" y="0"/>
      <point x="1217" y="131"/>
      <point x="1254" y="342" type="qcurve" smooth="yes"/>
      <point x="1264" y="402" type="line"/>
      <point x="735" y="498" type="line"/>
      <point x="654" y="32" type="line"/>
      <point x="654" y="32"/>
      <point x="654" y="32"/>
      <point x="654" y="32" type="qcurve"/>
      <point x="512" y="32" type="line"/>
      <point x="618" y="638" type="line"/>
      <point x="618" y="638"/>
      <point x="618" y="638"/>
      <point x="618" y="638" type="qcurve"/>
      <point x="877" y="702" type="line" smooth="yes"/>
      <point x="1008" y="734"/>
      <point x="1182" y="804"/>
      <point x="1290" y="894"/>
      <point x="1344" y="1009"/>
      <point x="1354" y="1086" type="qcurve" smooth="yes"/>
      <point x="1357" y="1108" type="line" smooth="yes"/>
      <point x="1369" y="1197"/>
      <point x="1327" y="1314"/>
      <point x="1231" y="1383"/>
      <point x="1086" y="1410"/>
      <point x="994" y="1410" type="qcurve" smooth="yes"/>
      <point x="634" y="1410" type="line" smooth="yes"/>
      <point x="543" y="1410"/>
      <point x="387" y="1385"/>
      <point x="267" y="1313"/>
      <point x="185" y="1185"/>
      <point x="167" y="1082" type="qcurve" smooth="yes"/>
      <point x="152" y="998" type="line"/>
      <point x="656" y="902" type="line"/>
      <point x="739" y="1374" type="line"/>
      <point x="739" y="1374"/>
      <point x="739" y="1374"/>
      <point x="739" y="1374" type="qcurve"/>
      <point x="883" y="1374" type="line"/>
      <point x="883" y="1374"/>
      <point x="883" y="1374"/>
      <point x="883" y="1374" type="qcurve"/>
      <point x="766" y="712" type="line"/>
      <point x="766" y="712"/>
      <point x="766" y="712"/>
      <point x="766" y="712" type="qcurve"/>
      <point x="360" y="612" type="line" smooth="yes"/>
      <point x="223" y="578"/>
      <point x="35" y="376"/>
      <point x="5" y="206" type="qcurve" smooth="yes"/>
    </contour>
  </outline>
</glyph>
<glyph name="three" format="2">
  <advance width="1399"/>
  <unicode hex="0033"/>
  <outline>
    <contour>
      <point x="37" y="391" type="line"/>
      <point x="23" y="310" type="line" smooth="yes"/>
      <point x="-9" y="123"/>
      <point x="191" y="-10"/>
      <point x="355" y="-10" type="qcurve" smooth="yes"/>
      <point x="781" y="-10" type="line" smooth="yes"/>
      <point x="873" y="-10"/>
      <point x="1028" y="10"/>
      <point x="1147" y="78"/>
      <point x="1228" y="209"/>
      <point x="1247" y="320" type="qcurve" smooth="yes"/>
      <point x="1262" y="408" type="line" smooth="yes"/>
      <point x="1291" y="569"/>
      <point x="1187" y="709"/>
      <point x="1071" y="720" type="qcurve"/>
      <point x="1192" y="741"/>
      <point x="1320" y="856"/>
      <point x="1348" y="1014" type="qcurve" smooth="yes"/>
      <point x="1362" y="1092" type="line" smooth="yes"/>
      <point x="1378" y="1185"/>
      <point x="1340" y="1308"/>
      <point x="1248" y="1381"/>
      <point x="1111" y="1410"/>
      <point x="1029" y="1410" type="qcurve" smooth="yes"/>
      <point x="605" y="1410" type="line" smooth="yes"/>
      <point x="518" y="1410"/>
      <point x="372" y="1392"/>
      <point x="259" y="1329"/>
      <point x="181" y="1207"/>
      <point x="163" y="1102" type="qcurve" smooth="yes"/>
      <point x="151" y="1031" type="line"/>
      <point x="667" y="940" type="line"/>
      <point x="743" y="1374" type="line"/>
      <point x="743" y="1374"/>
      <point x="743" y="1374"/>
      <point x="743" y="1374" type="qcurve"/>
      <point x="793" y="1374" type="line" smooth="yes"/>
      <point x="831" y="1374"/>
      <point x="872" y="1334"/>
      <point x="863" y="1283" type="qcurve" smooth="yes"/>
      <point x="781" y="811" type="line" smooth="yes"/>
      <point x="773" y="769"/>
      <point x="743" y="736"/>
      <point x="712" y="736" type="qcurve" smooth="yes"/>
      <point x="639" y="736" type="line"/>
      <point x="633" y="700" type="line"/>
      <point x="706" y="700" type="line" smooth="yes"/>
      <point x="743" y="700"/>
      <point x="771" y="651"/>
      <point x="761" y="594" type="qcurve" smooth="yes"/>
      <point x="677" y="112" type="line" smooth="yes"/>
      <point x="667" y="56"/>
      <point x="611" y="26"/>
      <point x="566" y="26" type="qcurve" smooth="yes"/>
      <point x="506" y="26" type="line"/>
      <point x="506" y="26"/>
      <point x="506" y="26"/>
      <point x="506" y="26" type="qcurve"/>
      <point x="585" y="482" type="line"/>
    </contour>
  </outline>
</glyph>
<glyph name="four" format="2">
  <advance width="1367"/>
  <unicode hex="0034"/>
  <outline>
    <contour>
      <point x="-44" y="366" type="line"/>
      <point x="583" y="366" type="line"/>
      <point x="519" y="0" type="line"/>
      <point x="1091" y="0" type="line"/>
      <point x="1155" y="366" type="line"/>
      <point x="1254" y="366" type="line"/>
      <point x="1260" y="402" type="line"/>
      <point x="1161" y="402" type="line"/>
      <point x="1335" y="1400" type="line"/>
      <point x="985" y="1400" type="line"/>
      <point x="-40" y="392" type="line"/>
    </contour>
    <contour>
      <point x="21" y="402" type="line"/>
      <point x="707" y="1076" type="line"/>
      <point x="589" y="402" type="line"/>
    </contour>
  </outline>
</glyph>
<glyph name="five" format="2">
  <advance width="1089"/>
  <unicode hex="0035"/>
  <outline>
    <contour>
      <point x="291" y="-12" type="qcurve" smooth="yes"/>
      <point x="398.25" y="-12"/>
      <point x="632" y="2.53125"/>
      <point x="837.5" y="82.2188"/>
      <point x="991" y="252.375"/>
      <point x="1018" y="408" type="qcurve" smooth="yes"/>
      <point x="1043.5" y="553.5"/>
      <point x="957.219" y="714.875"/>
      <point x="796.531" y="792.125"/>
      <point x="592.875" y="808"/>
      <point x="501" y="808" type="qcurve" smooth="yes"/>
      <point x="437.625" y="808"/>
      <point x="324.969" y="795.594"/>
      <point x="221.281" y="773.656"/>
      <point x="124" y="743.625"/>
      <point x="76" y="726" type="qcurve"/>
      <point x="139" y="974" type="line"/>
      <point x="875" y="974" type="line"/>
      <point x="1033" y="1400" type="line"/>
      <point x="211" y="1400" type="line"/>
      <point x="23" y="664" type="line"/>
      <point x="65" y="685"/>
      <point x="158.5" y="719.938"/>
      <point x="250" y="745.062"/>
      <point x="333.75" y="759"/>
      <point x="366" y="759" type="qcurve" smooth="yes"/>
      <point x="407.25" y="759"/>
      <point x="456.094" y="726"/>
      <point x="474.656" y="646.5"/>
      <point x="464.625" y="513.75"/>
      <point x="447" y="414" type="qcurve" smooth="yes"/>
      <point x="426.375" y="294.75"/>
      <point x="376.281" y="143.062"/>
      <point x="317.969" y="56.4375"/>
      <point x="251.75" y="24"/>
      <point x="215" y="24" type="qcurve" smooth="yes"/>
      <point x="189.5" y="24"/>
      <point x="111.719" y="34"/>
      <point x="27.5312" y="52"/>
      <point x="-52.875" y="77"/>
      <point x="-81" y="92" type="qcurve"/>
      <point x="-75" y="46" type="line"/>
      <point x="-55.5" y="37.75"/>
      <point x="6.9375" y="17.5625"/>
      <point x="96.5625" y="-0.0625"/>
      <point x="215.25" y="-12"/>
    </contour>
  </outline>
</glyph>
<glyph name="six" format="2">
  <advance width="1336"/>
  <unicode hex="0036"/>
  <outline>
    <contour>
      <point x="530" y="-10" type="qcurve" smooth="yes"/>
      <point x="722.75" y="-10"/>
      <point x="967.219" y="7.28125"/>
      <point x="1114.03" y="71.9688"/>
      <point x="1184.88" y="199.125"/>
      <point x="1204" y="309" type="qcurve" smooth="yes"/>
      <point x="1229.88" y="458.25"/>
      <point x="1211.22" y="626.188"/>
      <point x="1097.03" y="708.312"/>
      <point x="874.75" y="727"/>
      <point x="697" y="727" type="qcurve" smooth="yes"/>
      <point x="612.25" y="727"/>
      <point x="475.656" y="712.375"/>
      <point x="371.594" y="690.625"/>
      <point x="299.875" y="665.5"/>
      <point x="280" y="655" type="qcurve"/>
      <point x="273" y="615" type="line"/>
      <point x="307.875" y="630"/>
      <point x="379.344" y="657.5"/>
      <point x="462.406" y="678.5"/>
      <point x="562" y="691"/>
      <point x="625" y="691" type="qcurve" smooth="yes"/>
      <point x="660.25" y="691"/>
      <point x="698.625" y="679.281"/>
      <point x="711.375" y="635.969"/>
      <point x="701.75" y="551.125"/>
      <point x="689" y="478" type="qcurve" smooth="yes"/>
      <point x="660.5" y="313.75"/>
      <point x="624.562" y="131.438"/>
      <point x="596.438" y="44.0625"/>
      <point x="569.5" y="26"/>
      <point x="550" y="26" type="qcurve" smooth="yes"/>
      <point x="530.875" y="26"/>
      <point x="511.062" y="47"/>
      <point x="514.438" y="140"/>
      <point x="543.375" y="330.5"/>
      <point x="573" y="500" type="qcurve" smooth="yes"/>
      <point x="621.75" y="777.875"/>
      <point x="709.344" y="1120.47"/>
      <point x="816.406" y="1309.28"/>
      <point x="957.625" y="1374"/>
      <point x="1060" y="1374" type="qcurve" smooth="yes"/>
      <point x="1068.62" y="1374"/>
      <point x="1088.72" y="1372.56"/>
      <point x="1109.53" y="1369.94"/>
      <point x="1130" y="1366.25"/>
      <point x="1139" y="1364" type="qcurve"/>
      <point x="1130" y="1404" type="line"/>
      <point x="1120.94" y="1406.26"/>
      <point x="1085.6" y="1410"/>
      <point x="1069" y="1410" type="qcurve" smooth="yes"/>
      <point x="840.25" y="1410"/>
      <point x="494.5" y="1324.53"/>
      <point x="247" y="1132.72"/>
      <point x="91" y="824.125"/>
      <point x="52" y="601" type="qcurve" smooth="yes"/>
      <point x="17.875" y="405.25"/>
      <point x="9.09375" y="165.375"/>
      <point x="105.656" y="34.125"/>
      <point x="330.5" y="-10"/>
    </contour>
  </outline>
</glyph>
<glyph name="seven" format="2">
  <advance width="1279"/>
  <unicode hex="0037"/>
  <outline>
    <contour>
      <point x="96" y="1083" type="line"/>
      <point x="581" y="984" type="line"/>
      <point x="647" y="1364" type="line"/>
      <point x="934" y="1364" type="line"/>
      <point x="232" y="0" type="line"/>
      <point x="780" y="0" type="line"/>
      <point x="1354" y="1163" type="line"/>
      <point x="1395" y="1400" type="line"/>
      <point x="151" y="1400" type="line"/>
    </contour>
  </outline>
  <guideline angle="90" color="0.4,0.4,0.4,1" name="halfwidth" x="639.5" y="0"/>
</glyph>
<glyph name="eight" format="2">
  <advance width="1452"/>
  <unicode hex="0038"/>
  <outline>
    <contour>
      <point x="538" y="90" type="qcurve" smooth="yes"/>
      <point x="631" y="625" type="line" smooth="yes"/>
      <point x="634" y="640"/>
      <point x="648" y="664"/>
      <point x="670" y="680"/>
      <point x="696" y="689"/>
      <point x="711" y="689" type="qcurve" smooth="yes"/>
      <point x="743" y="689" type="line" smooth="yes"/>
      <point x="761" y="689"/>
      <point x="786" y="680"/>
      <point x="800" y="664"/>
      <point x="804" y="640"/>
      <point x="801" y="625" type="qcurve" smooth="yes"/>
      <point x="708" y="90" type="line" smooth="yes"/>
      <point x="703" y="60"/>
      <point x="665" y="26"/>
      <point x="628" y="26" type="qcurve" smooth="yes"/>
      <point x="596" y="26" type="line" smooth="yes"/>
      <point x="559" y="26"/>
      <point x="533" y="60"/>
    </contour>
    <contour>
      <point x="918" y="1311" type="qcurve" smooth="yes"/>
      <point x="827" y="788" type="line" smooth="yes"/>
      <point x="822" y="759"/>
      <point x="776" y="725"/>
      <point x="747" y="725" type="qcurve" smooth="yes"/>
      <point x="721" y="725" type="line" smooth="yes"/>
      <point x="684" y="725"/>
      <point x="658" y="759"/>
      <point x="663" y="788" type="qcurve" smooth="yes"/>
      <point x="754" y="1311" type="line" smooth="yes"/>
      <point x="759" y="1340"/>
      <point x="805" y="1374"/>
      <point x="834" y="1374" type="qcurve" smooth="yes"/>
      <point x="860" y="1374" type="line" smooth="yes"/>
      <point x="889" y="1374"/>
      <point x="923" y="1340"/>
    </contour>
    <contour>
      <point x="21" y="343" type="line" smooth="yes"/>
      <point x="3" y="242"/>
      <point x="45" y="106"/>
      <point x="144" y="24"/>
      <point x="294" y="-10"/>
      <point x="384" y="-10" type="qcurve" smooth="yes"/>
      <point x="825" y="-10" type="line" smooth="yes"/>
      <point x="1008" y="-10"/>
      <point x="1278" y="142"/>
      <point x="1313" y="344" type="qcurve" smooth="yes"/>
      <point x="1322" y="396" type="line" smooth="yes"/>
      <point x="1352" y="566"/>
      <point x="1251" y="696"/>
      <point x="1181" y="712" type="qcurve"/>
      <point x="1252" y="729"/>
      <point x="1374" y="868"/>
      <point x="1394" y="977" type="qcurve" smooth="yes"/>
      <point x="1410" y="1072" type="line" smooth="yes"/>
      <point x="1437" y="1228"/>
      <point x="1270" y="1410"/>
      <point x="1068" y="1410" type="qcurve" smooth="yes"/>
      <point x="639" y="1410" type="line" smooth="yes"/>
      <point x="437" y="1410"/>
      <point x="205" y="1228"/>
      <point x="178" y="1071" type="qcurve" smooth="yes"/>
      <point x="162" y="977" type="line" smooth="yes"/>
      <point x="142" y="868"/>
      <point x="214" y="729"/>
      <point x="282" y="712" type="qcurve"/>
      <point x="205" y="695"/>
      <point x="59" y="563"/>
      <point x="29" y="392" type="qcurve" smooth="yes"/>
    </contour>
  </outline>
</glyph>
<glyph name="nine" format="2">
  <advance width="1326"/>
  <unicode hex="0039"/>
  <outline>
    <contour>
      <point x="798" y="1410" type="qcurve" smooth="yes"/>
      <point x="605" y="1410"/>
      <point x="361" y="1395"/>
      <point x="215" y="1333"/>
      <point x="145" y="1207"/>
      <point x="126" y="1096" type="qcurve" smooth="yes"/>
      <point x="98" y="937"/>
      <point x="114" y="756"/>
      <point x="227" y="666"/>
      <point x="448" y="643"/>
      <point x="626" y="643" type="qcurve" smooth="yes"/>
      <point x="711" y="643"/>
      <point x="847" y="658"/>
      <point x="951" y="679"/>
      <point x="1023" y="705"/>
      <point x="1043" y="715" type="qcurve"/>
      <point x="1050" y="755" type="line"/>
      <point x="1015" y="740"/>
      <point x="944" y="713"/>
      <point x="861" y="692"/>
      <point x="762" y="679"/>
      <point x="699" y="679" type="qcurve" smooth="yes"/>
      <point x="664" y="679"/>
      <point x="625" y="691"/>
      <point x="612" y="734"/>
      <point x="621" y="819"/>
      <point x="634" y="892" type="qcurve" smooth="yes"/>
      <point x="664" y="1068"/>
      <point x="703" y="1262"/>
      <point x="732" y="1355"/>
      <point x="760" y="1374"/>
      <point x="779" y="1374" type="qcurve" smooth="yes"/>
      <point x="798" y="1374"/>
      <point x="817" y="1350"/>
      <point x="813" y="1253"/>
      <point x="783" y="1060"/>
      <point x="753" y="890" type="qcurve" smooth="yes"/>
      <point x="704" y="611"/>
      <point x="617" y="270"/>
      <point x="511" y="84"/>
      <point x="370" y="22"/>
      <point x="268" y="22" type="qcurve" smooth="yes"/>
      <point x="259" y="22"/>
      <point x="239" y="23"/>
      <point x="218" y="26"/>
      <point x="198" y="30"/>
      <point x="189" y="32" type="qcurve"/>
      <point x="198" y="-8" type="line"/>
      <point x="207" y="-10"/>
      <point x="242" y="-14"/>
      <point x="259" y="-14" type="qcurve" smooth="yes"/>
      <point x="488" y="-14"/>
      <point x="833" y="66"/>
      <point x="1079" y="252"/>
      <point x="1234" y="556"/>
      <point x="1273" y="779" type="qcurve" smooth="yes"/>
      <point x="1307" y="975"/>
      <point x="1317" y="1221"/>
      <point x="1221" y="1360"/>
      <point x="998" y="1410"/>
    </contour>
  </outline>
</glyph>
<glyph name="colon" format="2">
  <advance width="691"/>
  <unicode hex="003A"/>
  <outline>
    <contour>
      <point x="-15" y="135" type="line" smooth="yes"/>
      <point x="-24.375" y="82.875"/>
      <point x="-29.5625" y="25.7812"/>
      <point x="-7.4375" y="-1.03125"/>
      <point x="48.875" y="-6"/>
      <point x="101" y="-6" type="qcurve" smooth="yes"/>
      <point x="349" y="-6" type="line" smooth="yes"/>
      <point x="401.125" y="-6"/>
      <point x="459" y="-1.03125"/>
      <point x="490.5" y="25.7812"/>
      <point x="505.625" y="82.875"/>
      <point x="515" y="135" type="qcurve" smooth="yes"/>
      <point x="546" y="314" type="line" smooth="yes"/>
      <point x="555" y="365.75"/>
      <point x="559.469" y="422.438"/>
      <point x="536.781" y="449.062"/>
      <point x="480.125" y="454"/>
      <point x="428" y="454" type="qcurve" smooth="yes"/>
      <point x="181" y="454" type="line" smooth="yes"/>
      <point x="128.875" y="454"/>
      <point x="71.0312" y="449.125"/>
      <point x="39.7188" y="422.875"/>
      <point x="25" y="367"/>
      <point x="16" y="316" type="qcurve" smooth="yes"/>
    </contour>
    <contour>
      <point x="86" y="715" type="line" smooth="yes"/>
      <point x="77" y="662.875"/>
      <point x="71.9062" y="605.781"/>
      <point x="93.8438" y="578.969"/>
      <point x="149.875" y="574"/>
      <point x="202" y="574" type="qcurve" smooth="yes"/>
      <point x="450" y="574" type="line" smooth="yes"/>
      <point x="502.125" y="574"/>
      <point x="560.281" y="578.969"/>
      <point x="591.969" y="605.781"/>
      <point x="607" y="662.875"/>
      <point x="616" y="715" type="qcurve" smooth="yes"/>
      <point x="647" y="894" type="line" smooth="yes"/>
      <point x="656" y="945.75"/>
      <point x="660.469" y="1002.44"/>
      <point x="637.781" y="1029.06"/>
      <point x="581.125" y="1034"/>
      <point x="529" y="1034" type="qcurve" smooth="yes"/>
      <point x="282" y="1034" type="line" smooth="yes"/>
      <point x="229.875" y="1034"/>
      <point x="172.031" y="1029.12"/>
      <point x="140.719" y="1002.88"/>
      <point x="126" y="947"/>
      <point x="117" y="896" type="qcurve" smooth="yes"/>
    </contour>
  </outline>
</glyph>
<glyph name="semicolon" format="2">
  <advance width="690"/>
  <unicode hex="003B"/>
  <outline>
    <contour>
      <point x="99" y="-336" type="line"/>
      <point x="125" y="-342" type="line"/>
      <point x="477" y="36" type="line"/>
      <point x="354" y="25" type="line"/>
    </contour>
    <contour>
      <point x="-14" y="145" type="line" smooth="yes"/>
      <point x="-29.8466" y="54.448"/>
      <point x="12.448" y="4"/>
      <point x="103" y="4" type="qcurve" smooth="yes"/>
      <point x="351" y="4" type="line" smooth="yes"/>
      <point x="441" y="4"/>
      <point x="500.25" y="55"/>
      <point x="516" y="145" type="qcurve" smooth="yes"/>
      <point x="546" y="315" type="line" smooth="yes"/>
      <point x="561.847" y="404.043"/>
      <point x="519.552" y="454"/>
      <point x="429" y="454" type="qcurve" smooth="yes"/>
      <point x="181" y="454" type="line" smooth="yes"/>
      <point x="91" y="454"/>
      <point x="31.75" y="403.5"/>
      <point x="16" y="315" type="qcurve" smooth="yes"/>
    </contour>
    <contour>
      <point x="86" y="715" type="line" smooth="yes"/>
      <point x="70.1534" y="624.448"/>
      <point x="111.448" y="574"/>
      <point x="202" y="574" type="qcurve" smooth="yes"/>
      <point x="450" y="574" type="line" smooth="yes"/>
      <point x="540" y="574"/>
      <point x="600.25" y="625"/>
      <point x="616" y="715" type="qcurve" smooth="yes"/>
      <point x="647" y="894" type="line" smooth="yes"/>
      <point x="662.847" y="983.797"/>
      <point x="619.552" y="1034"/>
      <point x="529" y="1034" type="qcurve" smooth="yes"/>
      <point x="282" y="1034" type="line" smooth="yes"/>
      <point x="192" y="1034"/>
      <point x="132.75" y="983.75"/>
      <point x="117" y="896" type="qcurve" smooth="yes"/>
    </contour>
  </outline>
</glyph>
<glyph name="less" format="2">
  <advance width="626"/>
  <unicode hex="003C"/>
  <outline>
    <contour>
      <point x="479" y="241" type="line"/>
      <point x="485" y="278" type="line"/>
      <point x="89" y="581" type="line"/>
      <point x="591" y="884" type="line"/>
      <point x="599" y="927" type="line"/>
      <point x="56" y="601" type="line"/>
      <point x="50" y="565" type="line"/>
    </contour>
  </outline>
</glyph>
<glyph name="equal" format="2">
  <advance width="626"/>
  <unicode hex="003D"/>
  <outline>
    <contour>
      <point x="-132" y="699" type="line"/>
      <point x="762" y="699" type="line"/>
      <point x="769" y="735" type="line"/>
      <point x="-125" y="735" type="line"/>
    </contour>
    <contour>
      <point x="-175" y="439" type="line"/>
      <point x="719" y="439" type="line"/>
      <point x="726" y="475" type="line"/>
      <point x="-168" y="475" type="line"/>
    </contour>
  </outline>
</glyph>
<glyph name="question" format="2">
  <advance width="1111"/>
  <unicode hex="003F"/>
  <outline>
    <contour>
      <point x="458" y="462" type="line"/>
      <point x="498" y="462" type="line"/>
      <point x="537" y="689" type="line"/>
      <point x="537" y="689"/>
      <point x="537" y="689"/>
      <point x="537" y="689" type="qcurve"/>
      <point x="811" y="689" type="line" smooth="yes"/>
      <point x="937" y="689"/>
      <point x="1074" y="869"/>
      <point x="1094" y="987" type="qcurve" smooth="yes"/>
      <point x="1117" y="1115" type="line" smooth="yes"/>
      <point x="1145" y="1275"/>
      <point x="1022" y="1410"/>
      <point x="850" y="1410" type="qcurve" smooth="yes"/>
      <point x="494" y="1410" type="line" smooth="yes"/>
      <point x="322" y="1410"/>
      <point x="149" y="1272"/>
      <point x="121" y="1113" type="qcurve" smooth="yes"/>
      <point x="103" y="1008" type="line"/>
      <point x="545" y="935" type="line"/>
      <point x="622" y="1374" type="line"/>
      <point x="622" y="1374"/>
      <point x="622" y="1374"/>
      <point x="622" y="1374" type="qcurve"/>
      <point x="707" y="1374" type="line"/>
      <point x="707" y="1374"/>
      <point x="707" y="1374"/>
      <point x="707" y="1374" type="qcurve"/>
      <point x="607" y="804" type="line" smooth="yes"/>
      <point x="599" y="760"/>
      <point x="581" y="725"/>
      <point x="543" y="725" type="qcurve" smooth="yes"/>
      <point x="504" y="725" type="line"/>
      <point x="504" y="725"/>
      <point x="504" y="725"/>
      <point x="504" y="725" type="qcurve"/>
    </contour>
    <contour>
      <point x="156" y="135" type="line" smooth="yes"/>
      <point x="140" y="44"/>
      <point x="181" y="-6"/>
      <point x="272" y="-6" type="qcurve" smooth="yes"/>
      <point x="520" y="-6" type="line" smooth="yes"/>
      <point x="610" y="-6"/>
      <point x="670" y="45"/>
      <point x="686" y="135" type="qcurve" smooth="yes"/>
      <point x="701" y="224" type="line" smooth="yes"/>
      <point x="717" y="314"/>
      <point x="675" y="364"/>
      <point x="584" y="364" type="qcurve" smooth="yes"/>
      <point x="337" y="364" type="line" smooth="yes"/>
      <point x="247" y="364"/>
      <point x="187" y="314"/>
      <point x="171" y="226" type="qcurve" smooth="yes"/>
    </contour>
  </outline>
</glyph>
<glyph name="at" format="2">
  <advance width="1797"/>
  <unicode hex="0040"/>
  <outline>
    <contour>
      <point x="-12" y="194" type="line" smooth="yes"/>
      <point x="-43.5" y="13.25"/>
      <point x="123.75" y="-100"/>
      <point x="288" y="-100" type="qcurve" smooth="yes"/>
      <point x="1293" y="-100" type="line"/>
      <point x="1299" y="-64" type="line"/>
      <point x="399" y="-64" type="line" smooth="yes"/>
      <point x="306.939" y="-64"/>
      <point x="262.945" y="-1.0674"/>
      <point x="272" y="51" type="qcurve" smooth="yes"/>
      <point x="438" y="1001" type="line" smooth="yes"/>
      <point x="449.319" y="1065.14"/>
      <point x="536.595" y="1104"/>
      <point x="603" y="1104" type="qcurve" smooth="yes"/>
      <point x="1331" y="1104" type="line" smooth="yes"/>
      <point x="1424.57" y="1104"/>
      <point x="1479.55" y="1047.03"/>
      <point x="1472" y="1001" type="qcurve" smooth="yes"/>
      <point x="1343" y="265" type="line" smooth="yes"/>
      <point x="1335.45" y="222.742"/>
      <point x="1310.2" y="182"/>
      <point x="1277" y="182" type="qcurve" smooth="yes"/>
      <point x="1252" y="182" type="line" smooth="yes"/>
      <point x="1225.75" y="182"/>
      <point x="1207.25" y="205.5"/>
      <point x="1211" y="228" type="qcurve" smooth="yes"/>
      <point x="1324" y="878" type="line"/>
      <point x="968" y="878" type="line"/>
      <point x="966" y="865" type="line"/>
      <point x="957.699" y="875.564"/>
      <point x="929.564" y="882"/>
      <point x="919" y="882" type="qcurve" smooth="yes"/>
      <point x="746" y="882" type="line" smooth="yes"/>
      <point x="634.319" y="882"/>
      <point x="516.847" y="796.061"/>
      <point x="501" y="704" type="qcurve" smooth="yes"/>
      <point x="437" y="339" type="line" smooth="yes"/>
      <point x="420.399" y="241.657"/>
      <point x="506.565" y="154"/>
      <point x="619" y="154" type="qcurve" smooth="yes"/>
      <point x="758" y="154" type="line" smooth="yes"/>
      <point x="802.521" y="154"/>
      <point x="861.153" y="186.08"/>
      <point x="877" y="214" type="qcurve"/>
      <point x="895.865" y="189.853"/>
      <point x="969.933" y="154"/>
      <point x="1022" y="154" type="qcurve" smooth="yes"/>
      <point x="1344" y="154" type="line" smooth="yes"/>
      <point x="1482.85" y="154"/>
      <point x="1651.33" y="260.743"/>
      <point x="1680" y="426" type="qcurve" smooth="yes"/>
      <point x="1756" y="859" type="line" smooth="yes"/>
      <point x="1771.38" y="946.75"/>
      <point x="1738.44" y="1056.5"/>
      <point x="1655.56" y="1118"/>
      <point x="1529.62" y="1140"/>
      <point x="1452" y="1140" type="qcurve" smooth="yes"/>
      <point x="504" y="1140" type="line" smooth="yes"/>
      <point x="348" y="1140"/>
      <point x="134.75" y="1034.5"/>
      <point x="104" y="859" type="qcurve" smooth="yes"/>
    </contour>
    <contour>
      <point x="777" y="186" type="qcurve"/>
      <point x="893" y="850" type="line"/>
      <point x="893" y="850"/>
      <point x="893" y="850"/>
      <point x="893" y="850" type="qcurve"/>
      <point x="963" y="850" type="line"/>
      <point x="863" y="277" type="line" smooth="yes"/>
      <point x="855.454" y="231.724"/>
      <point x="817.221" y="186"/>
      <point x="781" y="186" type="qcurve" smooth="yes"/>
      <point x="777" y="186" type="line"/>
      <point x="777" y="186"/>
      <point x="777" y="186"/>
    </contour>
  </outline>
</glyph>
<glyph name="B" format="2">
  <advance width="1400"/>
  <unicode hex="0042"/>
  <anchor x="700" y="1550" name="top"/>
  <anchor x="700" y="-150" name="bottom"/>
  <outline>
    <contour>
      <point x="-29" y="0" type="line"/>
      <point x="838" y="0" type="line" smooth="yes"/>
      <point x="947.5" y="0"/>
      <point x="1110.84" y="38"/>
      <point x="1225.41" y="119"/>
      <point x="1294.62" y="245.5"/>
      <point x="1310" y="334" type="qcurve" smooth="yes"/>
      <point x="1319" y="384" type="line" smooth="yes"/>
      <point x="1343.15" y="523.601"/>
      <point x="1269.42" y="685.589"/>
      <point x="1160" y="712" type="qcurve"/>
      <point x="1275.45" y="751.994"/>
      <point x="1392.36" y="896.963"/>
      <point x="1415" y="1026" type="qcurve" smooth="yes"/>
      <point x="1422" y="1066" type="line" smooth="yes"/>
      <point x="1437.38" y="1154.5"/>
      <point x="1412.09" y="1281"/>
      <point x="1325.66" y="1362"/>
      <point x="1175.5" y="1400"/>
      <point x="1066" y="1400" type="qcurve" smooth="yes"/>
      <point x="215" y="1400" type="line"/>
    </contour>
    <contour>
      <point x="549" y="36" type="line"/>
      <point x="664" y="692" type="line"/>
      <point x="725" y="692" type="line" smooth="yes"/>
      <point x="764.239" y="692"/>
      <point x="795.282" y="659.166"/>
      <point x="790" y="632" type="qcurve"/>
      <point x="697" y="96" type="line" smooth="yes"/>
      <point x="691.718" y="68.8344"/>
      <point x="649.239" y="36"/>
      <point x="610" y="36" type="qcurve" smooth="yes"/>
    </contour>
    <contour>
      <point x="670" y="728" type="line"/>
      <point x="781" y="1364" type="line"/>
      <point x="826" y="1364" type="line" smooth="yes"/>
      <point x="865.239" y="1364"/>
      <point x="896.528" y="1331.17"/>
      <point x="892" y="1304" type="qcurve" smooth="yes"/>
      <point x="802" y="788" type="line" smooth="yes"/>
      <point x="796.718" y="760.834"/>
      <point x="754.239" y="728"/>
      <point x="715" y="728" type="qcurve" smooth="yes"/>
    </contour>
  </outline>
</glyph>
<glyph name="D" format="2">
  <advance width="1376"/>
  <unicode hex="0044"/>
  <anchor x="784" y="1550" name="top"/>
  <anchor x="485" y="-150" name="bottom"/>
  <outline>
    <contour>
      <point x="549" y="36" type="line"/>
      <point x="781" y="1364" type="line"/>
      <point x="791" y="1364" type="line" smooth="yes"/>
      <point x="816.125" y="1364"/>
      <point x="844.5" y="1295.66"/>
      <point x="846" y="1142.09"/>
      <point x="818.125" y="894.875"/>
      <point x="787" y="716" type="qcurve" smooth="yes"/>
      <point x="755.125" y="534.125"/>
      <point x="695.875" y="276.156"/>
      <point x="639.625" y="112.094"/>
      <point x="585.625" y="36"/>
      <point x="559" y="36" type="qcurve" smooth="yes"/>
    </contour>
    <contour>
      <point x="-29" y="0" type="line"/>
      <point x="558" y="0" type="line" smooth="yes"/>
      <point x="708" y="0"/>
      <point x="966.031" y="61.9375"/>
      <point x="1168.72" y="211.562"/>
      <point x="1309.38" y="461.75"/>
      <point x="1342" y="650" type="qcurve" smooth="yes"/>
      <point x="1373.12" y="827"/>
      <point x="1336.75" y="1105.62"/>
      <point x="1201.75" y="1298.38"/>
      <point x="968.125" y="1400"/>
      <point x="802" y="1400" type="qcurve" smooth="yes"/>
      <point x="215" y="1400" type="line"/>
    </contour>
  </outline>
</glyph>
<glyph name="E" format="2">
  <advance width="1107.65"/>
  <unicode hex="0045"/>
  <anchor x="744" y="1550" name="top"/>
  <anchor x="447" y="-150" name="bottom"/>
  <anchor x="599" y="0" name="ogonek"/>
  <outline>
    <contour>
      <point x="-32" y="0" type="line"/>
      <point x="212" y="1400" type="line"/>
      <point x="1208" y="1400" type="line"/>
      <point x="1202" y="1364" type="line"/>
      <point x="778" y="1364" type="line"/>
      <point x="668" y="736" type="line"/>
      <point x="1052" y="736" type="line"/>
      <point x="1046" y="700" type="line"/>
      <point x="662" y="700" type="line"/>
      <point x="546" y="36" type="line"/>
      <point x="984" y="36" type="line"/>
      <point x="978" y="0" type="line"/>
    </contour>
  </outline>
  <guideline angle="90" x="-130" y="0"/>
</glyph>
<glyph name="F" format="2">
  <advance width="1071"/>
  <unicode hex="0046"/>
  <outline>
    <contour>
      <point x="-29" y="0" type="line"/>
      <point x="543" y="0" type="line"/>
      <point x="665" y="698" type="line"/>
      <point x="945" y="698" type="line"/>
      <point x="951" y="734" type="line"/>
      <point x="671" y="734" type="line"/>
      <point x="781" y="1364" type="line"/>
      <point x="1181" y="1364" type="line"/>
      <point x="1187" y="1400" type="line"/>
      <point x="215" y="1400" type="line"/>
    </contour>
  </outline>
</glyph>
<glyph name="H" format="2">
  <advance width="1423"/>
  <unicode hex="0048"/>
  <anchor x="864" y="1550" name="top"/>
  <anchor x="567" y="-150" name="bottom"/>
  <outline>
    <contour>
      <point x="-29" y="0" type="line"/>
      <point x="543" y="0" type="line"/>
      <point x="667" y="710" type="line"/>
      <point x="767" y="710" type="line"/>
      <point x="643" y="0" type="line"/>
      <point x="1215" y="0" type="line"/>
      <point x="1459" y="1400" type="line"/>
      <point x="887" y="1400" type="line"/>
      <point x="773" y="746" type="line"/>
      <point x="673" y="746" type="line"/>
      <point x="787" y="1400" type="line"/>
      <point x="215" y="1400" type="line"/>
    </contour>
  </outline>
  <guideline angle="260.1" color="1,0,0,1" x="593" y="0"/>
</glyph>
<glyph name="I" format="2">
  <advance width="748" height="1448"/>
  <unicode hex="0049"/>
  <anchor x="525" y="1550" name="top"/>
  <anchor x="228" y="-150" name="bottom"/>
  <anchor x="9" y="0" name="ogonek"/>
  <outline>
    <contour>
      <point x="-32" y="0" type="line"/>
      <point x="212" y="1400" type="line"/>
      <point x="784" y="1400" type="line"/>
      <point x="540" y="0" type="line"/>
    </contour>
  </outline>
</glyph>
<glyph name="K" format="2">
  <advance width="1535" height="1448"/>
  <unicode hex="004B"/>
  <anchor x="908" y="1550" name="top"/>
  <anchor x="670" y="-150" name="bottom"/>
  <outline>
    <contour>
      <point x="-32" y="0" type="line"/>
      <point x="540" y="0" type="line"/>
      <point x="656" y="665" type="line"/>
      <point x="607" y="761" type="line"/>
      <point x="803" y="0" type="line"/>
      <point x="1425" y="0" type="line"/>
      <point x="1106" y="1069" type="line"/>
      <point x="726" y="781" type="line"/>
      <point x="1603" y="1400" type="line"/>
      <point x="1545" y="1400" type="line"/>
      <point x="668" y="781" type="line"/>
      <point x="676" y="776" type="line"/>
      <point x="784" y="1400" type="line"/>
      <point x="212" y="1400" type="line"/>
    </contour>
  </outline>
</glyph>
<glyph name="M" format="2">
  <advance width="1507"/>
  <unicode hex="004D"/>
  <anchor x="907" y="1550" name="top"/>
  <anchor x="610" y="-150" name="bottom"/>
  <outline>
    <contour>
      <point x="-29" y="0" type="line"/>
      <point x="9" y="0" type="line"/>
      <point x="147" y="788" type="line"/>
      <point x="428" y="203" type="line"/>
      <point x="864" y="787" type="line"/>
      <point x="727" y="0" type="line"/>
      <point x="1299" y="0" type="line"/>
      <point x="1543" y="1400" type="line"/>
      <point x="1281" y="1400" type="line"/>
      <point x="826" y="790" type="line"/>
      <point x="534" y="1400" type="line"/>
      <point x="215" y="1400" type="line"/>
    </contour>
  </outline>
</glyph>
<glyph name="P" format="2">
  <advance width="1368"/>
  <unicode hex="0050"/>
  <outline>
    <contour>
      <point x="-29" y="0" type="line"/>
      <point x="543" y="0" type="line"/>
      <point x="620" y="440" type="line"/>
      <point x="888" y="440" type="line" smooth="yes"/>
      <point x="983" y="440"/>
      <point x="1140" y="469"/>
      <point x="1261" y="544"/>
      <point x="1342" y="674"/>
      <point x="1360" y="774" type="qcurve" smooth="yes"/>
      <point x="1411" y="1066" type="line" smooth="yes"/>
      <point x="1446" y="1267"/>
      <point x="1244" y="1400"/>
      <point x="1055" y="1400" type="qcurve" smooth="yes"/>
      <point x="215" y="1400" type="line"/>
    </contour>
    <contour>
      <point x="626" y="476" type="line"/>
      <point x="781" y="1364" type="line"/>
      <point x="815" y="1364" type="line" smooth="yes"/>
      <point x="854" y="1364"/>
      <point x="886" y="1331"/>
      <point x="881" y="1304" type="qcurve" smooth="yes"/>
      <point x="747" y="536" type="line" smooth="yes"/>
      <point x="742" y="509"/>
      <point x="699" y="476"/>
      <point x="660" y="476" type="qcurve" smooth="yes"/>
    </contour>
  </outline>
  <guideline angle="90" color="0.4,0.4,0.4,1" name="halfwidth" x="684" y="0"/>
</glyph>
<glyph name="Q" format="2">
  <advance width="1390"/>
  <unicode hex="0051"/>
  <anchor x="695" y="1550" name="top"/>
  <anchor x="695" y="-438" name="bottom"/>
  <outline>
    <contour>
      <point x="142" y="1076" type="qcurve" smooth="yes"/>
      <point x="13" y="336" type="line" smooth="yes"/>
      <point x="-23.2208" y="129.24"/>
      <point x="164.786" y="-10"/>
      <point x="364" y="-10" type="qcurve" smooth="yes"/>
      <point x="782" y="-10" type="line" smooth="yes"/>
      <point x="981.214" y="-10"/>
      <point x="1220.02" y="127.73"/>
      <point x="1257" y="336" type="qcurve" smooth="yes"/>
      <point x="1386" y="1076" type="line" smooth="yes"/>
      <point x="1421.25" y="1277"/>
      <point x="1219" y="1410"/>
      <point x="1030" y="1410" type="qcurve" smooth="yes"/>
      <point x="612" y="1410" type="line" smooth="yes"/>
      <point x="423" y="1410"/>
      <point x="177.25" y="1277"/>
    </contour>
    <contour>
      <point x="766" y="1374" type="line"/>
      <point x="766" y="1374"/>
      <point x="766" y="1374"/>
      <point x="766" y="1374" type="qcurve"/>
      <point x="866" y="1374" type="line"/>
      <point x="866" y="1374"/>
      <point x="866" y="1374"/>
      <point x="866" y="1374" type="qcurve"/>
      <point x="631" y="26" type="line"/>
      <point x="631" y="26"/>
      <point x="631" y="26"/>
      <point x="631" y="26" type="qcurve"/>
      <point x="531" y="26" type="line"/>
      <point x="531" y="26"/>
      <point x="531" y="26"/>
      <point x="531" y="26" type="qcurve"/>
    </contour>
    <contour>
      <point x="506" y="-282" type="line"/>
      <point x="876" y="-282" type="line"/>
      <point x="958" y="537" type="line"/>
      <point x="647" y="526" type="line"/>
    </contour>
  </outline>
</glyph>
<glyph name="R" format="2">
  <advance width="1540"/>
  <unicode hex="0052"/>
  <anchor x="770" y="-150" name="bottom"/>
  <anchor x="770" y="1550" name="top"/>
  <outline>
    <contour>
      <point x="-29" y="0" type="line"/>
      <point x="543" y="0" type="line"/>
      <point x="636" y="530" type="line"/>
      <point x="646" y="530" type="line"/>
      <point x="751" y="0" type="line"/>
      <point x="1373" y="0" type="line"/>
      <point x="1170" y="603" type="line"/>
      <point x="1170" y="603" type="line"/>
      <point x="1251.75" y="636"/>
      <point x="1360.5" y="779"/>
      <point x="1383" y="908" type="qcurve" smooth="yes"/>
      <point x="1406" y="1036" type="line" smooth="yes"/>
      <point x="1441.25" y="1237"/>
      <point x="1224" y="1400"/>
      <point x="1035" y="1400" type="qcurve" smooth="yes"/>
      <point x="215" y="1400" type="line"/>
    </contour>
    <contour>
      <point x="642" y="570" type="line"/>
      <point x="781" y="1364" type="line"/>
      <point x="815" y="1364" type="line" smooth="yes"/>
      <point x="854.239" y="1364"/>
      <point x="885.528" y="1331.17"/>
      <point x="881" y="1304" type="qcurve" smooth="yes"/>
      <point x="763" y="630" type="line" smooth="yes"/>
      <point x="758.472" y="602.834"/>
      <point x="715.239" y="570"/>
      <point x="676" y="570" type="qcurve" smooth="yes"/>
    </contour>
  </outline>
</glyph>
<glyph name="T" format="2">
  <advance width="1145"/>
  <unicode hex="0054"/>
  <anchor x="726" y="1550" name="top"/>
  <anchor x="429" y="-150" name="bottom"/>
  <outline>
    <contour>
      <point x="169" y="0" type="line"/>
      <point x="741" y="0" type="line"/>
      <point x="979" y="1364" type="line"/>
      <point x="1255" y="1364" type="line"/>
      <point x="1261" y="1400" type="line"/>
      <point x="137" y="1400" type="line"/>
      <point x="131" y="1364" type="line"/>
      <point x="407" y="1364" type="line"/>
    </contour>
  </outline>
</glyph>
<glyph name="V" format="2">
  <advance width="1195"/>
  <unicode hex="0056"/>
  <anchor x="871" y="1550" name="top"/>
  <anchor x="494" y="-150" name="bottom"/>
  <outline>
    <contour>
      <point x="383" y="0" type="line"/>
      <point x="657" y="0" type="line"/>
      <point x="1331" y="1400" type="line"/>
      <point x="1291" y="1400" type="line"/>
      <point x="856" y="495" type="line"/>
      <point x="696" y="1400" type="line"/>
      <point x="117" y="1400" type="line"/>
    </contour>
  </outline>
</glyph>
<glyph name="W" format="2">
  <advance width="1810"/>
  <unicode hex="0057"/>
  <anchor x="828" y="-150" name="bottom"/>
  <anchor x="1058" y="1550" name="top"/>
  <outline>
    <contour>
      <point x="286.858" y="0" type="line"/>
      <point x="560.858" y="0" type="line"/>
      <point x="971.858" y="999" type="line"/>
      <point x="1094.86" y="0" type="line"/>
      <point x="1368.86" y="0" type="line"/>
      <point x="1946.86" y="1400" type="line"/>
      <point x="1907.86" y="1400" type="line"/>
      <point x="1582.86" y="614" type="line"/>
      <point x="1487.86" y="1400" type="line"/>
      <point x="1096.86" y="1400" type="line"/>
      <point x="774.858" y="616" type="line"/>
      <point x="684.858" y="1400" type="line"/>
      <point x="116.858" y="1400" type="line"/>
    </contour>
  </outline>
</glyph>
<glyph name="Z" format="2">
  <advance width="1300"/>
  <unicode hex="005A"/>
  <anchor x="824" y="1550" name="top"/>
  <anchor x="523" y="-150" name="bottom"/>
  <outline>
    <contour>
      <point x="-59" y="0" type="line"/>
      <point x="1105" y="0" type="line"/>
      <point x="1111" y="36" type="line"/>
      <point x="546" y="36" type="line"/>
      <point x="552" y="26" type="line"/>
      <point x="1336" y="1382" type="line"/>
      <point x="1339" y="1400" type="line"/>
      <point x="255" y="1400" type="line"/>
      <point x="249" y="1364" type="line"/>
      <point x="734" y="1364" type="line"/>
      <point x="728" y="1374" type="line"/>
      <point x="-56" y="18" type="line"/>
    </contour>
  </outline>
</glyph>
<glyph name="bracketleft" format="2">
  <advance width="764"/>
  <unicode hex="005B"/>
  <outline>
    <contour>
      <point x="-74" y="-256" type="line"/>
      <point x="588" y="-256" type="line"/>
      <point x="594" y="-224" type="line"/>
      <point x="372" y="-224" type="line"/>
      <point x="658" y="1416" type="line"/>
      <point x="880" y="1416" type="line"/>
      <point x="886" y="1448" type="line"/>
      <point x="224" y="1448" type="line"/>
    </contour>
  </outline>
</glyph>
<glyph name="bracketright" format="2">
  <advance width="764"/>
  <unicode hex="005D"/>
  <outline>
    <contour>
      <point x="886" y="1448" type="line"/>
      <point x="224" y="1448" type="line"/>
      <point x="218" y="1416" type="line"/>
      <point x="440" y="1416" type="line"/>
      <point x="154" y="-224" type="line"/>
      <point x="-68" y="-224" type="line"/>
      <point x="-74" y="-256" type="line"/>
      <point x="588" y="-256" type="line"/>
    </contour>
  </outline>
</glyph>
<glyph name="asciicircum" format="2">
  <advance width="760"/>
  <unicode hex="005E"/>
  <outline>
    <contour>
      <point x="30" y="850" type="line"/>
      <point x="70" y="850" type="line"/>
      <point x="344" y="1411" type="line"/>
      <point x="437" y="850" type="line"/>
      <point x="789" y="850" type="line"/>
      <point x="645" y="1448" type="line"/>
      <point x="327" y="1448" type="line"/>
    </contour>
  </outline>
  <guideline angle="0" x="0" y="850"/>
</glyph>
<glyph name="underscore" format="2">
  <advance width="540"/>
  <unicode hex="005F"/>
  <outline>
    <contour>
      <point x="-163" y="-209" type="line"/>
      <point x="417" y="-209" type="line"/>
      <point x="423" y="-173" type="line"/>
      <point x="-157" y="-173" type="line"/>
    </contour>
  </outline>
</glyph>
<glyph name="b" format="2">
  <advance width="1295"/>
  <unicode hex="0062"/>
  <anchor x="816" y="1598" name="top"/>
  <anchor x="509" y="-162" name="bottom"/>
  <outline>
    <contour>
      <point x="-37" y="0" type="line"/>
      <point x="487" y="0" type="line"/>
      <point x="492" y="28" type="line"/>
      <point x="500.301" y="13.6626"/>
      <point x="535.834" y="0"/>
      <point x="563" y="0" type="qcurve" smooth="yes"/>
      <point x="805" y="0" type="line" smooth="yes"/>
      <point x="952.147" y="0"/>
      <point x="1130.59" y="111.571"/>
      <point x="1157" y="264" type="qcurve" smooth="yes"/>
      <point x="1246" y="776" type="line" smooth="yes"/>
      <point x="1273.92" y="927.675"/>
      <point x="1120.07" y="1030"/>
      <point x="985" y="1030" type="qcurve" smooth="yes"/>
      <point x="743" y="1030" type="line" smooth="yes"/>
      <point x="710.552" y="1030"/>
      <point x="671.301" y="1018.07"/>
      <point x="663" y="1006" type="qcurve"/>
      <point x="744" y="1472" type="line"/>
      <point x="220" y="1472" type="line"/>
    </contour>
    <contour>
      <point x="493" y="32" type="line"/>
      <point x="661" y="998" type="line"/>
      <point x="761" y="998" type="line"/>
      <point x="761" y="998"/>
      <point x="761" y="998"/>
      <point x="761" y="998" type="qcurve"/>
      <point x="593" y="32" type="line"/>
      <point x="593" y="32"/>
      <point x="593" y="32"/>
      <point x="593" y="32" type="qcurve"/>
    </contour>
  </outline>
</glyph>
<glyph name="c" format="2">
  <advance width="1262"/>
  <unicode hex="0063"/>
  <anchor x="724" y="1174" name="top"/>
  <anchor x="493" y="-150" name="bottom"/>
  <outline>
    <contour>
      <point x="-11" y="264" type="line"/>
      <point x="77" y="770" type="line" smooth="yes"/>
      <point x="89" y="840"/>
      <point x="143" y="938"/>
      <point x="233" y="1001"/>
      <point x="362" y="1030"/>
      <point x="449" y="1030" type="qcurve" smooth="yes"/>
      <point x="949" y="1030" type="line" smooth="yes"/>
      <point x="1036" y="1030"/>
      <point x="1153" y="1002"/>
      <point x="1220" y="940"/>
      <point x="1238" y="843"/>
      <point x="1226" y="774" type="qcurve" smooth="yes"/>
      <point x="1204" y="650" type="line"/>
      <point x="663" y="552" type="line"/>
      <point x="741" y="998" type="line"/>
      <point x="741" y="998"/>
      <point x="741" y="998"/>
      <point x="741" y="998" type="qcurve"/>
      <point x="641" y="998" type="line"/>
      <point x="641" y="998"/>
      <point x="641" y="998"/>
      <point x="641" y="998" type="qcurve"/>
      <point x="472" y="26" type="line"/>
      <point x="472" y="26"/>
      <point x="472" y="26"/>
      <point x="472" y="26" type="qcurve"/>
      <point x="576" y="26" type="line"/>
      <point x="576" y="26"/>
      <point x="576" y="26"/>
      <point x="576" y="26" type="qcurve"/>
      <point x="654" y="474" type="line"/>
      <point x="1159" y="366" type="line"/>
      <point x="1141" y="264" type="line" smooth="yes"/>
      <point x="1128" y="191"/>
      <point x="1076" y="89"/>
      <point x="987" y="24"/>
      <point x="859" y="-6"/>
      <point x="770" y="-6" type="qcurve" smooth="yes"/>
      <point x="266" y="-6" type="line" smooth="yes"/>
      <point x="178" y="-6"/>
      <point x="59" y="24"/>
      <point x="-7" y="89"/>
      <point x="-24" y="191"/>
      <point x="-11" y="264" type="qcurve"/>
    </contour>
  </outline>
</glyph>
<glyph name="f" format="2">
  <advance width="861"/>
  <unicode hex="0066"/>
  <outline>
    <contour>
      <point x="139" y="1024" type="line"/>
      <point x="91" y="1024" type="line"/>
      <point x="85" y="992" type="line"/>
      <point x="133" y="992" type="line"/>
      <point x="-40" y="0" type="line"/>
      <point x="484" y="0" type="line"/>
      <point x="657" y="992" type="line"/>
      <point x="894" y="992" type="line"/>
      <point x="900" y="1024" type="line"/>
      <point x="663" y="1024" type="line"/>
      <point x="735" y="1440" type="line"/>
      <point x="735" y="1440"/>
      <point x="735" y="1440"/>
      <point x="735" y="1440" type="qcurve"/>
      <point x="992" y="1440" type="line"/>
      <point x="1008" y="1472" type="line"/>
      <point x="531" y="1472" type="line" smooth="yes"/>
      <point x="376" y="1472"/>
      <point x="193" y="1333"/>
      <point x="165" y="1176" type="qcurve" smooth="yes"/>
    </contour>
  </outline>
</glyph>
<glyph name="g" format="2">
  <advance width="1286"/>
  <unicode hex="0067"/>
  <anchor x="704" y="1178" name="top"/>
  <anchor x="643" y="-554" name="bottom"/>
  <outline>
    <contour>
      <point x="476" y="32" type="qcurve"/>
      <point x="643" y="992" type="line"/>
      <point x="643" y="992"/>
      <point x="643" y="992"/>
      <point x="643" y="992" type="qcurve"/>
      <point x="743" y="992" type="line"/>
      <point x="576" y="32" type="line"/>
      <point x="476" y="32" type="line"/>
      <point x="476" y="32"/>
      <point x="476" y="32"/>
    </contour>
    <contour>
      <point x="-45" y="-404" type="line"/>
      <point x="763" y="-404" type="line" smooth="yes"/>
      <point x="822" y="-404"/>
      <point x="926" y="-357"/>
      <point x="1009" y="-272"/>
      <point x="1067" y="-152"/>
      <point x="1080" y="-78" type="qcurve" smooth="yes"/>
      <point x="1273" y="1024" type="line"/>
      <point x="749" y="1024" type="line"/>
      <point x="745" y="1000" type="line"/>
      <point x="740" y="1012"/>
      <point x="705" y="1024"/>
      <point x="673" y="1024" type="qcurve" smooth="yes"/>
      <point x="431" y="1024" type="line" smooth="yes"/>
      <point x="271" y="1024"/>
      <point x="103" y="901"/>
      <point x="80" y="770" type="qcurve" smooth="yes"/>
      <point x="-8" y="264" type="line" smooth="yes"/>
      <point x="-32" y="125"/>
      <point x="91" y="0"/>
      <point x="252" y="0" type="qcurve" smooth="yes"/>
      <point x="494" y="0" type="line" smooth="yes"/>
      <point x="521" y="0"/>
      <point x="562" y="14"/>
      <point x="575" y="28" type="qcurve"/>
      <point x="505" y="-372" type="line"/>
      <point x="505" y="-372"/>
      <point x="505" y="-372"/>
      <point x="505" y="-372" type="qcurve"/>
      <point x="-49" y="-372" type="line"/>
    </contour>
  </outline>
</glyph>
<glyph name="h" format="2">
  <advance width="1303"/>
  <unicode hex="0068"/>
  <anchor x="508" y="1622" name="top"/>
  <anchor x="511" y="-150" name="bottom"/>
  <outline>
    <contour>
      <point x="-37" y="0" type="line"/>
      <point x="487" y="0" type="line"/>
      <point x="660" y="992" type="line"/>
      <point x="760" y="992" type="line"/>
      <point x="760" y="992"/>
      <point x="760" y="992"/>
      <point x="760" y="992" type="qcurve"/>
      <point x="587" y="0" type="line"/>
      <point x="1111" y="0" type="line"/>
      <point x="1237" y="724" type="line" smooth="yes"/>
      <point x="1264" y="879"/>
      <point x="1119" y="1024"/>
      <point x="924" y="1024" type="qcurve" smooth="yes"/>
      <point x="742" y="1024" type="line" smooth="yes"/>
      <point x="715" y="1024"/>
      <point x="674" y="1010"/>
      <point x="661" y="996" type="qcurve"/>
      <point x="744" y="1472" type="line"/>
      <point x="220" y="1472" type="line"/>
    </contour>
  </outline>
  <guideline angle="0" x="0" y="988"/>
  <guideline angle="0" x="0" y="870"/>
</glyph>
<glyph name="i" format="2">
  <advance width="713"/>
  <unicode hex="0069"/>
  <anchor x="212" y="-150" name="bottom"/>
  <anchor x="443" y="1174" name="top"/>
  <anchor x="-24" y="0" name="ogonek"/>
  <outline>
    <contour>
      <point x="-24" y="0" type="line"/>
      <point x="500" y="0" type="line"/>
      <point x="679" y="1024" type="line"/>
      <point x="155" y="1024" type="line"/>
    </contour>
    <contour>
      <point x="178" y="1232" type="line" smooth="yes"/>
      <point x="164" y="1151"/>
      <point x="188" y="1122"/>
      <point x="269" y="1122" type="qcurve" smooth="yes"/>
      <point x="601" y="1122" type="line" smooth="yes"/>
      <point x="682" y="1122"/>
      <point x="716" y="1151"/>
      <point x="730" y="1232" type="qcurve" smooth="yes"/>
      <point x="753" y="1364" type="line" smooth="yes"/>
      <point x="767" y="1444"/>
      <point x="743" y="1472"/>
      <point x="662" y="1472" type="qcurve" smooth="yes"/>
      <point x="330" y="1472" type="line" smooth="yes"/>
      <point x="249" y="1472"/>
      <point x="215" y="1444"/>
      <point x="201" y="1364" type="qcurve" smooth="yes"/>
    </contour>
  </outline>
</glyph>
<glyph name="j" format="2">
  <advance width="684"/>
  <unicode hex="006A"/>
  <anchor x="439" y="1174" name="top"/>
  <outline>
    <contour>
      <point x="-449" y="-396" type="line"/>
      <point x="-445" y="-428" type="line"/>
      <point x="161" y="-428" type="line" smooth="yes"/>
      <point x="219.5" y="-428"/>
      <point x="323.625" y="-381.25"/>
      <point x="406.875" y="-295.75"/>
      <point x="465.25" y="-175.5"/>
      <point x="478" y="-102" type="qcurve" smooth="yes"/>
      <point x="675" y="1024" type="line"/>
      <point x="151" y="1024" type="line"/>
      <point x="-97" y="-396" type="line"/>
      <point x="-97" y="-396"/>
      <point x="-97" y="-396"/>
      <point x="-97" y="-396" type="qcurve"/>
    </contour>
    <contour>
      <point x="174" y="1232" type="line" smooth="yes"/>
      <point x="159.663" y="1150.5"/>
      <point x="183.503" y="1122"/>
      <point x="265" y="1122" type="qcurve" smooth="yes"/>
      <point x="597" y="1122" type="line" smooth="yes"/>
      <point x="678.497" y="1122"/>
      <point x="711.663" y="1150.5"/>
      <point x="726" y="1232" type="qcurve" smooth="yes"/>
      <point x="749" y="1364" type="line" smooth="yes"/>
      <point x="763.337" y="1443.99"/>
      <point x="739.497" y="1472"/>
      <point x="658" y="1472" type="qcurve" smooth="yes"/>
      <point x="326" y="1472" type="line" smooth="yes"/>
      <point x="244.503" y="1472"/>
      <point x="211.337" y="1443.99"/>
      <point x="197" y="1364" type="qcurve" smooth="yes"/>
    </contour>
  </outline>
</glyph>
<glyph name="k" format="2">
  <advance width="1401"/>
  <unicode hex="006B"/>
  <anchor x="304" y="1598" name="top"/>
  <anchor x="559" y="-150" name="bottom"/>
  <anchor x="-9" y="736" name="left"/>
  <outline>
    <contour>
      <point x="-37" y="0" type="line"/>
      <point x="487" y="0" type="line"/>
      <point x="573" y="491" type="line"/>
      <point x="568" y="491" type="line"/>
      <point x="683" y="0" type="line"/>
      <point x="1281" y="0" type="line"/>
      <point x="1028" y="846" type="line"/>
      <point x="1020" y="829" type="line"/>
      <point x="1387" y="1024" type="line"/>
      <point x="1321" y="1024" type="line"/>
      <point x="577" y="630" type="line"/>
      <point x="597" y="630" type="line"/>
      <point x="744" y="1472" type="line"/>
      <point x="220" y="1472" type="line"/>
    </contour>
  </outline>
</glyph>
<glyph name="l" format="2">
  <advance width="687"/>
  <unicode hex="006C"/>
  <anchor x="504" y="1598" name="top"/>
  <anchor x="199" y="-150" name="bottom"/>
  <anchor x="744" y="1472" name="right"/>
  <anchor x="689" y="700" name="eldot"/>
  <outline>
    <contour>
      <point x="-37" y="0" type="line"/>
      <point x="487" y="0" type="line"/>
      <point x="744" y="1472" type="line"/>
      <point x="220" y="1472" type="line"/>
    </contour>
  </outline>
</glyph>
<glyph name="m" format="2">
  <advance width="1906"/>
  <unicode hex="006D"/>
  <anchor x="953" y="1174" name="top"/>
  <anchor x="953" y="-150" name="bottom"/>
  <outline>
    <contour>
      <point x="-38" y="0" type="line"/>
      <point x="486" y="0" type="line"/>
      <point x="659" y="992" type="line"/>
      <point x="749" y="992" type="line"/>
      <point x="576" y="0" type="line"/>
      <point x="1100" y="0" type="line"/>
      <point x="1273" y="992" type="line"/>
      <point x="1363" y="992" type="line"/>
      <point x="1363" y="992"/>
      <point x="1363" y="992"/>
      <point x="1363" y="992" type="qcurve"/>
      <point x="1190" y="0" type="line"/>
      <point x="1714" y="0" type="line"/>
      <point x="1840" y="724" type="line" smooth="yes"/>
      <point x="1867" y="879"/>
      <point x="1722" y="1024"/>
      <point x="1527" y="1024" type="qcurve" smooth="yes"/>
      <point x="1267" y="1024" type="line" smooth="yes"/>
      <point x="1241" y="1024"/>
      <point x="1202" y="1011"/>
      <point x="1188" y="999" type="qcurve"/>
      <point x="1152" y="1012"/>
      <point x="1059" y="1024"/>
      <point x="1001" y="1024" type="qcurve" smooth="yes"/>
      <point x="741" y="1024" type="line" smooth="yes"/>
      <point x="714" y="1024"/>
      <point x="673" y="1010"/>
      <point x="660" y="996" type="qcurve"/>
      <point x="665" y="1024" type="line"/>
      <point x="141" y="1024" type="line"/>
    </contour>
  </outline>
  <guideline angle="90" x="1602" y="0"/>
</glyph>
<glyph name="n" format="2">
  <advance width="1298.7" height="1448"/>
  <unicode hex="006E"/>
  <anchor x="738" y="1174" name="top"/>
  <anchor x="507" y="-150" name="bottom"/>
  <anchor x="-52" y="512" name="left"/>
  <outline>
    <contour>
      <point x="-41.2989" y="0" type="line"/>
      <point x="137.701" y="1024" type="line"/>
      <point x="661.701" y="1024" type="line"/>
      <point x="656.701" y="996" type="line"/>
      <point x="669.701" y="1010"/>
      <point x="710.701" y="1024"/>
      <point x="737.701" y="1024" type="qcurve" smooth="yes"/>
      <point x="919.701" y="1024" type="line" smooth="yes"/>
      <point x="1017.7" y="1024"/>
      <point x="1149.7" y="988"/>
      <point x="1224.7" y="914"/>
      <point x="1246.7" y="801"/>
      <point x="1232.7" y="724" type="qcurve" smooth="yes"/>
      <point x="1106.7" y="0" type="line"/>
      <point x="582.701" y="0" type="line"/>
      <point x="755.701" y="992" type="line"/>
      <point x="755.701" y="992"/>
      <point x="755.701" y="992"/>
      <point x="755.701" y="992" type="qcurve"/>
      <point x="655.701" y="992" type="line"/>
      <point x="482.701" y="0" type="line"/>
    </contour>
  </outline>
  <guideline angle="0" x="0" y="988"/>
  <guideline angle="0" x="0" y="870"/>
</glyph>
<glyph name="p" format="2">
  <advance width="1294"/>
  <unicode hex="0070"/>
  <outline>
    <contour>
      <point x="-113" y="-428" type="line"/>
      <point x="411" y="-428" type="line"/>
      <point x="489" y="20" type="line"/>
      <point x="494" y="8"/>
      <point x="529" y="-4"/>
      <point x="561" y="-4" type="qcurve" smooth="yes"/>
      <point x="803" y="-4" type="line" smooth="yes"/>
      <point x="963" y="-4"/>
      <point x="1131" y="119"/>
      <point x="1154" y="250" type="qcurve" smooth="yes"/>
      <point x="1243" y="760" type="line" smooth="yes"/>
      <point x="1267" y="899"/>
      <point x="1144" y="1024"/>
      <point x="983" y="1024" type="qcurve" smooth="yes"/>
      <point x="741" y="1024" type="line" smooth="yes"/>
      <point x="714" y="1024"/>
      <point x="673" y="1010"/>
      <point x="660" y="996" type="qcurve"/>
      <point x="665" y="1024" type="line"/>
      <point x="141" y="1024" type="line"/>
    </contour>
    <contour>
      <point x="491" y="28" type="line"/>
      <point x="659" y="992" type="line"/>
      <point x="759" y="992" type="line"/>
      <point x="759" y="992"/>
      <point x="759" y="992"/>
      <point x="759" y="992" type="qcurve"/>
      <point x="591" y="28" type="line"/>
      <point x="591" y="28"/>
      <point x="591" y="28"/>
      <point x="591" y="28" type="qcurve"/>
    </contour>
  </outline>
</glyph>
<glyph name="r" format="2">
  <advance width="1243"/>
  <unicode hex="0072"/>
  <anchor x="736" y="1174" name="top"/>
  <anchor x="198" y="-150" name="bottom"/>
  <anchor x="-49" y="512" name="left"/>
  <outline>
    <contour>
      <point x="-38" y="0" type="line"/>
      <point x="486" y="0" type="line"/>
      <point x="659" y="992" type="line"/>
      <point x="749" y="992" type="line"/>
      <point x="749" y="992"/>
      <point x="749" y="992"/>
      <point x="749" y="992" type="qcurve"/>
      <point x="671" y="546" type="line"/>
      <point x="1212" y="644" type="line"/>
      <point x="1226" y="724" type="line" smooth="yes"/>
      <point x="1240" y="801"/>
      <point x="1218" y="914"/>
      <point x="1143" y="988"/>
      <point x="1011" y="1024"/>
      <point x="913" y="1024" type="qcurve" smooth="yes"/>
      <point x="741" y="1024" type="line" smooth="yes"/>
      <point x="714" y="1024"/>
      <point x="673" y="1010"/>
      <point x="660" y="996" type="qcurve"/>
      <point x="665" y="1024" type="line"/>
      <point x="141" y="1024" type="line"/>
    </contour>
  </outline>
  <guideline angle="0" x="0" y="988"/>
  <guideline angle="0" x="0" y="870"/>
</glyph>
<glyph name="t" format="2">
  <advance width="837"/>
  <unicode hex="0074"/>
  <anchor x="492" y="1394" name="top"/>
  <anchor x="222" y="-156" name="bottom"/>
  <anchor x="767" y="1400" name="right"/>
  <outline>
    <contour>
      <point x="302" y="-6" type="qcurve" smooth="yes"/>
      <point x="659" y="-6" type="line"/>
      <point x="675" y="26" type="line"/>
      <point x="526" y="26" type="line"/>
      <point x="526" y="26"/>
      <point x="526" y="26"/>
      <point x="526" y="26" type="qcurve"/>
      <point x="694" y="992" type="line"/>
      <point x="863" y="992" type="line"/>
      <point x="869" y="1024" type="line"/>
      <point x="700" y="1024" type="line"/>
      <point x="738" y="1244" type="line"/>
      <point x="214" y="1244" type="line"/>
      <point x="176" y="1024" type="line"/>
      <point x="93" y="1024" type="line"/>
      <point x="87" y="992" type="line"/>
      <point x="170" y="992" type="line"/>
      <point x="41" y="250" type="line" smooth="yes"/>
      <point x="16.8528" y="111.154"/>
      <point x="135.988" y="-6"/>
    </contour>
  </outline>
</glyph>
<glyph name="u" format="2">
  <advance width="1287"/>
  <unicode hex="0075"/>
  <anchor x="729" y="1174" name="top"/>
  <anchor x="498" y="-150" name="bottom"/>
  <anchor x="543" y="0" name="ogonek"/>
  <anchor x="1273" y="1024" name="horn"/>
  <outline>
    <contour>
      <point x="-10" y="204" type="line" smooth="yes"/>
      <point x="-32.638" y="77.2272"/>
      <point x="83.3008" y="0"/>
      <point x="198" y="0" type="qcurve" smooth="yes"/>
      <point x="848" y="0" type="line" smooth="yes"/>
      <point x="962.699" y="0"/>
      <point x="1107.36" y="77.2272"/>
      <point x="1130" y="204" type="qcurve" smooth="yes"/>
      <point x="1273" y="1024" type="line"/>
      <point x="749" y="1024" type="line"/>
      <point x="576" y="32" type="line"/>
      <point x="576" y="32"/>
      <point x="576" y="32"/>
      <point x="576" y="32" type="qcurve"/>
      <point x="484" y="32" type="line"/>
      <point x="484" y="32"/>
      <point x="484" y="32"/>
      <point x="484" y="32" type="qcurve"/>
      <point x="657" y="1024" type="line"/>
      <point x="133" y="1024" type="line"/>
    </contour>
  </outline>
</glyph>
<glyph name="x" format="2">
  <advance width="1208"/>
  <unicode hex="0078"/>
  <anchor x="690" y="1174" name="top"/>
  <anchor x="459" y="-150" name="bottom"/>
  <outline>
    <contour>
      <point x="-88" y="0" type="line"/>
      <point x="-40" y="0" type="line"/>
      <point x="359" y="368" type="line"/>
      <point x="526" y="0" type="line"/>
      <point x="1088" y="0" type="line"/>
      <point x="774" y="691" type="line"/>
      <point x="1129" y="1024" type="line"/>
      <point x="1081" y="1024" type="line"/>
      <point x="760" y="722" type="line"/>
      <point x="623" y="1024" type="line"/>
      <point x="61" y="1024" type="line"/>
      <point x="344" y="400" type="line"/>
    </contour>
  </outline>
</glyph>
<glyph name="z" format="2">
  <advance width="1102"/>
  <unicode hex="007A"/>
  <anchor x="636" y="1174" name="top"/>
  <anchor x="405" y="-150" name="bottom"/>
  <outline>
    <contour>
      <point x="-87" y="0" type="line"/>
      <point x="949" y="0" type="line"/>
      <point x="955" y="32" type="line"/>
      <point x="490" y="32" type="line"/>
      <point x="496" y="22" type="line"/>
      <point x="1115" y="1006" type="line"/>
      <point x="1118" y="1024" type="line"/>
      <point x="143" y="1024" type="line"/>
      <point x="137" y="992" type="line"/>
      <point x="545" y="992" type="line"/>
      <point x="539" y="1002" type="line"/>
      <point x="-84" y="18" type="line"/>
    </contour>
  </outline>
</glyph>
<glyph name="braceleft" format="2">
  <advance width="878"/>
  <unicode hex="007B"/>
  <outline>
    <contour>
      <point x="118" y="18" type="line" smooth="yes"/>
      <point x="96.1166" y="-110.282"/>
      <point x="233.172" y="-256"/>
      <point x="369" y="-256" type="qcurve" smooth="yes"/>
      <point x="702" y="-256" type="line"/>
      <point x="707" y="-224" type="line"/>
      <point x="638" y="-224" type="line" smooth="yes"/>
      <point x="572.35" y="-224"/>
      <point x="525.436" y="-170.104"/>
      <point x="536" y="-112" type="qcurve" smooth="yes"/>
      <point x="611" y="317" type="line" smooth="yes"/>
      <point x="629.865" y="428.681"/>
      <point x="551.307" y="569.834"/>
      <point x="460" y="597" type="qcurve"/>
      <point x="561.116" y="624.166"/>
      <point x="689.135" y="765.319"/>
      <point x="708" y="877" type="qcurve" smooth="yes"/>
      <point x="783" y="1304" type="line" smooth="yes"/>
      <point x="792.81" y="1362.1"/>
      <point x="858.35" y="1416"/>
      <point x="924" y="1416" type="qcurve" smooth="yes"/>
      <point x="993" y="1416" type="line"/>
      <point x="999" y="1448" type="line"/>
      <point x="666" y="1448" type="line" smooth="yes"/>
      <point x="530.172" y="1448"/>
      <point x="342.147" y="1299.83"/>
      <point x="318" y="1164" type="qcurve" smooth="yes"/>
      <point x="253" y="791" type="line" smooth="yes"/>
      <point x="239.417" y="709.503"/>
      <point x="139.153" y="613"/>
      <point x="32" y="613" type="qcurve"/>
      <point x="27" y="581" type="line"/>
      <point x="134.153" y="581"/>
      <point x="200.337" y="485.251"/>
      <point x="186" y="403" type="qcurve" smooth="yes"/>
    </contour>
  </outline>
</glyph>
<glyph name="braceright" format="2">
  <advance width="878"/>
  <unicode hex="007D"/>
  <outline>
    <contour>
      <point x="908" y="1174" type="line" smooth="yes"/>
      <point x="929.883" y="1302.28"/>
      <point x="792.828" y="1448"/>
      <point x="657" y="1448" type="qcurve" smooth="yes"/>
      <point x="324" y="1448" type="line"/>
      <point x="319" y="1416" type="line"/>
      <point x="388" y="1416" type="line" smooth="yes"/>
      <point x="453.65" y="1416"/>
      <point x="500.564" y="1362.1"/>
      <point x="490" y="1304" type="qcurve" smooth="yes"/>
      <point x="415" y="875" type="line" smooth="yes"/>
      <point x="396.135" y="763.319"/>
      <point x="474.693" y="622.166"/>
      <point x="566" y="595" type="qcurve"/>
      <point x="464.884" y="567.834"/>
      <point x="336.865" y="426.681"/>
      <point x="318" y="315" type="qcurve" smooth="yes"/>
      <point x="243" y="-112" type="line" smooth="yes"/>
      <point x="233.19" y="-170.104"/>
      <point x="167.65" y="-224"/>
      <point x="102" y="-224" type="qcurve" smooth="yes"/>
      <point x="33" y="-224" type="line"/>
      <point x="27" y="-256" type="line"/>
      <point x="360" y="-256" type="line" smooth="yes"/>
      <point x="495.828" y="-256"/>
      <point x="683.853" y="-107.828"/>
      <point x="708" y="28" type="qcurve" smooth="yes"/>
      <point x="773" y="401" type="line" smooth="yes"/>
      <point x="786.583" y="482.497"/>
      <point x="886.847" y="579"/>
      <point x="994" y="579" type="qcurve"/>
      <point x="999" y="611" type="line"/>
      <point x="891.847" y="611"/>
      <point x="825.663" y="706.749"/>
      <point x="840" y="789" type="qcurve" smooth="yes"/>
    </contour>
  </outline>
</glyph>
<glyph name="asciitilde" format="2">
  <advance width="626"/>
  <unicode hex="007E"/>
  <outline>
    <contour>
      <point x="-59" y="425" type="qcurve"/>
      <point x="-25" y="419" type="line"/>
      <point x="-18.625" y="440"/>
      <point x="-0.3125" y="469.938"/>
      <point x="23.3125" y="489.062"/>
      <point x="52.125" y="498"/>
      <point x="69" y="498" type="qcurve" smooth="yes"/>
      <point x="109.875" y="498"/>
      <point x="195" y="469.562"/>
      <point x="283.5" y="435.438"/>
      <point x="375.375" y="407"/>
      <point x="423" y="407" type="qcurve" smooth="yes"/>
      <point x="471" y="407"/>
      <point x="537.688" y="459.906"/>
      <point x="588.312" y="552.344"/>
      <point x="629.5" y="677.625"/>
      <point x="652" y="750" type="qcurve"/>
      <point x="618" y="756" type="line"/>
      <point x="611.625" y="735"/>
      <point x="593.312" y="705.062"/>
      <point x="569.688" y="685.938"/>
      <point x="540.875" y="677"/>
      <point x="524" y="677" type="qcurve" smooth="yes"/>
      <point x="483.125" y="677"/>
      <point x="398.281" y="705.438"/>
      <point x="309.969" y="739.562"/>
      <point x="218" y="768"/>
      <point x="170" y="768" type="qcurve" smooth="yes"/>
      <point x="122" y="768"/>
      <point x="56.1562" y="719.594"/>
      <point x="6.09375" y="630.156"/>
      <point x="-35.375" y="503.375"/>
    </contour>
  </outline>
</glyph>
<glyph name="exclamdown" format="2">
  <advance width="731"/>
  <unicode hex="00A1"/>
  <outline>
    <contour>
      <point x="835" y="883" type="line" smooth="yes"/>
      <point x="850.847" y="973.552"/>
      <point x="809.552" y="1024"/>
      <point x="719" y="1024" type="qcurve" smooth="yes"/>
      <point x="431" y="1024" type="line" smooth="yes"/>
      <point x="341" y="1024"/>
      <point x="280.75" y="973"/>
      <point x="265" y="883" type="qcurve" smooth="yes"/>
      <point x="250" y="794" type="line" smooth="yes"/>
      <point x="234.153" y="704.203"/>
      <point x="276.448" y="654"/>
      <point x="367" y="654" type="qcurve" smooth="yes"/>
      <point x="654" y="654" type="line" smooth="yes"/>
      <point x="744" y="654"/>
      <point x="804" y="704.25"/>
      <point x="819" y="792" type="qcurve" smooth="yes"/>
    </contour>
    <contour>
      <point x="511" y="556" type="line"/>
      <point x="475" y="556" type="line"/>
      <point x="44" y="-382" type="line"/>
      <point x="614" y="-382" type="line"/>
    </contour>
  </outline>
</glyph>
<glyph name="cent" format="2">
  <advance width="1390"/>
  <unicode hex="00A2"/>
  <outline>
    <contour>
      <point x="533" y="-100" type="line"/>
      <point x="595" y="-100" type="line"/>
      <point x="637" y="144" type="line"/>
      <point x="923" y="144" type="line" smooth="yes"/>
      <point x="1101" y="144"/>
      <point x="1268" y="268"/>
      <point x="1294" y="414" type="qcurve" smooth="yes"/>
      <point x="1312" y="516" type="line"/>
      <point x="807" y="624" type="line"/>
      <point x="729" y="176" type="line"/>
      <point x="729" y="176"/>
      <point x="729" y="176"/>
      <point x="729" y="176" type="qcurve"/>
      <point x="643" y="176" type="line"/>
      <point x="812" y="1148" type="line"/>
      <point x="894" y="1148" type="line"/>
      <point x="894" y="1148"/>
      <point x="894" y="1148"/>
      <point x="894" y="1148" type="qcurve"/>
      <point x="817" y="702" type="line"/>
      <point x="1358" y="800" type="line"/>
      <point x="1379" y="924" type="line" smooth="yes"/>
      <point x="1403" y="1063"/>
      <point x="1277" y="1180"/>
      <point x="1102" y="1180" type="qcurve" smooth="yes"/>
      <point x="818" y="1180" type="line"/>
      <point x="856" y="1400" type="line"/>
      <point x="794" y="1400" type="line"/>
      <point x="756" y="1180" type="line"/>
      <point x="478" y="1180" type="line" smooth="yes"/>
      <point x="303" y="1180"/>
      <point x="131" y="1060"/>
      <point x="107" y="920" type="qcurve" smooth="yes"/>
      <point x="18" y="414" type="line" smooth="yes"/>
      <point x="-8" y="268"/>
      <point x="117" y="144"/>
      <point x="295" y="144" type="qcurve" smooth="yes"/>
      <point x="575" y="144" type="line"/>
    </contour>
    <contour>
      <point x="750" y="1148" type="line"/>
      <point x="581" y="176" type="line"/>
      <point x="501" y="176" type="line"/>
      <point x="501" y="176"/>
      <point x="501" y="176"/>
      <point x="501" y="176" type="qcurve"/>
      <point x="670" y="1148" type="line"/>
      <point x="670" y="1148"/>
      <point x="670" y="1148"/>
      <point x="670" y="1148" type="qcurve"/>
    </contour>
  </outline>
</glyph>
<glyph name="sterling" format="2">
  <advance width="1384"/>
  <unicode hex="00A3"/>
  <outline>
    <contour>
      <point x="-94" y="0" type="line"/>
      <point x="838" y="0" type="line" smooth="yes"/>
      <point x="1037" y="0"/>
      <point x="1279" y="143"/>
      <point x="1311" y="336" type="qcurve" smooth="yes"/>
      <point x="1318" y="378" type="line"/>
      <point x="765" y="488" type="line"/>
      <point x="693" y="76" type="line" smooth="yes"/>
      <point x="689" y="55"/>
      <point x="667" y="36"/>
      <point x="646" y="36" type="qcurve" smooth="yes"/>
      <point x="418" y="36" type="line"/>
      <point x="504" y="68"/>
      <point x="616" y="209"/>
      <point x="638" y="334" type="qcurve" smooth="yes"/>
      <point x="691" y="641" type="line"/>
      <point x="904" y="641" type="line"/>
      <point x="920" y="677" type="line"/>
      <point x="697" y="677" type="line"/>
      <point x="812" y="1341" type="line" smooth="yes"/>
      <point x="816" y="1364"/>
      <point x="836" y="1382"/>
      <point x="859" y="1382" type="qcurve" smooth="yes"/>
      <point x="873" y="1382" type="line" smooth="yes"/>
      <point x="895" y="1382"/>
      <point x="910" y="1364"/>
      <point x="906" y="1342" type="qcurve" smooth="yes"/>
      <point x="826" y="876" type="line"/>
      <point x="1416" y="980" type="line"/>
      <point x="1433" y="1084" type="line" smooth="yes"/>
      <point x="1468" y="1285"/>
      <point x="1266" y="1418"/>
      <point x="1077" y="1418" type="qcurve" smooth="yes"/>
      <point x="665" y="1418" type="line" smooth="yes"/>
      <point x="476" y="1418"/>
      <point x="230" y="1285"/>
      <point x="195" y="1084" type="qcurve" smooth="yes"/>
      <point x="125" y="677" type="line"/>
      <point x="65" y="677" type="line"/>
      <point x="59" y="641" type="line"/>
      <point x="119" y="641" type="line"/>
      <point x="23" y="86" type="line" smooth="yes"/>
      <point x="18" y="60"/>
      <point x="-10" y="36"/>
      <point x="-36" y="36" type="qcurve" smooth="yes"/>
      <point x="-88" y="36" type="line"/>
    </contour>
  </outline>
  <guideline angle="0" x="0" y="988"/>
</glyph>
<glyph name="currency" format="2">
  <advance width="1476"/>
  <unicode hex="00A4"/>
  <outline>
    <contour>
      <point x="-134" y="-33" type="line"/>
      <point x="176" y="230" type="line"/>
      <point x="208.448" y="205.098"/>
      <point x="310.068" y="182"/>
      <point x="381" y="182" type="qcurve" smooth="yes"/>
      <point x="917" y="182" type="line" smooth="yes"/>
      <point x="989.442" y="182"/>
      <point x="1100.5" y="206.344"/>
      <point x="1142" y="232" type="qcurve"/>
      <point x="1360" y="-33" type="line"/>
      <point x="1390" y="-8" type="line"/>
      <point x="1173" y="254" type="line"/>
      <point x="1211.48" y="286.448"/>
      <point x="1257.68" y="381.104"/>
      <point x="1269" y="446" type="qcurve" smooth="yes"/>
      <point x="1359" y="964" type="line" smooth="yes"/>
      <point x="1369.56" y="1024.37"/>
      <point x="1355.41" y="1115.06"/>
      <point x="1329" y="1146" type="qcurve"/>
      <point x="1637" y="1408" type="line"/>
      <point x="1616" y="1433" type="line"/>
      <point x="1306" y="1168" type="line"/>
      <point x="1272.8" y="1193.66"/>
      <point x="1169.69" y="1218"/>
      <point x="1098" y="1218" type="qcurve" smooth="yes"/>
      <point x="562" y="1218" type="line" smooth="yes"/>
      <point x="491.068" y="1218"/>
      <point x="381.503" y="1194.15"/>
      <point x="340" y="1170" type="qcurve"/>
      <point x="122" y="1433" type="line"/>
      <point x="93" y="1408" type="line"/>
      <point x="307" y="1148" type="line"/>
      <point x="269.27" y="1116.31"/>
      <point x="221.564" y="1025.12"/>
      <point x="211" y="964" type="qcurve" smooth="yes"/>
      <point x="121" y="446" type="line" smooth="yes"/>
      <point x="109.681" y="380.35"/>
      <point x="124.08" y="285.448"/>
      <point x="152" y="253" type="qcurve"/>
      <point x="-154" y="-8" type="line"/>
    </contour>
    <contour>
      <point x="604" y="214" type="line"/>
      <point x="604" y="214"/>
      <point x="604" y="214"/>
      <point x="604" y="214" type="qcurve"/>
      <point x="774" y="1186" type="line"/>
      <point x="774" y="1186"/>
      <point x="774" y="1186"/>
      <point x="774" y="1186" type="qcurve"/>
      <point x="874" y="1186" type="line"/>
      <point x="874" y="1186"/>
      <point x="874" y="1186"/>
      <point x="874" y="1186" type="qcurve"/>
      <point x="704" y="214" type="line"/>
      <point x="704" y="214"/>
      <point x="704" y="214"/>
      <point x="704" y="214" type="qcurve"/>
    </contour>
  </outline>
</glyph>
<glyph name="yen" format="2">
  <advance width="1317"/>
  <unicode hex="00A5"/>
  <outline>
    <contour>
      <point x="254" y="0" type="line"/>
      <point x="826" y="0" type="line"/>
      <point x="892" y="376" type="line"/>
      <point x="1115" y="376" type="line"/>
      <point x="1121" y="412" type="line"/>
      <point x="898" y="412" type="line"/>
      <point x="920" y="536" type="line"/>
      <point x="1143" y="536" type="line"/>
      <point x="1149" y="572" type="line"/>
      <point x="939" y="572" type="line"/>
      <point x="1453" y="1400" type="line"/>
      <point x="1414" y="1400" type="line"/>
      <point x="908" y="585" type="line"/>
      <point x="695" y="1400" type="line"/>
      <point x="117" y="1400" type="line"/>
      <point x="349" y="572" type="line"/>
      <point x="134" y="572" type="line"/>
      <point x="128" y="536" type="line"/>
      <point x="348" y="536" type="line"/>
      <point x="348" y="536" type="line"/>
      <point x="326" y="412" type="line"/>
      <point x="106" y="412" type="line"/>
      <point x="100" y="376" type="line"/>
      <point x="320" y="376" type="line"/>
    </contour>
  </outline>
</glyph>
<glyph name="section" format="2">
  <advance width="1208"/>
  <unicode hex="00A7"/>
  <outline>
    <contour>
      <point x="246" y="-136" type="qcurve" smooth="yes"/>
      <point x="660" y="-136" type="line" smooth="yes"/>
      <point x="791" y="-136"/>
      <point x="953" y="-49"/>
      <point x="979" y="96" type="qcurve" smooth="yes"/>
      <point x="993" y="179" type="line" smooth="yes"/>
      <point x="1008" y="263"/>
      <point x="969" y="354"/>
      <point x="923" y="376" type="qcurve"/>
      <point x="966" y="382"/>
      <point x="1036" y="412"/>
      <point x="1090" y="465"/>
      <point x="1127" y="544"/>
      <point x="1137" y="601" type="qcurve" smooth="yes"/>
      <point x="1151" y="684" type="line" smooth="yes"/>
      <point x="1176" y="826"/>
      <point x="1037" y="906"/>
      <point x="912" y="906" type="qcurve" smooth="yes"/>
      <point x="598" y="906" type="line"/>
      <point x="598" y="906"/>
      <point x="598" y="906"/>
      <point x="598" y="906" type="qcurve"/>
      <point x="680" y="1373" type="line"/>
      <point x="680" y="1373"/>
      <point x="680" y="1373"/>
      <point x="680" y="1373" type="qcurve"/>
      <point x="760" y="1373" type="line"/>
      <point x="760" y="1373"/>
      <point x="760" y="1373"/>
      <point x="760" y="1373" type="qcurve"/>
      <point x="707" y="1071" type="line"/>
      <point x="1146" y="1137" type="line"/>
      <point x="1154" y="1183" type="line" smooth="yes"/>
      <point x="1179" y="1322"/>
      <point x="1040" y="1405"/>
      <point x="915" y="1405" type="qcurve" smooth="yes"/>
      <point x="543" y="1405" type="line" smooth="yes"/>
      <point x="418" y="1405"/>
      <point x="246" y="1319"/>
      <point x="222" y="1179" type="qcurve" smooth="yes"/>
      <point x="214" y="1132" type="line" smooth="yes"/>
      <point x="197" y="1039"/>
      <point x="244" y="928"/>
      <point x="299" y="901" type="qcurve"/>
      <point x="254" y="895"/>
      <point x="176" y="868"/>
      <point x="116" y="816"/>
      <point x="75" y="737"/>
      <point x="65" y="680" type="qcurve" smooth="yes"/>
      <point x="55" y="627" type="line" smooth="yes"/>
      <point x="30" y="484"/>
      <point x="156" y="369"/>
      <point x="286" y="369" type="qcurve" smooth="yes"/>
      <point x="582" y="369" type="line"/>
      <point x="582" y="369"/>
      <point x="582" y="369"/>
      <point x="582" y="369" type="qcurve"/>
      <point x="500" y="-104" type="line"/>
      <point x="500" y="-104"/>
      <point x="500" y="-104"/>
      <point x="500" y="-104" type="qcurve"/>
      <point x="420" y="-104" type="line"/>
      <point x="420" y="-104"/>
      <point x="420" y="-104"/>
      <point x="420" y="-104" type="qcurve"/>
      <point x="474" y="206" type="line"/>
      <point x="18" y="138" type="line"/>
      <point x="11" y="96" type="line" smooth="yes"/>
      <point x="-15" y="-49"/>
      <point x="116" y="-136"/>
    </contour>
    <contour>
      <point x="440" y="401" type="line"/>
      <point x="440" y="401"/>
      <point x="440" y="401"/>
      <point x="440" y="401" type="qcurve"/>
      <point x="523" y="874" type="line"/>
      <point x="523" y="874"/>
      <point x="523" y="874"/>
      <point x="523" y="874" type="qcurve"/>
      <point x="741" y="874" type="line"/>
      <point x="741" y="874"/>
      <point x="741" y="874"/>
      <point x="741" y="874" type="qcurve"/>
      <point x="658" y="401" type="line"/>
      <point x="658" y="401"/>
      <point x="658" y="401"/>
      <point x="658" y="401" type="qcurve"/>
    </contour>
  </outline>
</glyph>
<glyph name="dieresis" format="2">
  <advance width="894"/>
  <unicode hex="00A8"/>
  <outline>
    <contour>
      <point x="198" y="1110" type="qcurve" smooth="yes"/>
      <point x="330" y="1110" type="line" smooth="yes"/>
      <point x="411.497" y="1110"/>
      <point x="444.663" y="1138.5"/>
      <point x="459" y="1220" type="qcurve" smooth="yes"/>
      <point x="481" y="1342" type="line" smooth="yes"/>
      <point x="494.583" y="1421.99"/>
      <point x="471.497" y="1450"/>
      <point x="390" y="1450" type="qcurve" smooth="yes"/>
      <point x="258" y="1450" type="line" smooth="yes"/>
      <point x="176.503" y="1450"/>
      <point x="142.583" y="1421.99"/>
      <point x="129" y="1342" type="qcurve" smooth="yes"/>
      <point x="107" y="1220" type="line" smooth="yes"/>
      <point x="92.6626" y="1138.5"/>
      <point x="116.503" y="1110"/>
    </contour>
    <contour>
      <point x="718" y="1110" type="qcurve" smooth="yes"/>
      <point x="850" y="1110" type="line" smooth="yes"/>
      <point x="931.497" y="1110"/>
      <point x="964.663" y="1138.5"/>
      <point x="979" y="1220" type="qcurve" smooth="yes"/>
      <point x="1001" y="1342" type="line" smooth="yes"/>
      <point x="1014.58" y="1421.99"/>
      <point x="991.497" y="1450"/>
      <point x="910" y="1450" type="qcurve" smooth="yes"/>
      <point x="778" y="1450" type="line" smooth="yes"/>
      <point x="696.503" y="1450"/>
      <point x="662.583" y="1421.99"/>
      <point x="649" y="1342" type="qcurve" smooth="yes"/>
      <point x="627" y="1220" type="line" smooth="yes"/>
      <point x="612.663" y="1138.5"/>
      <point x="636.503" y="1110"/>
    </contour>
  </outline>
</glyph>
<glyph name="copyright" format="2">
  <advance width="1675"/>
  <unicode hex="00A9"/>
  <outline>
    <contour>
      <point x="342" y="548" type="line" smooth="yes"/>
      <point x="316" y="402"/>
      <point x="441" y="278"/>
      <point x="619" y="278" type="qcurve" smooth="yes"/>
      <point x="915" y="278" type="line" smooth="yes"/>
      <point x="1093" y="278"/>
      <point x="1260" y="402"/>
      <point x="1286" y="548" type="qcurve"/>
      <point x="1290" y="575" type="line"/>
      <point x="872" y="662" type="line"/>
      <point x="810" y="310" type="line"/>
      <point x="810" y="310"/>
      <point x="810" y="310"/>
      <point x="810" y="310" type="qcurve"/>
      <point x="734" y="310" type="line"/>
      <point x="734" y="310"/>
      <point x="734" y="310"/>
      <point x="734" y="310" type="qcurve"/>
      <point x="870" y="1090" type="line"/>
      <point x="870" y="1090"/>
      <point x="870" y="1090"/>
      <point x="870" y="1090" type="qcurve"/>
      <point x="942" y="1090" type="line"/>
      <point x="942" y="1090"/>
      <point x="942" y="1090"/>
      <point x="942" y="1090" type="qcurve"/>
      <point x="882" y="745" type="line"/>
      <point x="1331" y="832" type="line"/>
      <point x="1337" y="866" type="line" smooth="yes"/>
      <point x="1361" y="1005"/>
      <point x="1235" y="1122"/>
      <point x="1060" y="1122" type="qcurve" smooth="yes"/>
      <point x="768" y="1122" type="line" smooth="yes"/>
      <point x="593" y="1122"/>
      <point x="421" y="1002"/>
      <point x="396" y="862" type="qcurve" smooth="yes"/>
    </contour>
    <contour>
      <point x="112" y="904" type="qcurve" smooth="yes"/>
      <point x="43" y="508" type="line" smooth="yes"/>
      <point x="6" y="300"/>
      <point x="196" y="162"/>
      <point x="394" y="162" type="qcurve" smooth="yes"/>
      <point x="1090" y="162" type="line" smooth="yes"/>
      <point x="1289" y="162"/>
      <point x="1528" y="300"/>
      <point x="1565" y="508" type="qcurve" smooth="yes"/>
      <point x="1634" y="904" type="line" smooth="yes"/>
      <point x="1670" y="1111"/>
      <point x="1476" y="1238"/>
      <point x="1278" y="1238" type="qcurve" smooth="yes"/>
      <point x="582" y="1238" type="line" smooth="yes"/>
      <point x="385" y="1238"/>
      <point x="147" y="1104"/>
    </contour>
    <contour>
      <point x="331" y="1048" type="line" smooth="yes"/>
      <point x="348" y="1144"/>
      <point x="471" y="1206"/>
      <point x="576" y="1206" type="qcurve" smooth="yes"/>
      <point x="1272" y="1206" type="line" smooth="yes"/>
      <point x="1378" y="1206"/>
      <point x="1482" y="1144"/>
      <point x="1465" y="1049" type="qcurve" smooth="yes"/>
      <point x="1346" y="368" type="line" smooth="yes"/>
      <point x="1328" y="262"/>
      <point x="1202" y="194"/>
      <point x="1096" y="194" type="qcurve" smooth="yes"/>
      <point x="400" y="194" type="line" smooth="yes"/>
      <point x="294" y="194"/>
      <point x="194" y="263"/>
      <point x="212" y="369" type="qcurve" smooth="yes"/>
    </contour>
  </outline>
</glyph>
<glyph name="ordfeminine" format="2">
  <advance width="867"/>
  <unicode hex="00AA"/>
  <outline>
    <contour>
      <point x="252" y="784" type="qcurve" smooth="yes"/>
      <point x="376" y="784" type="line" smooth="yes"/>
      <point x="414" y="784"/>
      <point x="467" y="798"/>
      <point x="483" y="812" type="qcurve"/>
      <point x="480" y="793" type="line"/>
      <point x="820" y="793" type="line"/>
      <point x="907" y="1292" type="line" smooth="yes"/>
      <point x="926" y="1402"/>
      <point x="832" y="1472"/>
      <point x="745" y="1472" type="qcurve" smooth="yes"/>
      <point x="389" y="1472" type="line" smooth="yes"/>
      <point x="302" y="1472"/>
      <point x="184" y="1401"/>
      <point x="165" y="1294" type="qcurve" smooth="yes"/>
      <point x="162" y="1276" type="line"/>
      <point x="491" y="1215" type="line"/>
      <point x="531" y="1440" type="line"/>
      <point x="531" y="1440"/>
      <point x="531" y="1440"/>
      <point x="531" y="1440" type="qcurve"/>
      <point x="593" y="1440" type="line"/>
      <point x="593" y="1440"/>
      <point x="593" y="1440"/>
      <point x="593" y="1440" type="qcurve"/>
      <point x="542" y="1147" type="line"/>
      <point x="316" y="1147" type="line" smooth="yes"/>
      <point x="235" y="1147"/>
      <point x="112" y="1084"/>
      <point x="95" y="988" type="qcurve" smooth="yes"/>
      <point x="88" y="950" type="line" smooth="yes"/>
      <point x="71" y="853"/>
      <point x="171" y="784"/>
    </contour>
    <contour>
      <point x="405" y="816" type="qcurve"/>
      <point x="457" y="1115" type="line"/>
      <point x="457" y="1115"/>
      <point x="457" y="1115"/>
      <point x="457" y="1115" type="qcurve"/>
      <point x="536" y="1115" type="line"/>
      <point x="484" y="816" type="line"/>
      <point x="405" y="816" type="line"/>
      <point x="405" y="816"/>
      <point x="405" y="816"/>
    </contour>
  </outline>
  <guideline angle="0" x="0" y="36"/>
  <guideline angle="0" x="0" y="272"/>
  <guideline angle="0" x="0" y="36"/>
  <guideline angle="0" x="0" y="272"/>
</glyph>
<glyph name="guillemotleft" format="2">
  <advance width="915"/>
  <unicode hex="00AB"/>
  <outline>
    <contour>
      <point x="321" y="130" type="line"/>
      <point x="352" y="130" type="line"/>
      <point x="292" y="512" type="line"/>
      <point x="485" y="894" type="line"/>
      <point x="454" y="894" type="line"/>
      <point x="3" y="512" type="line"/>
    </contour>
    <contour>
      <point x="758" y="130" type="line"/>
      <point x="789" y="130" type="line"/>
      <point x="729" y="512" type="line"/>
      <point x="922" y="894" type="line"/>
      <point x="891" y="894" type="line"/>
      <point x="440" y="512" type="line"/>
    </contour>
  </outline>
</glyph>
<glyph name="logicalnot" format="2">
  <advance width="626"/>
  <unicode hex="00AC"/>
  <outline>
    <contour>
      <point x="504" y="380" type="line"/>
      <point x="566" y="735" type="line"/>
      <point x="80" y="735" type="line"/>
      <point x="74" y="699" type="line"/>
      <point x="520" y="699" type="line"/>
      <point x="464" y="380" type="line"/>
    </contour>
  </outline>
</glyph>
<glyph name="registered" format="2">
  <advance width="690"/>
  <unicode hex="00AE"/>
  <outline>
    <contour>
      <point x="100" y="1058" type="line" smooth="yes"/>
      <point x="87.9264" y="988.577"/>
      <point x="150.331" y="915"/>
      <point x="219" y="915" type="qcurve" smooth="yes"/>
      <point x="554" y="915" type="line" smooth="yes"/>
      <point x="623.423" y="915"/>
      <point x="711.926" y="988.577"/>
      <point x="724" y="1058" type="qcurve" smooth="yes"/>
      <point x="785" y="1408" type="line" smooth="yes"/>
      <point x="797.074" y="1476.67"/>
      <point x="734.423" y="1550"/>
      <point x="665" y="1550" type="qcurve" smooth="yes"/>
      <point x="330" y="1550" type="line" smooth="yes"/>
      <point x="261.331" y="1550"/>
      <point x="173.074" y="1476.67"/>
      <point x="161" y="1408" type="qcurve" smooth="yes"/>
    </contour>
    <contour>
      <point x="245" y="1393" type="line" smooth="yes"/>
      <point x="251.791" y="1432.99"/>
      <point x="296.761" y="1474"/>
      <point x="336" y="1474" type="qcurve" smooth="yes"/>
      <point x="631" y="1474" type="line" smooth="yes"/>
      <point x="670.994" y="1474"/>
      <point x="701.791" y="1432.99"/>
      <point x="695" y="1393" type="qcurve" smooth="yes"/>
      <point x="639" y="1073" type="line" smooth="yes"/>
      <point x="632.209" y="1033.01"/>
      <point x="600.994" y="991"/>
      <point x="561" y="991" type="qcurve" smooth="yes"/>
      <point x="252" y="991" type="line" smooth="yes"/>
      <point x="212.761" y="991"/>
      <point x="182.209" y="1033.01"/>
      <point x="189" y="1073" type="qcurve" smooth="yes"/>
    </contour>
    <contour>
      <point x="326" y="1400" type="line"/>
      <point x="267" y="1060" type="line"/>
      <point x="394" y="1060" type="line"/>
      <point x="415" y="1181" type="line"/>
      <point x="416" y="1181" type="line"/>
      <point x="455" y="1060" type="line"/>
      <point x="597" y="1060" type="line"/>
      <point x="544" y="1189" type="line"/>
      <point x="544" y="1189" type="line"/>
      <point x="565.129" y="1196.55"/>
      <point x="593.718" y="1229.82"/>
      <point x="599" y="1260" type="qcurve" smooth="yes"/>
      <point x="610" y="1321" type="line" smooth="yes"/>
      <point x="618.301" y="1369.29"/>
      <point x="570.276" y="1400"/>
      <point x="525" y="1400" type="qcurve" smooth="yes"/>
    </contour>
    <contour>
      <point x="421" y="1213" type="line"/>
      <point x="448" y="1368" type="line"/>
      <point x="478" y="1368" type="line" smooth="yes"/>
      <point x="486.301" y="1368"/>
      <point x="491.509" y="1359.79"/>
      <point x="490" y="1353" type="qcurve"/>
      <point x="468" y="1228" type="line"/>
      <point x="467.245" y="1220.45"/>
      <point x="459.301" y="1213"/>
      <point x="451" y="1213" type="qcurve" smooth="yes"/>
    </contour>
  </outline>
</glyph>
<glyph name="macron" format="2">
  <advance width="601"/>
  <unicode hex="00AF"/>
  <outline>
    <contour>
      <point x="104" y="1212" type="line"/>
      <point x="684" y="1212" type="line"/>
      <point x="690" y="1244" type="line"/>
      <point x="110" y="1244" type="line"/>
    </contour>
  </outline>
</glyph>
<glyph name="degree" format="2">
  <advance width="605"/>
  <unicode hex="00B0"/>
  <outline>
    <contour>
      <point x="119" y="1169" type="line" smooth="yes"/>
      <point x="103" y="1078"/>
      <point x="182" y="996"/>
      <point x="288" y="996" type="qcurve" smooth="yes"/>
      <point x="429" y="996" type="line" smooth="yes"/>
      <point x="536" y="996"/>
      <point x="643" y="1078"/>
      <point x="659" y="1169" type="qcurve" smooth="yes"/>
      <point x="693" y="1364" type="line" smooth="yes"/>
      <point x="708" y="1450"/>
      <point x="627" y="1530"/>
      <point x="522" y="1530" type="qcurve" smooth="yes"/>
      <point x="381" y="1530" type="line" smooth="yes"/>
      <point x="277" y="1530"/>
      <point x="168" y="1450"/>
      <point x="153" y="1364" type="qcurve" smooth="yes"/>
    </contour>
    <contour>
      <point x="319" y="1028" type="qcurve"/>
      <point x="401" y="1498" type="line"/>
      <point x="401" y="1498"/>
      <point x="401" y="1498"/>
      <point x="401" y="1498" type="qcurve"/>
      <point x="491" y="1498" type="line"/>
      <point x="491" y="1498"/>
      <point x="491" y="1498"/>
      <point x="491" y="1498" type="qcurve"/>
      <point x="409" y="1028" type="line"/>
      <point x="409" y="1028"/>
      <point x="409" y="1028"/>
      <point x="409" y="1028" type="qcurve"/>
      <point x="319" y="1028" type="line"/>
      <point x="319" y="1028"/>
      <point x="319" y="1028"/>
    </contour>
  </outline>
</glyph>
<glyph name="plusminus" format="2">
  <advance width="626"/>
  <unicode hex="00B1"/>
  <outline>
    <contour>
      <point x="544" y="605" type="line"/>
      <point x="321" y="605" type="line"/>
      <point x="368" y="877" type="line"/>
      <point x="328" y="877" type="line"/>
      <point x="281" y="605" type="line"/>
      <point x="58" y="605" type="line"/>
      <point x="51" y="569" type="line"/>
      <point x="274" y="569" type="line"/>
      <point x="226" y="291" type="line"/>
      <point x="266" y="291" type="line"/>
      <point x="314" y="569" type="line"/>
      <point x="537" y="569" type="line"/>
    </contour>
    <contour>
      <point x="-49" y="0" type="line"/>
      <point x="437" y="0" type="line"/>
      <point x="443" y="36" type="line"/>
      <point x="-43" y="36" type="line"/>
    </contour>
  </outline>
</glyph>
<glyph name="twosuperior" format="2">
  <advance width="780"/>
  <unicode hex="00B2"/>
  <outline>
    <contour>
      <point x="118" y="950" type="line"/>
      <point x="550" y="950" type="line" smooth="yes"/>
      <point x="651.116" y="950"/>
      <point x="783.871" y="1022.77"/>
      <point x="805" y="1142" type="qcurve" smooth="yes"/>
      <point x="811" y="1175" type="line"/>
      <point x="540" y="1229" type="line"/>
      <point x="497" y="980" type="line"/>
      <point x="497" y="980"/>
      <point x="497" y="980"/>
      <point x="497" y="980" type="qcurve"/>
      <point x="401" y="980" type="line"/>
      <point x="456" y="1297" type="line"/>
      <point x="456" y="1297"/>
      <point x="456" y="1297"/>
      <point x="456" y="1297" type="qcurve"/>
      <point x="620" y="1339" type="line" smooth="yes"/>
      <point x="753.564" y="1372.96"/>
      <point x="845.153" y="1467.98"/>
      <point x="861" y="1554" type="qcurve" smooth="yes"/>
      <point x="864" y="1570" type="line" smooth="yes"/>
      <point x="882.865" y="1670.36"/>
      <point x="767.362" y="1740"/>
      <point x="667" y="1740" type="qcurve" smooth="yes"/>
      <point x="483" y="1740" type="line" smooth="yes"/>
      <point x="383.393" y="1740"/>
      <point x="249.374" y="1671.45"/>
      <point x="229" y="1556" type="qcurve" smooth="yes"/>
      <point x="221" y="1509" type="line"/>
      <point x="480" y="1455" type="line"/>
      <point x="525" y="1710" type="line"/>
      <point x="525" y="1710"/>
      <point x="525" y="1710"/>
      <point x="525" y="1710" type="qcurve"/>
      <point x="618" y="1710" type="line"/>
      <point x="618" y="1710"/>
      <point x="618" y="1710"/>
      <point x="618" y="1710" type="qcurve"/>
      <point x="556" y="1354" type="line"/>
      <point x="556" y="1354"/>
      <point x="556" y="1354"/>
      <point x="556" y="1354" type="qcurve"/>
      <point x="329" y="1296" type="line" smooth="yes"/>
      <point x="252.785" y="1276.38"/>
      <point x="155.601" y="1164.08"/>
      <point x="139" y="1069" type="qcurve" smooth="yes"/>
    </contour>
  </outline>
</glyph>
<glyph name="threesuperior" format="2">
  <advance width="786"/>
  <unicode hex="00B3"/>
  <outline>
    <contour>
      <point x="158" y="1175" type="line"/>
      <point x="150" y="1130" type="line" smooth="yes"/>
      <point x="131" y="1024"/>
      <point x="243" y="950"/>
      <point x="336" y="950" type="qcurve" smooth="yes"/>
      <point x="535" y="950" type="line" smooth="yes"/>
      <point x="638" y="950"/>
      <point x="774" y="1010"/>
      <point x="796" y="1135" type="qcurve" smooth="yes"/>
      <point x="804" y="1184" type="line" smooth="yes"/>
      <point x="820" y="1275"/>
      <point x="759" y="1352"/>
      <point x="693" y="1359" type="qcurve"/>
      <point x="783" y="1374"/>
      <point x="842" y="1454"/>
      <point x="854" y="1524" type="qcurve" smooth="yes"/>
      <point x="861" y="1568" type="line" smooth="yes"/>
      <point x="875" y="1649"/>
      <point x="794" y="1746"/>
      <point x="676" y="1746" type="qcurve" smooth="yes"/>
      <point x="481" y="1746" type="line" smooth="yes"/>
      <point x="432" y="1746"/>
      <point x="348" y="1736"/>
      <point x="284" y="1701"/>
      <point x="240" y="1632"/>
      <point x="229" y="1573" type="qcurve" smooth="yes"/>
      <point x="222" y="1533" type="line"/>
      <point x="489" y="1482" type="line"/>
      <point x="532" y="1725" type="line"/>
      <point x="532" y="1725"/>
      <point x="532" y="1725"/>
      <point x="532" y="1725" type="qcurve"/>
      <point x="563" y="1725" type="line" smooth="yes"/>
      <point x="585" y="1725"/>
      <point x="608" y="1696"/>
      <point x="604" y="1674" type="qcurve" smooth="yes"/>
      <point x="558" y="1410" type="line" smooth="yes"/>
      <point x="555" y="1393"/>
      <point x="532" y="1368"/>
      <point x="515" y="1368" type="qcurve" smooth="yes"/>
      <point x="473" y="1368" type="line"/>
      <point x="470" y="1348" type="line"/>
      <point x="513" y="1348" type="line" smooth="yes"/>
      <point x="535" y="1348"/>
      <point x="551" y="1313"/>
      <point x="547" y="1289" type="qcurve"/>
      <point x="499" y="1019" type="line" smooth="yes"/>
      <point x="495" y="997"/>
      <point x="458" y="971"/>
      <point x="435" y="971" type="qcurve" smooth="yes"/>
      <point x="398" y="971" type="line"/>
      <point x="398" y="971"/>
      <point x="398" y="971"/>
      <point x="398" y="971" type="qcurve"/>
      <point x="443" y="1226" type="line"/>
    </contour>
  </outline>
</glyph>
<glyph name="acute" format="2">
  <advance width="850"/>
  <unicode hex="00B4"/>
  <outline>
    <contour>
      <point x="50" y="1100" type="line"/>
      <point x="90" y="1100" type="line"/>
      <point x="800" y="1448" type="line"/>
      <point x="205" y="1448" type="line"/>
    </contour>
  </outline>
</glyph>
<glyph name="paragraph" format="2">
  <advance width="1025"/>
  <unicode hex="00B6"/>
  <outline>
    <contour>
      <point x="817" y="0" type="line"/>
      <point x="1061" y="1400" type="line"/>
      <point x="564" y="1400" type="line" smooth="yes"/>
      <point x="375" y="1400"/>
      <point x="127.25" y="1267"/>
      <point x="92" y="1066" type="qcurve" smooth="yes"/>
      <point x="26" y="686" type="line" smooth="yes"/>
      <point x="8.375" y="585.5"/>
      <point x="44.6562" y="458.5"/>
      <point x="140.094" y="386.5"/>
      <point x="288.5" y="360"/>
      <point x="383" y="360" type="qcurve" smooth="yes"/>
      <point x="408" y="360" type="line"/>
      <point x="345" y="0" type="line"/>
      <point x="537" y="0" type="line"/>
      <point x="775" y="1364" type="line"/>
      <point x="863" y="1364" type="line"/>
      <point x="625" y="0" type="line"/>
    </contour>
  </outline>
  <guideline angle="90" color="0.4,0.4,0.4,1" name="halfwidth" x="512.5" y="0"/>
</glyph>
<glyph name="cedilla" format="2">
  <advance width="378"/>
  <unicode hex="00B8"/>
  <outline>
    <contour>
      <point x="-51" y="-438" type="qcurve" smooth="yes"/>
      <point x="-8.625" y="-438"/>
      <point x="74.8125" y="-417.406"/>
      <point x="144.188" y="-374.844"/>
      <point x="193.125" y="-309.625"/>
      <point x="201" y="-265" type="qcurve" smooth="yes"/>
      <point x="208.125" y="-224.5"/>
      <point x="196.344" y="-158.188"/>
      <point x="157.906" y="-109.812"/>
      <point x="92.5" y="-81"/>
      <point x="46" y="-78" type="qcurve"/>
      <point x="88" y="0" type="line"/>
      <point x="-14" y="0" type="line"/>
      <point x="-70" y="-104" type="line"/>
      <point x="-60.9448" y="-100.982"/>
      <point x="-49.3006" y="-99"/>
      <point x="-41" y="-99" type="qcurve" smooth="yes"/>
      <point x="-12.3252" y="-99"/>
      <point x="6.8282" y="-171.804"/>
      <point x="-6" y="-245" type="qcurve" smooth="yes"/>
      <point x="-18.8282" y="-318.951"/>
      <point x="-65.816" y="-403"/>
      <point x="-96" y="-403" type="qcurve" smooth="yes"/>
      <point x="-111.092" y="-403"/>
      <point x="-138.19" y="-382.601"/>
      <point x="-148" y="-366" type="qcurve"/>
      <point x="-178" y="-387" type="line"/>
      <point x="-153.098" y="-416.429"/>
      <point x="-101.558" y="-438"/>
    </contour>
  </outline>
</glyph>
<glyph name="ordmasculine" format="2">
  <advance width="852"/>
  <unicode hex="00BA"/>
  <outline>
    <contour>
      <point x="98" y="956" type="line" smooth="yes"/>
      <point x="82.1534" y="865.448"/>
      <point x="162.356" y="784"/>
      <point x="268" y="784" type="qcurve" smooth="yes"/>
      <point x="622" y="784" type="line" smooth="yes"/>
      <point x="728.399" y="784"/>
      <point x="836.153" y="865.448"/>
      <point x="852" y="956" type="qcurve" smooth="yes"/>
      <point x="913" y="1307" type="line" smooth="yes"/>
      <point x="928.092" y="1392.27"/>
      <point x="846.889" y="1472"/>
      <point x="742" y="1472" type="qcurve" smooth="yes"/>
      <point x="388" y="1472" type="line" smooth="yes"/>
      <point x="283.111" y="1472"/>
      <point x="174.092" y="1392.27"/>
      <point x="159" y="1307" type="qcurve" smooth="yes"/>
    </contour>
    <contour>
      <point x="414" y="816" type="qcurve"/>
      <point x="523" y="1440" type="line"/>
      <point x="523" y="1440"/>
      <point x="523" y="1440"/>
      <point x="523" y="1440" type="qcurve"/>
      <point x="597" y="1440" type="line"/>
      <point x="597" y="1440"/>
      <point x="597" y="1440"/>
      <point x="597" y="1440" type="qcurve"/>
      <point x="488" y="816" type="line"/>
      <point x="488" y="816"/>
      <point x="488" y="816"/>
      <point x="488" y="816" type="qcurve"/>
      <point x="414" y="816" type="line"/>
      <point x="414" y="816"/>
      <point x="414" y="816"/>
    </contour>
  </outline>
</glyph>
<glyph name="guillemotright" format="2">
  <advance width="883"/>
  <unicode hex="00BB"/>
  <outline>
    <contour>
      <point x="572" y="894" type="line"/>
      <point x="541" y="894" type="line"/>
      <point x="601" y="512" type="line"/>
      <point x="408" y="130" type="line"/>
      <point x="439" y="130" type="line"/>
      <point x="890" y="512" type="line"/>
    </contour>
    <contour>
      <point x="135" y="894" type="line"/>
      <point x="104" y="894" type="line"/>
      <point x="164" y="512" type="line"/>
      <point x="-29" y="130" type="line"/>
      <point x="2" y="130" type="line"/>
      <point x="453" y="512" type="line"/>
    </contour>
  </outline>
</glyph>
<glyph name="onequarter" format="2">
  <advance width="1360"/>
  <unicode hex="00BC"/>
  <outline>
    <contour>
      <point x="118" y="614" type="line"/>
      <point x="412" y="614" type="line"/>
      <point x="551" y="1408" type="line"/>
      <point x="140" y="1353" type="line"/>
      <point x="135" y="1323" type="line"/>
      <point x="244" y="1336" type="line"/>
    </contour>
    <contour>
      <point x="117" y="0" type="line"/>
      <point x="150" y="0" type="line"/>
      <point x="998" y="1400" type="line"/>
      <point x="965" y="1400" type="line"/>
    </contour>
    <contour>
      <point x="538" y="195" type="line"/>
      <point x="875" y="195" type="line"/>
      <point x="841" y="0" type="line"/>
      <point x="1135" y="0" type="line"/>
      <point x="1169" y="195" type="line"/>
      <point x="1229" y="195" type="line"/>
      <point x="1234" y="225" type="line"/>
      <point x="1174" y="225" type="line"/>
      <point x="1272" y="784" type="line"/>
      <point x="1099" y="784" type="line"/>
      <point x="542" y="220" type="line"/>
    </contour>
    <contour>
      <point x="589" y="225" type="line"/>
      <point x="943" y="584" type="line"/>
      <point x="880" y="225" type="line"/>
    </contour>
  </outline>
  <guideline angle="90" color="0.4,0.4,0.4,1" name="halfwidth" x="680" y="0"/>
</glyph>
<glyph name="onehalf" format="2">
  <advance width="1395"/>
  <unicode hex="00BD"/>
  <outline>
    <contour>
      <point x="118" y="614" type="line"/>
      <point x="412" y="614" type="line"/>
      <point x="551" y="1408" type="line"/>
      <point x="140" y="1353" type="line"/>
      <point x="135" y="1323" type="line"/>
      <point x="244" y="1336" type="line"/>
    </contour>
    <contour>
      <point x="117" y="0" type="line"/>
      <point x="150" y="0" type="line"/>
      <point x="998" y="1400" type="line"/>
      <point x="965" y="1400" type="line"/>
    </contour>
    <contour>
      <point x="565" y="0" type="line"/>
      <point x="997" y="0" type="line" smooth="yes"/>
      <point x="1098" y="0"/>
      <point x="1231" y="73"/>
      <point x="1252" y="192" type="qcurve" smooth="yes"/>
      <point x="1258" y="225" type="line"/>
      <point x="987" y="279" type="line"/>
      <point x="944" y="30" type="line"/>
      <point x="944" y="30"/>
      <point x="944" y="30"/>
      <point x="944" y="30" type="qcurve"/>
      <point x="848" y="30" type="line"/>
      <point x="903" y="347" type="line"/>
      <point x="903" y="347"/>
      <point x="903" y="347"/>
      <point x="903" y="347" type="qcurve"/>
      <point x="1067" y="389" type="line" smooth="yes"/>
      <point x="1201" y="423"/>
      <point x="1292" y="518"/>
      <point x="1308" y="604" type="qcurve" smooth="yes"/>
      <point x="1311" y="620" type="line" smooth="yes"/>
      <point x="1330" y="720"/>
      <point x="1214" y="790"/>
      <point x="1114" y="790" type="qcurve" smooth="yes"/>
      <point x="930" y="790" type="line" smooth="yes"/>
      <point x="830" y="790"/>
      <point x="696" y="721"/>
      <point x="676" y="606" type="qcurve" smooth="yes"/>
      <point x="668" y="559" type="line"/>
      <point x="927" y="505" type="line"/>
      <point x="972" y="760" type="line"/>
      <point x="972" y="760"/>
      <point x="972" y="760"/>
      <point x="972" y="760" type="qcurve"/>
      <point x="1065" y="760" type="line"/>
      <point x="1065" y="760"/>
      <point x="1065" y="760"/>
      <point x="1065" y="760" type="qcurve"/>
      <point x="1003" y="404" type="line"/>
      <point x="1003" y="404"/>
      <point x="1003" y="404"/>
      <point x="1003" y="404" type="qcurve"/>
      <point x="776" y="346" type="line" smooth="yes"/>
      <point x="700" y="326"/>
      <point x="603" y="214"/>
      <point x="586" y="119" type="qcurve" smooth="yes"/>
    </contour>
  </outline>
  <guideline angle="90" color="0.4,0.4,0.4,1" name="halfwidth" x="697.5" y="0"/>
</glyph>
<glyph name="questiondown" format="2">
  <advance width="1110"/>
  <unicode hex="00BF"/>
  <outline>
    <contour>
      <point x="594" y="566" type="line"/>
      <point x="554" y="566" type="line"/>
      <point x="515" y="339" type="line"/>
      <point x="515" y="339"/>
      <point x="515" y="339"/>
      <point x="515" y="339" type="qcurve"/>
      <point x="241" y="339" type="line" smooth="yes"/>
      <point x="114.982" y="339"/>
      <point x="-21.6258" y="159.472"/>
      <point x="-42" y="41" type="qcurve" smooth="yes"/>
      <point x="-65" y="-87" type="line" smooth="yes"/>
      <point x="-92.9202" y="-246.975"/>
      <point x="29.9512" y="-382"/>
      <point x="202" y="-382" type="qcurve" smooth="yes"/>
      <point x="558" y="-382" type="line" smooth="yes"/>
      <point x="730.049" y="-382"/>
      <point x="903.08" y="-244.221"/>
      <point x="931" y="-85" type="qcurve" smooth="yes"/>
      <point x="949" y="20" type="line"/>
      <point x="507" y="93" type="line"/>
      <point x="430" y="-346" type="line"/>
      <point x="430" y="-346"/>
      <point x="430" y="-346"/>
      <point x="430" y="-346" type="qcurve"/>
      <point x="345" y="-346" type="line"/>
      <point x="345" y="-346"/>
      <point x="345" y="-346"/>
      <point x="345" y="-346" type="qcurve"/>
      <point x="445" y="224" type="line" smooth="yes"/>
      <point x="452.546" y="267.767"/>
      <point x="470.515" y="303"/>
      <point x="509" y="303" type="qcurve" smooth="yes"/>
      <point x="548" y="303" type="line"/>
      <point x="548" y="303"/>
      <point x="548" y="303"/>
      <point x="548" y="303" type="qcurve"/>
    </contour>
    <contour>
      <point x="896" y="893" type="line" smooth="yes"/>
      <point x="911.847" y="983.552"/>
      <point x="870.552" y="1034"/>
      <point x="780" y="1034" type="qcurve" smooth="yes"/>
      <point x="532" y="1034" type="line" smooth="yes"/>
      <point x="442" y="1034"/>
      <point x="381.75" y="983"/>
      <point x="366" y="893" type="qcurve" smooth="yes"/>
      <point x="351" y="804" type="line" smooth="yes"/>
      <point x="335.153" y="714.203"/>
      <point x="377.448" y="664"/>
      <point x="468" y="664" type="qcurve" smooth="yes"/>
      <point x="715" y="664" type="line" smooth="yes"/>
      <point x="805" y="664"/>
      <point x="865.25" y="714.25"/>
      <point x="881" y="802" type="qcurve" smooth="yes"/>
    </contour>
  </outline>
</glyph>
<glyph name="Agrave" format="2">
  <advance width="1234"/>
  <unicode hex="00C0"/>
  <anchor x="759" y="1550" name="top"/>
  <anchor x="432" y="-150" name="bottom"/>
  <anchor x="550" y="0" name="ogonek_in"/>
  <anchor x="813" y="1500" name="topright"/>
  <outline>
    <contour>
      <point x="-130" y="0" type="line"/>
      <point x="-89" y="0" type="line"/>
      <point x="56" y="298" type="line"/>
      <point x="514" y="298" type="line"/>
      <point x="550" y="0" type="line"/>
      <point x="1124" y="0" type="line"/>
      <point x="927" y="1400" type="line"/>
      <point x="554" y="1400" type="line"/>
    </contour>
    <contour>
      <point x="74" y="334" type="line"/>
      <point x="422" y="1047" type="line"/>
      <point x="509" y="334" type="line"/>
    </contour>
    <contour>
      <point x="849" y="1500" type="line"/>
      <point x="808" y="1800" type="line"/>
      <point x="277" y="1800" type="line"/>
      <point x="813" y="1500" type="line"/>
    </contour>
  </outline>
</glyph>
<glyph name="Atilde" format="2">
  <advance width="1234"/>
  <unicode hex="00C3"/>
  <anchor x="835" y="1982" name="top"/>
  <anchor x="432" y="-150" name="bottom"/>
  <anchor x="550" y="0" name="ogonek_in"/>
  <outline>
    <contour>
      <point x="-130" y="0" type="line"/>
      <point x="-89" y="0" type="line"/>
      <point x="56" y="298" type="line"/>
      <point x="514" y="298" type="line"/>
      <point x="550" y="0" type="line"/>
      <point x="1124" y="0" type="line"/>
      <point x="927" y="1400" type="line"/>
      <point x="554" y="1400" type="line"/>
    </contour>
    <contour>
      <point x="74" y="334" type="line"/>
      <point x="422" y="1047" type="line"/>
      <point x="509" y="334" type="line"/>
    </contour>
    <contour>
      <point x="411" y="1505" type="qcurve"/>
      <point x="440" y="1500" type="line"/>
      <point x="449" y="1520"/>
      <point x="490" y="1571"/>
      <point x="541" y="1571" type="qcurve" smooth="yes"/>
      <point x="574" y="1571"/>
      <point x="653" y="1545"/>
      <point x="743" y="1513"/>
      <point x="844" y="1487"/>
      <point x="899" y="1487" type="qcurve" smooth="yes"/>
      <point x="943" y="1487"/>
      <point x="1017" y="1547"/>
      <point x="1078" y="1649"/>
      <point x="1130" y="1782"/>
      <point x="1152" y="1854" type="qcurve"/>
      <point x="1123" y="1859" type="line"/>
      <point x="1115" y="1839"/>
      <point x="1074" y="1788"/>
      <point x="1023" y="1788" type="qcurve" smooth="yes"/>
      <point x="990" y="1788"/>
      <point x="911" y="1814"/>
      <point x="821" y="1846"/>
      <point x="721" y="1872"/>
      <point x="665" y="1872" type="qcurve" smooth="yes"/>
      <point x="621" y="1872"/>
      <point x="548" y="1816"/>
      <point x="487" y="1718"/>
      <point x="435" y="1583"/>
    </contour>
  </outline>
  <guideline angle="90" x="227" y="0"/>
  <guideline angle="90" x="907" y="0"/>
  <guideline angle="90" x="257" y="0"/>
  <guideline angle="90" x="877" y="0"/>
</glyph>
<glyph name="Aring" format="2">
  <advance width="1234"/>
  <unicode hex="00C5"/>
  <anchor x="833" y="1970" name="top"/>
  <anchor x="432" y="-150" name="bottom"/>
  <anchor x="550" y="0" name="ogonek_in"/>
  <outline>
    <contour>
      <point x="-130" y="0" type="line"/>
      <point x="-89" y="0" type="line"/>
      <point x="56" y="298" type="line"/>
      <point x="514" y="298" type="line"/>
      <point x="550" y="0" type="line"/>
      <point x="1124" y="0" type="line"/>
      <point x="927" y="1400" type="line"/>
      <point x="554" y="1400" type="line"/>
    </contour>
    <contour>
      <point x="74" y="334" type="line"/>
      <point x="422" y="1047" type="line"/>
      <point x="509" y="334" type="line"/>
    </contour>
    <contour>
      <point x="491" y="1667" type="qcurve" smooth="yes"/>
      <point x="479.375" y="1601"/>
      <point x="486.125" y="1524.19"/>
      <point x="540.875" y="1484.81"/>
      <point x="652.625" y="1474"/>
      <point x="746" y="1474" type="qcurve" smooth="yes"/>
      <point x="839.375" y="1474"/>
      <point x="954.938" y="1484.81"/>
      <point x="1023.56" y="1524.19"/>
      <point x="1057.38" y="1601"/>
      <point x="1069" y="1667" type="qcurve" smooth="yes"/>
      <point x="1080.62" y="1733"/>
      <point x="1073.88" y="1809.81"/>
      <point x="1019.12" y="1849.19"/>
      <point x="907.375" y="1860"/>
      <point x="814" y="1860" type="qcurve" smooth="yes"/>
      <point x="720.625" y="1860"/>
      <point x="605.062" y="1849.19"/>
      <point x="536.438" y="1809.81"/>
      <point x="502.625" y="1733"/>
    </contour>
    <contour>
      <point x="730" y="1667" type="qcurve" smooth="yes"/>
      <point x="749.5" y="1778.75"/>
      <point x="776" y="1832"/>
      <point x="809" y="1832" type="qcurve" smooth="yes"/>
      <point x="842.202" y="1832"/>
      <point x="849.62" y="1779.44"/>
      <point x="830" y="1667" type="qcurve" smooth="yes"/>
      <point x="810.38" y="1556.07"/>
      <point x="784.202" y="1502"/>
      <point x="751" y="1502" type="qcurve" smooth="yes"/>
      <point x="717.798" y="1502"/>
      <point x="710.38" y="1556.07"/>
    </contour>
  </outline>
</glyph>
<glyph name="Ccedilla" format="2">
  <advance width="1340"/>
  <unicode hex="00C7"/>
  <anchor x="843" y="1550" name="top"/>
  <anchor x="573" y="-150" name="bottom"/>
  <anchor x="573" y="0" name="ogrev"/>
  <outline>
    <contour>
      <point x="142" y="1076" type="qcurve" smooth="yes"/>
      <point x="13" y="336" type="line" smooth="yes"/>
      <point x="-23" y="129"/>
      <point x="165" y="-10"/>
      <point x="364" y="-10" type="qcurve" smooth="yes"/>
      <point x="782" y="-10" type="line" smooth="yes"/>
      <point x="981" y="-10"/>
      <point x="1220" y="128"/>
      <point x="1257" y="336" type="qcurve" smooth="yes"/>
      <point x="1291" y="530" type="line"/>
      <point x="738" y="640" type="line"/>
      <point x="631" y="26" type="line"/>
      <point x="631" y="26"/>
      <point x="631" y="26"/>
      <point x="631" y="26" type="qcurve"/>
      <point x="531" y="26" type="line"/>
      <point x="531" y="26"/>
      <point x="531" y="26"/>
      <point x="531" y="26" type="qcurve"/>
      <point x="766" y="1374" type="line"/>
      <point x="766" y="1374"/>
      <point x="766" y="1374"/>
      <point x="766" y="1374" type="qcurve"/>
      <point x="860" y="1374" type="line"/>
      <point x="860" y="1374"/>
      <point x="860" y="1374"/>
      <point x="860" y="1374" type="qcurve"/>
      <point x="757" y="786" type="line"/>
      <point x="1347" y="890" type="line"/>
      <point x="1380" y="1076" type="line" smooth="yes"/>
      <point x="1415" y="1277"/>
      <point x="1213" y="1410"/>
      <point x="1024" y="1410" type="qcurve" smooth="yes"/>
      <point x="612" y="1410" type="line" smooth="yes"/>
      <point x="423" y="1410"/>
      <point x="177" y="1277"/>
    </contour>
    <contour>
      <point x="533" y="-436" type="qcurve" smooth="yes"/>
      <point x="630" y="-436"/>
      <point x="725" y="-327"/>
      <point x="725" y="-236" type="qcurve" smooth="yes"/>
      <point x="725" y="-161"/>
      <point x="636" y="-75"/>
      <point x="535" y="-75" type="qcurve"/>
      <point x="622" y="15" type="line"/>
      <point x="583" y="15" type="line"/>
      <point x="468" y="-104" type="line"/>
      <point x="473" y="-102"/>
      <point x="484" y="-102"/>
      <point x="488" y="-102" type="qcurve" smooth="yes"/>
      <point x="518" y="-102"/>
      <point x="548" y="-149"/>
      <point x="548" y="-199" type="qcurve" smooth="yes"/>
      <point x="548" y="-276"/>
      <point x="485" y="-387"/>
      <point x="441" y="-387" type="qcurve" smooth="yes"/>
      <point x="425" y="-387"/>
      <point x="387" y="-371"/>
      <point x="367" y="-357" type="qcurve"/>
      <point x="350" y="-380" type="line"/>
      <point x="380" y="-406"/>
      <point x="479" y="-436"/>
    </contour>
  </outline>
  <guideline angle="0" x="0" y="25"/>
</glyph>
<glyph name="Egrave" format="2">
  <advance width="1107"/>
  <unicode hex="00C8"/>
  <anchor x="744" y="1550" name="top"/>
  <anchor x="447" y="-150" name="bottom"/>
  <anchor x="599" y="0" name="ogonek"/>
  <anchor x="798" y="1500" name="topright"/>
  <outline>
    <contour>
      <point x="-29" y="0" type="line"/>
      <point x="981" y="0" type="line"/>
      <point x="987" y="36" type="line"/>
      <point x="549" y="36" type="line"/>
      <point x="665" y="700" type="line"/>
      <point x="1049" y="700" type="line"/>
      <point x="1055" y="736" type="line"/>
      <point x="671" y="736" type="line"/>
      <point x="781" y="1364" type="line"/>
      <point x="1205" y="1364" type="line"/>
      <point x="1211" y="1400" type="line"/>
      <point x="215" y="1400" type="line"/>
    </contour>
    <contour>
      <point x="834" y="1500" type="line"/>
      <point x="793" y="1800" type="line"/>
      <point x="262" y="1800" type="line"/>
      <point x="798" y="1500" type="line"/>
    </contour>
  </outline>
  <guideline angle="90" x="-127" y="0"/>
</glyph>
<glyph name="Ecircumflex" format="2">
  <advance width="1111"/>
  <unicode hex="00CA"/>
  <anchor x="801" y="1856" name="top"/>
  <anchor x="450" y="-150" name="bottom"/>
  <anchor x="642" y="0" name="ogonek"/>
  <anchor x="981" y="0" name="ogonek_out"/>
  <anchor x="1190" y="1576" name="topright"/>
  <outline>
    <contour>
      <point x="-29" y="0" type="line"/>
      <point x="981" y="0" type="line"/>
      <point x="987" y="36" type="line"/>
      <point x="549" y="36" type="line"/>
      <point x="665" y="700" type="line"/>
      <point x="1049" y="700" type="line"/>
      <point x="1055" y="736" type="line"/>
      <point x="671" y="736" type="line"/>
      <point x="781" y="1364" type="line"/>
      <point x="1205" y="1364" type="line"/>
      <point x="1211" y="1400" type="line"/>
      <point x="215" y="1400" type="line"/>
    </contour>
    <contour>
      <point x="492" y="1476" type="line"/>
      <point x="536" y="1476" type="line"/>
      <point x="679" y="1700" type="line"/>
      <point x="748" y="1476" type="line"/>
      <point x="1173" y="1476" type="line"/>
      <point x="982" y="1776" type="line"/>
      <point x="690" y="1776" type="line"/>
    </contour>
  </outline>
  <guideline angle="90" x="-127" y="0"/>
</glyph>
<glyph name="Edieresis" format="2">
  <advance width="1111"/>
  <unicode hex="00CB"/>
  <anchor x="816" y="1938" name="top"/>
  <anchor x="450" y="-150" name="bottom"/>
  <anchor x="642" y="0" name="ogonek"/>
  <anchor x="981" y="0" name="ogonek_out"/>
  <outline>
    <contour>
      <point x="-29" y="0" type="line"/>
      <point x="981" y="0" type="line"/>
      <point x="987" y="36" type="line"/>
      <point x="549" y="36" type="line"/>
      <point x="665" y="700" type="line"/>
      <point x="1049" y="700" type="line"/>
      <point x="1055" y="736" type="line"/>
      <point x="671" y="736" type="line"/>
      <point x="781" y="1364" type="line"/>
      <point x="1205" y="1364" type="line"/>
      <point x="1211" y="1400" type="line"/>
      <point x="215" y="1400" type="line"/>
    </contour>
    <contour>
      <point x="382" y="1498" type="qcurve" smooth="yes"/>
      <point x="534" y="1498" type="line" smooth="yes"/>
      <point x="615" y="1498"/>
      <point x="649" y="1527"/>
      <point x="663" y="1608" type="qcurve" smooth="yes"/>
      <point x="688" y="1750" type="line" smooth="yes"/>
      <point x="702" y="1830"/>
      <point x="678" y="1858"/>
      <point x="597" y="1858" type="qcurve" smooth="yes"/>
      <point x="445" y="1858" type="line" smooth="yes"/>
      <point x="364" y="1858"/>
      <point x="330" y="1830"/>
      <point x="316" y="1750" type="qcurve" smooth="yes"/>
      <point x="291" y="1608" type="line" smooth="yes"/>
      <point x="277" y="1527"/>
      <point x="301" y="1498"/>
    </contour>
    <contour>
      <point x="942" y="1498" type="qcurve" smooth="yes"/>
      <point x="1094" y="1498" type="line" smooth="yes"/>
      <point x="1175" y="1498"/>
      <point x="1209" y="1527"/>
      <point x="1223" y="1608" type="qcurve" smooth="yes"/>
      <point x="1248" y="1750" type="line" smooth="yes"/>
      <point x="1262" y="1830"/>
      <point x="1238" y="1858"/>
      <point x="1157" y="1858" type="qcurve" smooth="yes"/>
      <point x="1005" y="1858" type="line" smooth="yes"/>
      <point x="924" y="1858"/>
      <point x="890" y="1830"/>
      <point x="876" y="1750" type="qcurve" smooth="yes"/>
      <point x="851" y="1608" type="line" smooth="yes"/>
      <point x="837" y="1527"/>
      <point x="861" y="1498"/>
    </contour>
  </outline>
  <guideline angle="90" x="-127" y="0"/>
</glyph>
<glyph name="Igrave" format="2">
  <advance width="748"/>
  <unicode hex="00CC"/>
  <anchor x="525" y="1550" name="top"/>
  <anchor x="228" y="-150" name="bottom"/>
  <anchor x="9" y="0" name="ogonek"/>
  <anchor x="579" y="1500" name="topright"/>
  <outline>
    <contour>
      <point x="-29" y="0" type="line"/>
      <point x="543" y="0" type="line"/>
      <point x="787" y="1400" type="line"/>
      <point x="215" y="1400" type="line"/>
    </contour>
    <contour>
      <point x="615" y="1500" type="line"/>
      <point x="574" y="1800" type="line"/>
      <point x="43" y="1800" type="line"/>
      <point x="579" y="1500" type="line"/>
    </contour>
  </outline>
</glyph>
<glyph name="Icircumflex" format="2">
  <advance width="748"/>
  <unicode hex="00CE"/>
  <anchor x="579" y="1856" name="top"/>
  <anchor x="228" y="-150" name="bottom"/>
  <anchor x="9" y="0" name="ogonek"/>
  <anchor x="968" y="1576" name="topright"/>
  <outline>
    <contour>
      <point x="-29" y="0" type="line"/>
      <point x="543" y="0" type="line"/>
      <point x="787" y="1400" type="line"/>
      <point x="215" y="1400" type="line"/>
    </contour>
    <contour>
      <point x="270" y="1476" type="line"/>
      <point x="314" y="1476" type="line"/>
      <point x="457" y="1700" type="line"/>
      <point x="526" y="1476" type="line"/>
      <point x="951" y="1476" type="line"/>
      <point x="760" y="1776" type="line"/>
      <point x="468" y="1776" type="line"/>
    </contour>
  </outline>
</glyph>
<glyph name="Idieresis" format="2">
  <advance width="748"/>
  <unicode hex="00CF"/>
  <anchor x="594" y="1938" name="top"/>
  <anchor x="228" y="-150" name="bottom"/>
  <anchor x="9" y="0" name="ogonek"/>
  <outline>
    <contour>
      <point x="-29" y="0" type="line"/>
      <point x="543" y="0" type="line"/>
      <point x="787" y="1400" type="line"/>
      <point x="215" y="1400" type="line"/>
    </contour>
    <contour>
      <point x="160" y="1498" type="qcurve" smooth="yes"/>
      <point x="312" y="1498" type="line" smooth="yes"/>
      <point x="393" y="1498"/>
      <point x="427" y="1527"/>
      <point x="441" y="1608" type="qcurve" smooth="yes"/>
      <point x="466" y="1750" type="line" smooth="yes"/>
      <point x="480" y="1830"/>
      <point x="456" y="1858"/>
      <point x="375" y="1858" type="qcurve" smooth="yes"/>
      <point x="223" y="1858" type="line" smooth="yes"/>
      <point x="142" y="1858"/>
      <point x="108" y="1830"/>
      <point x="94" y="1750" type="qcurve" smooth="yes"/>
      <point x="69" y="1608" type="line" smooth="yes"/>
      <point x="55" y="1527"/>
      <point x="79" y="1498"/>
    </contour>
    <contour>
      <point x="720" y="1498" type="qcurve" smooth="yes"/>
      <point x="872" y="1498" type="line" smooth="yes"/>
      <point x="953" y="1498"/>
      <point x="987" y="1527"/>
      <point x="1001" y="1608" type="qcurve" smooth="yes"/>
      <point x="1026" y="1750" type="line" smooth="yes"/>
      <point x="1040" y="1830"/>
      <point x="1016" y="1858"/>
      <point x="935" y="1858" type="qcurve" smooth="yes"/>
      <point x="783" y="1858" type="line" smooth="yes"/>
      <point x="702" y="1858"/>
      <point x="668" y="1830"/>
      <point x="654" y="1750" type="qcurve" smooth="yes"/>
      <point x="629" y="1608" type="line" smooth="yes"/>
      <point x="615" y="1527"/>
      <point x="639" y="1498"/>
    </contour>
  </outline>
</glyph>
<glyph name="Eth" format="2">
  <advance width="1376"/>
  <unicode hex="00D0"/>
  <anchor x="619.2" y="1550" name="top"/>
  <anchor x="619.2" y="-150" name="bottom"/>
  <outline>
    <contour>
      <point x="-28" y="0" type="line"/>
      <point x="559" y="0" type="line" smooth="yes"/>
      <point x="709" y="0"/>
      <point x="967.031" y="61.9375"/>
      <point x="1169.72" y="211.562"/>
      <point x="1310.38" y="461.75"/>
      <point x="1343" y="650" type="qcurve" smooth="yes"/>
      <point x="1374.12" y="827"/>
      <point x="1337.75" y="1105.62"/>
      <point x="1202.75" y="1298.38"/>
      <point x="969.125" y="1400"/>
      <point x="803" y="1400" type="qcurve" smooth="yes"/>
      <point x="216" y="1400" type="line"/>
      <point x="97" y="720" type="line"/>
      <point x="40" y="720" type="line"/>
      <point x="34" y="688" type="line"/>
      <point x="92" y="688" type="line"/>
    </contour>
    <contour>
      <point x="550" y="36" type="line"/>
      <point x="664" y="688" type="line"/>
      <point x="703" y="688" type="line"/>
      <point x="709" y="720" type="line"/>
      <point x="669" y="720" type="line"/>
      <point x="782" y="1364" type="line"/>
      <point x="792" y="1364" type="line" smooth="yes"/>
      <point x="817.125" y="1364"/>
      <point x="845.5" y="1295.66"/>
      <point x="847" y="1142.09"/>
      <point x="819.125" y="894.875"/>
      <point x="788" y="716" type="qcurve" smooth="yes"/>
      <point x="756.5" y="534.125"/>
      <point x="697.344" y="276.156"/>
      <point x="640.906" y="112.094"/>
      <point x="586.625" y="36"/>
      <point x="560" y="36" type="qcurve" smooth="yes"/>
    </contour>
  </outline>
</glyph>
<glyph name="Ntilde" format="2">
  <advance width="1160"/>
  <unicode hex="00D1"/>
  <anchor x="807" y="1982" name="top"/>
  <anchor x="434" y="-150" name="bottom"/>
  <outline>
    <contour>
      <point x="-29" y="0" type="line"/>
      <point x="7" y="0" type="line"/>
      <point x="137" y="742" type="line"/>
      <point x="773" y="0" type="line"/>
      <point x="955" y="0" type="line"/>
      <point x="1199" y="1400" type="line"/>
      <point x="1163" y="1400" type="line"/>
      <point x="1032" y="649" type="line"/>
      <point x="393" y="1400" type="line"/>
      <point x="215" y="1400" type="line"/>
    </contour>
    <contour>
      <point x="383" y="1505" type="qcurve"/>
      <point x="412" y="1500" type="line"/>
      <point x="421.055" y="1519.62"/>
      <point x="461.687" y="1571"/>
      <point x="513" y="1571" type="qcurve" smooth="yes"/>
      <point x="546.375" y="1571"/>
      <point x="624.969" y="1544.75"/>
      <point x="714.781" y="1513.25"/>
      <point x="815.5" y="1487"/>
      <point x="871" y="1487" type="qcurve" smooth="yes"/>
      <point x="915.25" y="1487"/>
      <point x="988.5" y="1547.41"/>
      <point x="1050" y="1648.84"/>
      <point x="1101.5" y="1781.62"/>
      <point x="1124" y="1854" type="qcurve"/>
      <point x="1095" y="1859" type="line"/>
      <point x="1086.7" y="1839.38"/>
      <point x="1046.31" y="1788"/>
      <point x="995" y="1788" type="qcurve" smooth="yes"/>
      <point x="961.625" y="1788"/>
      <point x="883.031" y="1814.25"/>
      <point x="793.219" y="1845.75"/>
      <point x="692.5" y="1872"/>
      <point x="637" y="1872" type="qcurve" smooth="yes"/>
      <point x="592.75" y="1872"/>
      <point x="520.031" y="1816.09"/>
      <point x="458.719" y="1717.66"/>
      <point x="406.625" y="1583.38"/>
    </contour>
  </outline>
  <guideline angle="90" x="199" y="0"/>
  <guideline angle="90" x="879" y="0"/>
  <guideline angle="90" x="229" y="0"/>
  <guideline angle="90" x="849" y="0"/>
</glyph>
<glyph name="Oacute" format="2">
  <advance width="1387"/>
  <unicode hex="00D3"/>
  <anchor x="846" y="1560" name="top"/>
  <anchor x="547" y="-160" name="bottom"/>
  <anchor x="1382" y="1076" name="horn"/>
  <anchor x="592" y="0" name="ogonek"/>
  <anchor x="775" y="1510" name="topright"/>
  <outline>
    <contour>
      <point x="142" y="1076" type="qcurve" smooth="yes"/>
      <point x="13" y="336" type="line" smooth="yes"/>
      <point x="-23.2208" y="129.24"/>
      <point x="164.786" y="-10"/>
      <point x="364" y="-10" type="qcurve" smooth="yes"/>
      <point x="782" y="-10" type="line" smooth="yes"/>
      <point x="981.214" y="-10"/>
      <point x="1220.02" y="127.73"/>
      <point x="1257" y="336" type="qcurve" smooth="yes"/>
      <point x="1386" y="1076" type="line" smooth="yes"/>
      <point x="1421.25" y="1277"/>
      <point x="1219" y="1410"/>
      <point x="1030" y="1410" type="qcurve" smooth="yes"/>
      <point x="612" y="1410" type="line" smooth="yes"/>
      <point x="423" y="1410"/>
      <point x="177.25" y="1277"/>
    </contour>
    <contour>
      <point x="766" y="1374" type="line"/>
      <point x="766" y="1374"/>
      <point x="766" y="1374"/>
      <point x="766" y="1374" type="qcurve"/>
      <point x="866" y="1374" type="line"/>
      <point x="866" y="1374"/>
      <point x="866" y="1374"/>
      <point x="866" y="1374" type="qcurve"/>
      <point x="631" y="26" type="line"/>
      <point x="631" y="26"/>
      <point x="631" y="26"/>
      <point x="631" y="26" type="qcurve"/>
      <point x="531" y="26" type="line"/>
      <point x="531" y="26"/>
      <point x="531" y="26"/>
      <point x="531" y="26" type="qcurve"/>
    </contour>
    <contour>
      <point x="731" y="1510" type="line"/>
      <point x="775" y="1510" type="line"/>
      <point x="1437" y="1810" type="line"/>
      <point x="806" y="1810" type="line"/>
    </contour>
  </outline>
</glyph>
<glyph name="Ocircumflex" format="2">
  <advance width="1390"/>
  <unicode hex="00D4"/>
  <anchor x="901" y="1866" name="top"/>
  <anchor x="573" y="-160" name="bottom"/>
  <anchor x="1300" y="1333" name="horn"/>
  <anchor x="573" y="0" name="ogonek"/>
  <anchor x="1290" y="1586" name="topright"/>
  <outline>
    <contour>
      <point x="142" y="1076" type="qcurve" smooth="yes"/>
      <point x="13" y="336" type="line" smooth="yes"/>
      <point x="-23.2208" y="129.24"/>
      <point x="164.786" y="-10"/>
      <point x="364" y="-10" type="qcurve" smooth="yes"/>
      <point x="782" y="-10" type="line" smooth="yes"/>
      <point x="981.214" y="-10"/>
      <point x="1220.02" y="127.73"/>
      <point x="1257" y="336" type="qcurve" smooth="yes"/>
      <point x="1386" y="1076" type="line" smooth="yes"/>
      <point x="1421.25" y="1277"/>
      <point x="1219" y="1410"/>
      <point x="1030" y="1410" type="qcurve" smooth="yes"/>
      <point x="612" y="1410" type="line" smooth="yes"/>
      <point x="423" y="1410"/>
      <point x="177.25" y="1277"/>
    </contour>
    <contour>
      <point x="766" y="1374" type="line"/>
      <point x="766" y="1374"/>
      <point x="766" y="1374"/>
      <point x="766" y="1374" type="qcurve"/>
      <point x="866" y="1374" type="line"/>
      <point x="866" y="1374"/>
      <point x="866" y="1374"/>
      <point x="866" y="1374" type="qcurve"/>
      <point x="631" y="26" type="line"/>
      <point x="631" y="26"/>
      <point x="631" y="26"/>
      <point x="631" y="26" type="qcurve"/>
      <point x="531" y="26" type="line"/>
      <point x="531" y="26"/>
      <point x="531" y="26"/>
      <point x="531" y="26" type="qcurve"/>
    </contour>
    <contour>
      <point x="592" y="1486" type="line"/>
      <point x="636" y="1486" type="line"/>
      <point x="779" y="1710" type="line"/>
      <point x="848" y="1486" type="line"/>
      <point x="1273" y="1486" type="line"/>
      <point x="1082" y="1786" type="line"/>
      <point x="790" y="1786" type="line"/>
    </contour>
  </outline>
</glyph>
<glyph name="Otilde" format="2">
  <advance width="1390"/>
  <unicode hex="00D5"/>
  <anchor x="923" y="1992" name="top"/>
  <anchor x="573" y="-160" name="bottom"/>
  <anchor x="1300" y="1333" name="horn"/>
  <anchor x="573" y="0" name="ogonek"/>
  <outline>
    <contour>
      <point x="142" y="1076" type="qcurve" smooth="yes"/>
      <point x="13" y="336" type="line" smooth="yes"/>
      <point x="-23.2208" y="129.24"/>
      <point x="164.786" y="-10"/>
      <point x="364" y="-10" type="qcurve" smooth="yes"/>
      <point x="782" y="-10" type="line" smooth="yes"/>
      <point x="981.214" y="-10"/>
      <point x="1220.02" y="127.73"/>
      <point x="1257" y="336" type="qcurve" smooth="yes"/>
      <point x="1386" y="1076" type="line" smooth="yes"/>
      <point x="1421.25" y="1277"/>
      <point x="1219" y="1410"/>
      <point x="1030" y="1410" type="qcurve" smooth="yes"/>
      <point x="612" y="1410" type="line" smooth="yes"/>
      <point x="423" y="1410"/>
      <point x="177.25" y="1277"/>
    </contour>
    <contour>
      <point x="766" y="1374" type="line"/>
      <point x="766" y="1374"/>
      <point x="766" y="1374"/>
      <point x="766" y="1374" type="qcurve"/>
      <point x="866" y="1374" type="line"/>
      <point x="866" y="1374"/>
      <point x="866" y="1374"/>
      <point x="866" y="1374" type="qcurve"/>
      <point x="631" y="26" type="line"/>
      <point x="631" y="26"/>
      <point x="631" y="26"/>
      <point x="631" y="26" type="qcurve"/>
      <point x="531" y="26" type="line"/>
      <point x="531" y="26"/>
      <point x="531" y="26"/>
      <point x="531" y="26" type="qcurve"/>
    </contour>
    <contour>
      <point x="499" y="1515" type="qcurve"/>
      <point x="528" y="1510" type="line"/>
      <point x="537.055" y="1529.62"/>
      <point x="577.687" y="1581"/>
      <point x="629" y="1581" type="qcurve" smooth="yes"/>
      <point x="662.375" y="1581"/>
      <point x="740.969" y="1554.75"/>
      <point x="830.781" y="1523.25"/>
      <point x="931.5" y="1497"/>
      <point x="987" y="1497" type="qcurve" smooth="yes"/>
      <point x="1031.25" y="1497"/>
      <point x="1104.5" y="1557.41"/>
      <point x="1166" y="1658.84"/>
      <point x="1217.5" y="1791.62"/>
      <point x="1240" y="1864" type="qcurve"/>
      <point x="1211" y="1869" type="line"/>
      <point x="1202.7" y="1849.38"/>
      <point x="1162.31" y="1798"/>
      <point x="1111" y="1798" type="qcurve" smooth="yes"/>
      <point x="1077.62" y="1798"/>
      <point x="999.031" y="1824.25"/>
      <point x="909.219" y="1855.75"/>
      <point x="808.5" y="1882"/>
      <point x="753" y="1882" type="qcurve" smooth="yes"/>
      <point x="708.75" y="1882"/>
      <point x="636.031" y="1826.09"/>
      <point x="574.719" y="1727.66"/>
      <point x="522.625" y="1593.38"/>
    </contour>
  </outline>
  <guideline angle="90" x="315" y="0"/>
  <guideline angle="90" x="995" y="0"/>
  <guideline angle="90" x="345" y="0"/>
  <guideline angle="90" x="965" y="0"/>
</glyph>
<glyph name="Odieresis" format="2">
  <advance width="1387"/>
  <unicode hex="00D6"/>
  <anchor x="915" y="1948" name="top"/>
  <anchor x="547" y="-160" name="bottom"/>
  <anchor x="1382" y="1076" name="horn"/>
  <anchor x="592" y="0" name="ogonek"/>
  <outline>
    <contour>
      <point x="142" y="1076" type="qcurve" smooth="yes"/>
      <point x="13" y="336" type="line" smooth="yes"/>
      <point x="-23" y="129"/>
      <point x="165" y="-10"/>
      <point x="364" y="-10" type="qcurve" smooth="yes"/>
      <point x="782" y="-10" type="line" smooth="yes"/>
      <point x="981" y="-10"/>
      <point x="1220" y="128"/>
      <point x="1257" y="336" type="qcurve" smooth="yes"/>
      <point x="1386" y="1076" type="line" smooth="yes"/>
      <point x="1421" y="1277"/>
      <point x="1219" y="1410"/>
      <point x="1030" y="1410" type="qcurve" smooth="yes"/>
      <point x="612" y="1410" type="line" smooth="yes"/>
      <point x="423" y="1410"/>
      <point x="177" y="1277"/>
    </contour>
    <contour>
      <point x="766" y="1374" type="line"/>
      <point x="766" y="1374"/>
      <point x="766" y="1374"/>
      <point x="766" y="1374" type="qcurve"/>
      <point x="866" y="1374" type="line"/>
      <point x="866" y="1374"/>
      <point x="866" y="1374"/>
      <point x="866" y="1374" type="qcurve"/>
      <point x="631" y="26" type="line"/>
      <point x="631" y="26"/>
      <point x="631" y="26"/>
      <point x="631" y="26" type="qcurve"/>
      <point x="531" y="26" type="line"/>
      <point x="531" y="26"/>
      <point x="531" y="26"/>
      <point x="531" y="26" type="qcurve"/>
    </contour>
    <contour>
      <point x="481" y="1508" type="qcurve" smooth="yes"/>
      <point x="633" y="1508" type="line" smooth="yes"/>
      <point x="714" y="1508"/>
      <point x="748" y="1537"/>
      <point x="762" y="1618" type="qcurve" smooth="yes"/>
      <point x="787" y="1760" type="line" smooth="yes"/>
      <point x="801" y="1840"/>
      <point x="777" y="1868"/>
      <point x="696" y="1868" type="qcurve" smooth="yes"/>
      <point x="544" y="1868" type="line" smooth="yes"/>
      <point x="463" y="1868"/>
      <point x="429" y="1840"/>
      <point x="415" y="1760" type="qcurve" smooth="yes"/>
      <point x="390" y="1618" type="line" smooth="yes"/>
      <point x="376" y="1537"/>
      <point x="400" y="1508"/>
    </contour>
    <contour>
      <point x="1041" y="1508" type="qcurve" smooth="yes"/>
      <point x="1193" y="1508" type="line" smooth="yes"/>
      <point x="1274" y="1508"/>
      <point x="1308" y="1537"/>
      <point x="1322" y="1618" type="qcurve" smooth="yes"/>
      <point x="1347" y="1760" type="line" smooth="yes"/>
      <point x="1361" y="1840"/>
      <point x="1337" y="1868"/>
      <point x="1256" y="1868" type="qcurve" smooth="yes"/>
      <point x="1104" y="1868" type="line" smooth="yes"/>
      <point x="1023" y="1868"/>
      <point x="989" y="1840"/>
      <point x="975" y="1760" type="qcurve" smooth="yes"/>
      <point x="950" y="1618" type="line" smooth="yes"/>
      <point x="936" y="1537"/>
      <point x="960" y="1508"/>
    </contour>
  </outline>
</glyph>
<glyph name="Ugrave" format="2">
  <advance width="1389"/>
  <unicode hex="00D9"/>
  <anchor x="845" y="1550" name="top"/>
  <anchor x="547" y="-150" name="bottom"/>
  <anchor x="594" y="0" name="ogonek"/>
  <anchor x="1432" y="1400" name="horn"/>
  <anchor x="899" y="1500" name="topright"/>
  <outline>
    <contour>
      <point x="207" y="1400" type="line"/>
      <point x="21" y="333" type="line" smooth="yes"/>
      <point x="3" y="227"/>
      <point x="36" y="93"/>
      <point x="129" y="18"/>
      <point x="276" y="-10"/>
      <point x="371" y="-10" type="qcurve" smooth="yes"/>
      <point x="778" y="-10" type="line" smooth="yes"/>
      <point x="971" y="-10"/>
      <point x="1213" y="121"/>
      <point x="1250" y="333" type="qcurve" smooth="yes"/>
      <point x="1436" y="1400" type="line"/>
      <point x="864" y="1400" type="line"/>
      <point x="625" y="26" type="line"/>
      <point x="625" y="26"/>
      <point x="625" y="26"/>
      <point x="625" y="26" type="qcurve"/>
      <point x="540" y="26" type="line"/>
      <point x="540" y="26"/>
      <point x="540" y="26"/>
      <point x="540" y="26" type="qcurve"/>
      <point x="779" y="1400" type="line"/>
    </contour>
    <contour>
      <point x="899" y="1500" type="line"/>
      <point x="935" y="1500" type="line"/>
      <point x="894" y="1800" type="line"/>
      <point x="363" y="1800" type="line"/>
    </contour>
  </outline>
</glyph>
<glyph name="Ucircumflex" format="2">
  <advance width="1389"/>
  <unicode hex="00DB"/>
  <anchor x="899" y="1856" name="top"/>
  <anchor x="547" y="-150" name="bottom"/>
  <anchor x="594" y="0" name="ogonek"/>
  <anchor x="1432" y="1400" name="horn"/>
  <anchor x="1288" y="1576" name="topright"/>
  <outline>
    <contour>
      <point x="207" y="1400" type="line"/>
      <point x="21" y="333" type="line" smooth="yes"/>
      <point x="3" y="227"/>
      <point x="36" y="93"/>
      <point x="129" y="18"/>
      <point x="276" y="-10"/>
      <point x="371" y="-10" type="qcurve" smooth="yes"/>
      <point x="778" y="-10" type="line" smooth="yes"/>
      <point x="971" y="-10"/>
      <point x="1213" y="121"/>
      <point x="1250" y="333" type="qcurve" smooth="yes"/>
      <point x="1436" y="1400" type="line"/>
      <point x="864" y="1400" type="line"/>
      <point x="625" y="26" type="line"/>
      <point x="625" y="26"/>
      <point x="625" y="26"/>
      <point x="625" y="26" type="qcurve"/>
      <point x="540" y="26" type="line"/>
      <point x="540" y="26"/>
      <point x="540" y="26"/>
      <point x="540" y="26" type="qcurve"/>
      <point x="779" y="1400" type="line"/>
    </contour>
    <contour>
      <point x="590" y="1476" type="line"/>
      <point x="634" y="1476" type="line"/>
      <point x="777" y="1700" type="line"/>
      <point x="846" y="1476" type="line"/>
      <point x="1271" y="1476" type="line"/>
      <point x="1080" y="1776" type="line"/>
      <point x="788" y="1776" type="line"/>
    </contour>
  </outline>
</glyph>
<glyph name="Udieresis" format="2">
  <advance width="1389"/>
  <unicode hex="00DC"/>
  <anchor x="914" y="1938" name="top"/>
  <anchor x="547" y="-150" name="bottom"/>
  <anchor x="594" y="0" name="ogonek"/>
  <anchor x="1432" y="1400" name="horn"/>
  <outline>
    <contour>
      <point x="207" y="1400" type="line"/>
      <point x="21" y="333" type="line" smooth="yes"/>
      <point x="3" y="227"/>
      <point x="36" y="93"/>
      <point x="129" y="18"/>
      <point x="276" y="-10"/>
      <point x="371" y="-10" type="qcurve" smooth="yes"/>
      <point x="778" y="-10" type="line" smooth="yes"/>
      <point x="971" y="-10"/>
      <point x="1213" y="121"/>
      <point x="1250" y="333" type="qcurve" smooth="yes"/>
      <point x="1436" y="1400" type="line"/>
      <point x="864" y="1400" type="line"/>
      <point x="625" y="26" type="line"/>
      <point x="625" y="26"/>
      <point x="625" y="26"/>
      <point x="625" y="26" type="qcurve"/>
      <point x="540" y="26" type="line"/>
      <point x="540" y="26"/>
      <point x="540" y="26"/>
      <point x="540" y="26" type="qcurve"/>
      <point x="779" y="1400" type="line"/>
    </contour>
    <contour>
      <point x="480" y="1498" type="qcurve" smooth="yes"/>
      <point x="632" y="1498" type="line" smooth="yes"/>
      <point x="713" y="1498"/>
      <point x="747" y="1527"/>
      <point x="761" y="1608" type="qcurve" smooth="yes"/>
      <point x="786" y="1750" type="line" smooth="yes"/>
      <point x="800" y="1830"/>
      <point x="776" y="1858"/>
      <point x="695" y="1858" type="qcurve" smooth="yes"/>
      <point x="543" y="1858" type="line" smooth="yes"/>
      <point x="462" y="1858"/>
      <point x="428" y="1830"/>
      <point x="414" y="1750" type="qcurve" smooth="yes"/>
      <point x="389" y="1608" type="line" smooth="yes"/>
      <point x="375" y="1527"/>
      <point x="399" y="1498"/>
    </contour>
    <contour>
      <point x="1040" y="1498" type="qcurve" smooth="yes"/>
      <point x="1192" y="1498" type="line" smooth="yes"/>
      <point x="1273" y="1498"/>
      <point x="1307" y="1527"/>
      <point x="1321" y="1608" type="qcurve" smooth="yes"/>
      <point x="1346" y="1750" type="line" smooth="yes"/>
      <point x="1360" y="1830"/>
      <point x="1336" y="1858"/>
      <point x="1255" y="1858" type="qcurve" smooth="yes"/>
      <point x="1103" y="1858" type="line" smooth="yes"/>
      <point x="1022" y="1858"/>
      <point x="988" y="1830"/>
      <point x="974" y="1750" type="qcurve" smooth="yes"/>
      <point x="949" y="1608" type="line" smooth="yes"/>
      <point x="935" y="1527"/>
      <point x="959" y="1498"/>
    </contour>
  </outline>
</glyph>
<glyph name="Thorn" format="2">
  <advance width="1382"/>
  <unicode hex="00DE"/>
  <outline>
    <contour>
      <point x="-37" y="0" type="line"/>
      <point x="535" y="0" type="line"/>
      <point x="584" y="281" type="line"/>
      <point x="834" y="281" type="line" smooth="yes"/>
      <point x="1023" y="281"/>
      <point x="1272" y="414"/>
      <point x="1306" y="615" type="qcurve" smooth="yes"/>
      <point x="1343" y="827" type="line" smooth="yes"/>
      <point x="1378" y="1028"/>
      <point x="1177" y="1161"/>
      <point x="988" y="1161" type="qcurve" smooth="yes"/>
      <point x="738" y="1161" type="line"/>
      <point x="779" y="1400" type="line"/>
      <point x="207" y="1400" type="line"/>
    </contour>
    <contour>
      <point x="590" y="317" type="line"/>
      <point x="731" y="1125" type="line"/>
      <point x="763" y="1125" type="line" smooth="yes"/>
      <point x="802" y="1125"/>
      <point x="834" y="1092"/>
      <point x="829" y="1065" type="qcurve" smooth="yes"/>
      <point x="709" y="377" type="line" smooth="yes"/>
      <point x="704" y="350"/>
      <point x="661" y="317"/>
      <point x="622" y="317" type="qcurve" smooth="yes"/>
    </contour>
  </outline>
  <guideline angle="90" color="0.4,0.4,0.4,1" name="halfwidth" x="691" y="0"/>
</glyph>
<glyph name="germandbls" format="2">
  <advance width="1276"/>
  <unicode hex="00DF"/>
  <outline>
    <contour>
      <point x="-46" y="0" type="line"/>
      <point x="478" y="0" type="line"/>
      <point x="730" y="1446" type="line"/>
      <point x="730" y="1446"/>
      <point x="730" y="1446"/>
      <point x="730" y="1446" type="qcurve"/>
      <point x="830" y="1446" type="line"/>
      <point x="830" y="1446"/>
      <point x="830" y="1446"/>
      <point x="830" y="1446" type="qcurve"/>
      <point x="748" y="974" type="line"/>
      <point x="748" y="974"/>
      <point x="748" y="974"/>
      <point x="748" y="974" type="qcurve"/>
      <point x="698" y="974" type="line"/>
      <point x="692" y="942" type="line"/>
      <point x="742" y="942" type="line"/>
      <point x="742" y="942"/>
      <point x="742" y="942"/>
      <point x="742" y="942" type="qcurve"/>
      <point x="582" y="22" type="line"/>
      <point x="582" y="22"/>
      <point x="582" y="22"/>
      <point x="582" y="22" type="qcurve"/>
      <point x="522" y="22" type="line"/>
      <point x="516" y="-10" type="line"/>
      <point x="822" y="-10" type="line" smooth="yes"/>
      <point x="953.3" y="-10"/>
      <point x="1116.1" y="77.1168"/>
      <point x="1141" y="222" type="qcurve" smooth="yes"/>
      <point x="1233" y="752" type="line" smooth="yes"/>
      <point x="1251.11" y="853.116"/>
      <point x="1187.16" y="947.153"/>
      <point x="1120" y="963" type="qcurve"/>
      <point x="1203.01" y="988.656"/>
      <point x="1294.64" y="1107.15"/>
      <point x="1312" y="1206" type="qcurve"/>
      <point x="1316" y="1224" type="line"/>
      <point x="1338.64" y="1355.3"/>
      <point x="1213.98" y="1478"/>
      <point x="1054" y="1478" type="qcurve" smooth="yes"/>
      <point x="518" y="1478" type="line" smooth="yes"/>
      <point x="358.025" y="1478"/>
      <point x="190.638" y="1355.3"/>
      <point x="168" y="1224" type="qcurve" smooth="yes"/>
    </contour>
  </outline>
</glyph>
<glyph name="aacute" format="2">
  <advance width="1295"/>
  <unicode hex="00E1"/>
  <anchor x="723" y="1174" name="top"/>
  <anchor x="493" y="-162" name="bottom"/>
  <anchor x="563" y="0" name="ogonek"/>
  <outline>
    <contour>
      <point x="231" y="0" type="qcurve" smooth="yes"/>
      <point x="487" y="0" type="line" smooth="yes"/>
      <point x="514.166" y="0"/>
      <point x="555.172" y="14.4172"/>
      <point x="568" y="28" type="qcurve"/>
      <point x="563" y="0" type="line"/>
      <point x="1087" y="0" type="line"/>
      <point x="1219" y="754" type="line" smooth="yes"/>
      <point x="1248.43" y="923.03"/>
      <point x="1103.81" y="1030"/>
      <point x="971" y="1030" type="qcurve" smooth="yes"/>
      <point x="445" y="1030" type="line" smooth="yes"/>
      <point x="312.19" y="1030"/>
      <point x="129.411" y="919.411"/>
      <point x="103" y="770" type="qcurve"/>
      <point x="101" y="756" type="line"/>
      <point x="589" y="664" type="line"/>
      <point x="647" y="998" type="line"/>
      <point x="647" y="998"/>
      <point x="647" y="998"/>
      <point x="647" y="998" type="qcurve"/>
      <point x="737" y="998" type="line"/>
      <point x="737" y="998"/>
      <point x="737" y="998"/>
      <point x="737" y="998" type="qcurve"/>
      <point x="662" y="566" type="line"/>
      <point x="330" y="566" type="line" smooth="yes"/>
      <point x="207" y="566"/>
      <point x="16.5" y="467.5"/>
      <point x="-9" y="322" type="qcurve" smooth="yes"/>
      <point x="-21" y="254" type="line" smooth="yes"/>
      <point x="-46.6564" y="104.589"/>
      <point x="107.246" y="0"/>
    </contour>
    <contour>
      <point x="465" y="32" type="qcurve"/>
      <point x="552" y="534" type="line"/>
      <point x="552" y="534"/>
      <point x="552" y="534"/>
      <point x="552" y="534" type="qcurve"/>
      <point x="656" y="534" type="line"/>
      <point x="569" y="32" type="line"/>
      <point x="465" y="32" type="line"/>
      <point x="465" y="32"/>
      <point x="465" y="32"/>
    </contour>
    <contour>
      <point x="588" y="1100" type="line"/>
      <point x="628" y="1100" type="line"/>
      <point x="1338" y="1448" type="line"/>
      <point x="743" y="1448" type="line"/>
    </contour>
  </outline>
  <guideline angle="260.1" color="1,0,0,1" x="579" y="-0"/>
</glyph>
<glyph name="atilde" format="2">
  <advance width="1292"/>
  <unicode hex="00E3"/>
  <anchor x="782" y="1531" name="top"/>
  <anchor x="490" y="-162" name="bottom"/>
  <anchor x="597" y="0" name="ogonek"/>
  <outline>
    <contour>
      <point x="228" y="0" type="qcurve" smooth="yes"/>
      <point x="484" y="0" type="line" smooth="yes"/>
      <point x="511.166" y="0"/>
      <point x="552.172" y="14.4172"/>
      <point x="565" y="28" type="qcurve"/>
      <point x="560" y="0" type="line"/>
      <point x="1084" y="0" type="line"/>
      <point x="1216" y="754" type="line" smooth="yes"/>
      <point x="1245.43" y="923.03"/>
      <point x="1100.81" y="1030"/>
      <point x="968" y="1030" type="qcurve" smooth="yes"/>
      <point x="442" y="1030" type="line" smooth="yes"/>
      <point x="309.19" y="1030"/>
      <point x="126.411" y="919.411"/>
      <point x="100" y="770" type="qcurve"/>
      <point x="98" y="756" type="line"/>
      <point x="586" y="664" type="line"/>
      <point x="644" y="998" type="line"/>
      <point x="644" y="998"/>
      <point x="644" y="998"/>
      <point x="644" y="998" type="qcurve"/>
      <point x="734" y="998" type="line"/>
      <point x="734" y="998"/>
      <point x="734" y="998"/>
      <point x="734" y="998" type="qcurve"/>
      <point x="659" y="566" type="line"/>
      <point x="327" y="566" type="line" smooth="yes"/>
      <point x="204" y="566"/>
      <point x="13.5" y="467.5"/>
      <point x="-12" y="322" type="qcurve" smooth="yes"/>
      <point x="-24" y="254" type="line" smooth="yes"/>
      <point x="-49.6564" y="104.589"/>
      <point x="104.246" y="0"/>
    </contour>
    <contour>
      <point x="462" y="32" type="qcurve"/>
      <point x="549" y="534" type="line"/>
      <point x="549" y="534"/>
      <point x="549" y="534"/>
      <point x="549" y="534" type="qcurve"/>
      <point x="653" y="534" type="line"/>
      <point x="566" y="32" type="line"/>
      <point x="462" y="32" type="line"/>
      <point x="462" y="32"/>
      <point x="462" y="32"/>
    </contour>
    <contour>
      <point x="372" y="1129" type="qcurve"/>
      <point x="401" y="1124" type="line"/>
      <point x="409.301" y="1143.62"/>
      <point x="449.687" y="1195"/>
      <point x="501" y="1195" type="qcurve" smooth="yes"/>
      <point x="534.375" y="1195"/>
      <point x="618.562" y="1168.75"/>
      <point x="710.438" y="1137.25"/>
      <point x="805.125" y="1111"/>
      <point x="849" y="1111" type="qcurve" smooth="yes"/>
      <point x="960" y="1111"/>
      <point x="1061" y="1293.25"/>
      <point x="1106" y="1438" type="qcurve"/>
      <point x="1077" y="1443" type="line"/>
      <point x="1067.94" y="1423.38"/>
      <point x="1027.31" y="1372"/>
      <point x="976" y="1372" type="qcurve" smooth="yes"/>
      <point x="942.625" y="1372"/>
      <point x="858.719" y="1398.25"/>
      <point x="767.031" y="1429.75"/>
      <point x="672.25" y="1456"/>
      <point x="628" y="1456" type="qcurve" smooth="yes"/>
      <point x="517" y="1456"/>
      <point x="418.5" y="1285.75"/>
    </contour>
  </outline>
  <guideline angle="260.1" color="1,0,0,1" x="576" y="-0"/>
  <guideline angle="90" x="183" y="0"/>
  <guideline angle="90" x="863" y="0"/>
  <guideline angle="90" x="213" y="0"/>
  <guideline angle="90" x="833" y="0"/>
</glyph>
<glyph name="adieresis" format="2">
  <advance width="1292"/>
  <unicode hex="00E4"/>
  <anchor x="784" y="1537" name="top"/>
  <anchor x="490" y="-162" name="bottom"/>
  <anchor x="597" y="0" name="ogonek"/>
  <outline>
    <contour>
      <point x="228" y="0" type="qcurve" smooth="yes"/>
      <point x="484" y="0" type="line" smooth="yes"/>
      <point x="511" y="0"/>
      <point x="552" y="14"/>
      <point x="565" y="28" type="qcurve"/>
      <point x="560" y="0" type="line"/>
      <point x="1084" y="0" type="line"/>
      <point x="1216" y="754" type="line" smooth="yes"/>
      <point x="1245" y="923"/>
      <point x="1101" y="1030"/>
      <point x="968" y="1030" type="qcurve" smooth="yes"/>
      <point x="442" y="1030" type="line" smooth="yes"/>
      <point x="309" y="1030"/>
      <point x="126" y="919"/>
      <point x="100" y="770" type="qcurve"/>
      <point x="98" y="756" type="line"/>
      <point x="586" y="664" type="line"/>
      <point x="644" y="998" type="line"/>
      <point x="644" y="998"/>
      <point x="644" y="998"/>
      <point x="644" y="998" type="qcurve"/>
      <point x="734" y="998" type="line"/>
      <point x="734" y="998"/>
      <point x="734" y="998"/>
      <point x="734" y="998" type="qcurve"/>
      <point x="659" y="566" type="line"/>
      <point x="327" y="566" type="line" smooth="yes"/>
      <point x="204" y="566"/>
      <point x="14" y="468"/>
      <point x="-12" y="322" type="qcurve" smooth="yes"/>
      <point x="-24" y="254" type="line" smooth="yes"/>
      <point x="-50" y="105"/>
      <point x="104" y="0"/>
    </contour>
    <contour>
      <point x="462" y="32" type="qcurve"/>
      <point x="549" y="534" type="line"/>
      <point x="549" y="534"/>
      <point x="549" y="534"/>
      <point x="549" y="534" type="qcurve"/>
      <point x="653" y="534" type="line"/>
      <point x="566" y="32" type="line"/>
      <point x="462" y="32" type="line"/>
      <point x="462" y="32"/>
      <point x="462" y="32"/>
    </contour>
    <contour>
      <point x="383" y="1112" type="qcurve" smooth="yes"/>
      <point x="515" y="1112" type="line" smooth="yes"/>
      <point x="596" y="1112"/>
      <point x="630" y="1141"/>
      <point x="644" y="1222" type="qcurve" smooth="yes"/>
      <point x="666" y="1344" type="line" smooth="yes"/>
      <point x="680" y="1424"/>
      <point x="656" y="1452"/>
      <point x="575" y="1452" type="qcurve" smooth="yes"/>
      <point x="443" y="1452" type="line" smooth="yes"/>
      <point x="362" y="1452"/>
      <point x="328" y="1424"/>
      <point x="314" y="1344" type="qcurve" smooth="yes"/>
      <point x="292" y="1222" type="line" smooth="yes"/>
      <point x="278" y="1141"/>
      <point x="302" y="1112"/>
    </contour>
    <contour>
      <point x="903" y="1112" type="qcurve" smooth="yes"/>
      <point x="1035" y="1112" type="line" smooth="yes"/>
      <point x="1116" y="1112"/>
      <point x="1150" y="1141"/>
      <point x="1164" y="1222" type="qcurve" smooth="yes"/>
      <point x="1186" y="1344" type="line" smooth="yes"/>
      <point x="1200" y="1424"/>
      <point x="1176" y="1452"/>
      <point x="1095" y="1452" type="qcurve" smooth="yes"/>
      <point x="963" y="1452" type="line" smooth="yes"/>
      <point x="882" y="1452"/>
      <point x="848" y="1424"/>
      <point x="834" y="1344" type="qcurve" smooth="yes"/>
      <point x="812" y="1222" type="line" smooth="yes"/>
      <point x="798" y="1141"/>
      <point x="822" y="1112"/>
    </contour>
  </outline>
  <guideline angle="260.1" color="1,0,0,1" x="576" y="-0"/>
</glyph>
<glyph name="aring" format="2">
  <advance width="1292"/>
  <unicode hex="00E5"/>
  <anchor x="794" y="1594" name="top"/>
  <anchor x="490" y="-162" name="bottom"/>
  <anchor x="597" y="0" name="ogonek"/>
  <outline>
    <contour>
      <point x="228" y="0" type="qcurve" smooth="yes"/>
      <point x="484" y="0" type="line" smooth="yes"/>
      <point x="511.166" y="0"/>
      <point x="552.172" y="14.4172"/>
      <point x="565" y="28" type="qcurve"/>
      <point x="560" y="0" type="line"/>
      <point x="1084" y="0" type="line"/>
      <point x="1216" y="754" type="line" smooth="yes"/>
      <point x="1245.43" y="923.03"/>
      <point x="1100.81" y="1030"/>
      <point x="968" y="1030" type="qcurve" smooth="yes"/>
      <point x="442" y="1030" type="line" smooth="yes"/>
      <point x="309.19" y="1030"/>
      <point x="126.411" y="919.411"/>
      <point x="100" y="770" type="qcurve"/>
      <point x="98" y="756" type="line"/>
      <point x="586" y="664" type="line"/>
      <point x="644" y="998" type="line"/>
      <point x="644" y="998"/>
      <point x="644" y="998"/>
      <point x="644" y="998" type="qcurve"/>
      <point x="734" y="998" type="line"/>
      <point x="734" y="998"/>
      <point x="734" y="998"/>
      <point x="734" y="998" type="qcurve"/>
      <point x="659" y="566" type="line"/>
      <point x="327" y="566" type="line" smooth="yes"/>
      <point x="204" y="566"/>
      <point x="13.5" y="467.5"/>
      <point x="-12" y="322" type="qcurve" smooth="yes"/>
      <point x="-24" y="254" type="line" smooth="yes"/>
      <point x="-49.6564" y="104.589"/>
      <point x="104.246" y="0"/>
    </contour>
    <contour>
      <point x="462" y="32" type="qcurve"/>
      <point x="549" y="534" type="line"/>
      <point x="549" y="534"/>
      <point x="549" y="534"/>
      <point x="549" y="534" type="qcurve"/>
      <point x="653" y="534" type="line"/>
      <point x="566" y="32" type="line"/>
      <point x="462" y="32" type="line"/>
      <point x="462" y="32"/>
      <point x="462" y="32"/>
    </contour>
    <contour>
      <point x="707" y="1098" type="qcurve" smooth="yes"/>
      <point x="791" y="1098"/>
      <point x="896.344" y="1108.5"/>
      <point x="959.906" y="1146"/>
      <point x="992.125" y="1218.75"/>
      <point x="1003" y="1281" type="qcurve" smooth="yes"/>
      <point x="1013.88" y="1343.25"/>
      <point x="1007.09" y="1416"/>
      <point x="956.656" y="1453.5"/>
      <point x="855" y="1464"/>
      <point x="771" y="1464" type="qcurve" smooth="yes"/>
      <point x="687" y="1464"/>
      <point x="581.656" y="1453.5"/>
      <point x="518.094" y="1416"/>
      <point x="485.875" y="1343.25"/>
      <point x="475" y="1281" type="qcurve" smooth="yes"/>
      <point x="464.125" y="1218.75"/>
      <point x="470.906" y="1146"/>
      <point x="521.344" y="1108.5"/>
      <point x="623" y="1098"/>
    </contour>
    <contour>
      <point x="711" y="1126" type="qcurve" smooth="yes"/>
      <point x="677.798" y="1126"/>
      <point x="670.89" y="1177.62"/>
      <point x="689" y="1281" type="qcurve" smooth="yes"/>
      <point x="707.11" y="1385.89"/>
      <point x="732.798" y="1436"/>
      <point x="766" y="1436" type="qcurve" smooth="yes"/>
      <point x="799.202" y="1436"/>
      <point x="807.11" y="1385.89"/>
      <point x="789" y="1281" type="qcurve" smooth="yes"/>
      <point x="770.89" y="1177.62"/>
      <point x="744.202" y="1126"/>
    </contour>
  </outline>
  <guideline angle="260.1" color="1,0,0,1" x="576" y="-0"/>
</glyph>
<glyph name="ae" format="2">
  <advance width="1907"/>
  <unicode hex="00E6"/>
  <anchor x="1063" y="1174" name="top"/>
  <anchor x="812" y="-150" name="bottom"/>
  <outline>
    <contour>
      <point x="272" y="-6" type="qcurve" smooth="yes"/>
      <point x="568" y="-6" type="line" smooth="yes"/>
      <point x="655.534" y="-6"/>
      <point x="799.933" y="34.9878"/>
      <point x="852" y="78" type="qcurve"/>
      <point x="887.466" y="35.7424"/>
      <point x="1008.99" y="-6"/>
      <point x="1092" y="-6" type="qcurve" smooth="yes"/>
      <point x="1341" y="-6" type="line" smooth="yes"/>
      <point x="1405.5" y="-6"/>
      <point x="1542.34" y="12.5"/>
      <point x="1659.91" y="63.5"/>
      <point x="1744.62" y="154"/>
      <point x="1757" y="226" type="qcurve"/>
      <point x="1765" y="268" type="line"/>
      <point x="1258" y="336" type="line"/>
      <point x="1204" y="26" type="line"/>
      <point x="1204" y="26"/>
      <point x="1204" y="26"/>
      <point x="1204" y="26" type="qcurve"/>
      <point x="1098" y="26" type="line"/>
      <point x="1098" y="26"/>
      <point x="1098" y="26"/>
      <point x="1098" y="26" type="qcurve"/>
      <point x="1180" y="499" type="line"/>
      <point x="1810" y="499" type="line"/>
      <point x="1851" y="733" type="line" smooth="yes"/>
      <point x="1865.62" y="816.625"/>
      <point x="1812.84" y="930.344"/>
      <point x="1712.91" y="999.906"/>
      <point x="1583.25" y="1030"/>
      <point x="1521" y="1030" type="qcurve" smooth="yes"/>
      <point x="1273" y="1030" type="line" smooth="yes"/>
      <point x="1189.99" y="1030"/>
      <point x="1054.05" y="989.748"/>
      <point x="1005" y="949" type="qcurve"/>
      <point x="966.515" y="990.503"/>
      <point x="836.534" y="1030"/>
      <point x="749" y="1030" type="qcurve" smooth="yes"/>
      <point x="483" y="1030" type="line" smooth="yes"/>
      <point x="420.75" y="1030"/>
      <point x="290.125" y="1012.38"/>
      <point x="178.375" y="963.625"/>
      <point x="98" y="877"/>
      <point x="86" y="808" type="qcurve" smooth="yes"/>
      <point x="78" y="762" type="line"/>
      <point x="590" y="696" type="line"/>
      <point x="643" y="998" type="line"/>
      <point x="643" y="998"/>
      <point x="643" y="998"/>
      <point x="643" y="998" type="qcurve"/>
      <point x="743" y="998" type="line"/>
      <point x="743" y="998"/>
      <point x="743" y="998"/>
      <point x="743" y="998" type="qcurve"/>
      <point x="667" y="562" type="line"/>
      <point x="371" y="562" type="line" smooth="yes"/>
      <point x="305" y="562"/>
      <point x="179.969" y="545.5"/>
      <point x="77.7812" y="497.5"/>
      <point x="6.375" y="410.5"/>
      <point x="-6" y="340" type="qcurve" smooth="yes"/>
      <point x="-26" y="226" type="line" smooth="yes"/>
      <point x="-38.375" y="154"/>
      <point x="2.71875" y="63.5"/>
      <point x="88.0312" y="12.5"/>
      <point x="206.75" y="-6"/>
    </contour>
    <contour>
      <point x="464" y="26" type="line"/>
      <point x="464" y="26"/>
      <point x="464" y="26"/>
      <point x="464" y="26" type="qcurve"/>
      <point x="552" y="530" type="line"/>
      <point x="552" y="530"/>
      <point x="552" y="530"/>
      <point x="552" y="530" type="qcurve"/>
      <point x="660" y="530" type="line"/>
      <point x="572" y="26" type="line"/>
      <point x="572" y="26"/>
      <point x="572" y="26"/>
      <point x="572" y="26" type="qcurve"/>
    </contour>
    <contour>
      <point x="1184" y="531" type="line"/>
      <point x="1265" y="998" type="line"/>
      <point x="1265" y="998"/>
      <point x="1265" y="998"/>
      <point x="1265" y="998" type="qcurve"/>
      <point x="1373" y="998" type="line"/>
      <point x="1373" y="998"/>
      <point x="1373" y="998"/>
      <point x="1373" y="998" type="qcurve"/>
      <point x="1292" y="531" type="line"/>
    </contour>
  </outline>
</glyph>
<glyph name="ccedilla" format="2">
  <advance width="1266"/>
  <unicode hex="00E7"/>
  <anchor x="727" y="1174" name="top"/>
  <anchor x="521" y="-150" name="bottom"/>
  <anchor x="521" y="0" name="ogrev"/>
  <outline>
    <contour>
      <point x="-8" y="264" type="line" smooth="yes"/>
      <point x="-33.6564" y="117.608"/>
      <point x="90.9144" y="-6"/>
      <point x="269" y="-6" type="qcurve" smooth="yes"/>
      <point x="773" y="-6" type="line" smooth="yes"/>
      <point x="951.086" y="-6"/>
      <point x="1118.34" y="117.608"/>
      <point x="1144" y="264" type="qcurve" smooth="yes"/>
      <point x="1162" y="366" type="line"/>
      <point x="657" y="474" type="line"/>
      <point x="579" y="26" type="line"/>
      <point x="579" y="26"/>
      <point x="579" y="26"/>
      <point x="579" y="26" type="qcurve"/>
      <point x="475" y="26" type="line"/>
      <point x="475" y="26"/>
      <point x="475" y="26"/>
      <point x="475" y="26" type="qcurve"/>
      <point x="644" y="998" type="line"/>
      <point x="644" y="998"/>
      <point x="644" y="998"/>
      <point x="644" y="998" type="qcurve"/>
      <point x="744" y="998" type="line"/>
      <point x="744" y="998"/>
      <point x="744" y="998"/>
      <point x="744" y="998" type="qcurve"/>
      <point x="666" y="552" type="line"/>
      <point x="1207" y="650" type="line"/>
      <point x="1229" y="774" type="line" smooth="yes"/>
      <point x="1253.15" y="912.846"/>
      <point x="1127.07" y="1030"/>
      <point x="952" y="1030" type="qcurve" smooth="yes"/>
      <point x="452" y="1030" type="line" smooth="yes"/>
      <point x="276.933" y="1030"/>
      <point x="104.902" y="910.356"/>
      <point x="80" y="770" type="qcurve" smooth="yes"/>
    </contour>
    <contour>
      <point x="481" y="-436" type="qcurve" smooth="yes"/>
      <point x="577.589" y="-436"/>
      <point x="673" y="-327.307"/>
      <point x="673" y="-236" type="qcurve" smooth="yes"/>
      <point x="673" y="-161.295"/>
      <point x="584.116" y="-75"/>
      <point x="483" y="-75" type="qcurve"/>
      <point x="570" y="15" type="line"/>
      <point x="550" y="15" type="line"/>
      <point x="531" y="15" type="line"/>
      <point x="416" y="-104" type="line"/>
      <point x="421.282" y="-102.491"/>
      <point x="432.227" y="-102"/>
      <point x="436" y="-102" type="qcurve" smooth="yes"/>
      <point x="466.184" y="-102"/>
      <point x="496" y="-149.196"/>
      <point x="496" y="-199" type="qcurve" smooth="yes"/>
      <point x="496" y="-275.969"/>
      <point x="432.767" y="-387"/>
      <point x="389" y="-387" type="qcurve" smooth="yes"/>
      <point x="373.153" y="-387"/>
      <point x="334.62" y="-371.337"/>
      <point x="315" y="-357" type="qcurve"/>
      <point x="298" y="-380" type="line"/>
      <point x="328.184" y="-405.656"/>
      <point x="427.423" y="-436"/>
    </contour>
  </outline>
  <guideline angle="0" x="0" y="25"/>
</glyph>
<glyph name="egrave" format="2">
  <advance width="1278"/>
  <unicode hex="00E8"/>
  <anchor x="715" y="1174" name="top"/>
  <anchor x="509" y="-150" name="bottom"/>
  <anchor x="509" y="0" name="ogonek"/>
  <outline>
    <contour>
      <point x="-1" y="304" type="line" smooth="yes"/>
      <point x="-29.6748" y="141.006"/>
      <point x="125.675" y="-6"/>
      <point x="343" y="-6" type="qcurve" smooth="yes"/>
      <point x="675" y="-6" type="line" smooth="yes"/>
      <point x="892.325" y="-6"/>
      <point x="1112.59" y="105.571"/>
      <point x="1139" y="258" type="qcurve" smooth="yes"/>
      <point x="1141" y="270" type="line"/>
      <point x="634" y="368" type="line"/>
      <point x="575" y="26" type="line"/>
      <point x="575" y="26"/>
      <point x="575" y="26"/>
      <point x="575" y="26" type="qcurve"/>
      <point x="475" y="26" type="line"/>
      <point x="475" y="26"/>
      <point x="475" y="26"/>
      <point x="475" y="26" type="qcurve"/>
      <point x="560" y="516" type="line"/>
      <point x="1184" y="516" type="line"/>
      <point x="1221" y="730" type="line" smooth="yes"/>
      <point x="1248.92" y="888.466"/>
      <point x="1073.32" y="1030"/>
      <point x="856" y="1030" type="qcurve" smooth="yes"/>
      <point x="524" y="1030" type="line" smooth="yes"/>
      <point x="308.184" y="1030"/>
      <point x="100.92" y="886.957"/>
      <point x="73" y="730" type="qcurve" smooth="yes"/>
    </contour>
    <contour>
      <point x="566" y="548" type="line"/>
      <point x="644" y="998" type="line"/>
      <point x="644" y="998"/>
      <point x="644" y="998"/>
      <point x="644" y="998" type="qcurve"/>
      <point x="744" y="998" type="line"/>
      <point x="744" y="998"/>
      <point x="744" y="998"/>
      <point x="744" y="998" type="qcurve"/>
      <point x="666" y="548" type="line"/>
    </contour>
    <contour>
      <point x="785" y="1100" type="line"/>
      <point x="818" y="1100" type="line"/>
      <point x="792" y="1448" type="line"/>
      <point x="277" y="1448" type="line"/>
    </contour>
  </outline>
  <guideline angle="0" color="1,0,0,1" x="0" y="-1030"/>
</glyph>
<glyph name="eacute" format="2">
  <advance width="1275"/>
  <unicode hex="00E9"/>
  <anchor x="722" y="1174" name="top"/>
  <anchor x="491" y="-150" name="bottom"/>
  <anchor x="673" y="0" name="ogonek"/>
  <outline>
    <contour>
      <point x="-1" y="304" type="line" smooth="yes"/>
      <point x="-30" y="141"/>
      <point x="126" y="-6"/>
      <point x="343" y="-6" type="qcurve" smooth="yes"/>
      <point x="675" y="-6" type="line" smooth="yes"/>
      <point x="892" y="-6"/>
      <point x="1113" y="106"/>
      <point x="1139" y="258" type="qcurve" smooth="yes"/>
      <point x="1141" y="270" type="line"/>
      <point x="634" y="368" type="line"/>
      <point x="575" y="26" type="line"/>
      <point x="575" y="26"/>
      <point x="575" y="26"/>
      <point x="575" y="26" type="qcurve"/>
      <point x="475" y="26" type="line"/>
      <point x="475" y="26"/>
      <point x="475" y="26"/>
      <point x="475" y="26" type="qcurve"/>
      <point x="560" y="516" type="line"/>
      <point x="1184" y="516" type="line"/>
      <point x="1221" y="730" type="line" smooth="yes"/>
      <point x="1249" y="888"/>
      <point x="1073" y="1030"/>
      <point x="856" y="1030" type="qcurve" smooth="yes"/>
      <point x="524" y="1030" type="line" smooth="yes"/>
      <point x="308" y="1030"/>
      <point x="101" y="887"/>
      <point x="73" y="730" type="qcurve" smooth="yes"/>
    </contour>
    <contour>
      <point x="566" y="548" type="line"/>
      <point x="644" y="998" type="line"/>
      <point x="644" y="998"/>
      <point x="644" y="998"/>
      <point x="644" y="998" type="qcurve"/>
      <point x="744" y="998" type="line"/>
      <point x="744" y="998"/>
      <point x="744" y="998"/>
      <point x="744" y="998" type="qcurve"/>
      <point x="666" y="548" type="line"/>
    </contour>
    <contour>
      <point x="587" y="1100" type="line"/>
      <point x="627" y="1100" type="line"/>
      <point x="1337" y="1448" type="line"/>
      <point x="742" y="1448" type="line"/>
    </contour>
  </outline>
  <guideline angle="0" color="1,0,0,1" x="0" y="-1030"/>
</glyph>
<glyph name="ecircumflex" format="2">
  <advance width="1278"/>
  <unicode hex="00EA"/>
  <anchor x="785" y="1572" name="top"/>
  <anchor x="509" y="-150" name="bottom"/>
  <anchor x="509" y="0" name="ogonek"/>
  <anchor x="1093" y="1298" name="topright"/>
  <outline>
    <contour>
      <point x="-1" y="304" type="line" smooth="yes"/>
      <point x="-29.6748" y="141.006"/>
      <point x="125.675" y="-6"/>
      <point x="343" y="-6" type="qcurve" smooth="yes"/>
      <point x="675" y="-6" type="line" smooth="yes"/>
      <point x="892.325" y="-6"/>
      <point x="1112.59" y="105.571"/>
      <point x="1139" y="258" type="qcurve" smooth="yes"/>
      <point x="1141" y="270" type="line"/>
      <point x="634" y="368" type="line"/>
      <point x="575" y="26" type="line"/>
      <point x="575" y="26"/>
      <point x="575" y="26"/>
      <point x="575" y="26" type="qcurve"/>
      <point x="475" y="26" type="line"/>
      <point x="475" y="26"/>
      <point x="475" y="26"/>
      <point x="475" y="26" type="qcurve"/>
      <point x="560" y="516" type="line"/>
      <point x="1184" y="516" type="line"/>
      <point x="1221" y="730" type="line" smooth="yes"/>
      <point x="1248.92" y="888.466"/>
      <point x="1073.32" y="1030"/>
      <point x="856" y="1030" type="qcurve" smooth="yes"/>
      <point x="524" y="1030" type="line" smooth="yes"/>
      <point x="308.184" y="1030"/>
      <point x="100.92" y="886.957"/>
      <point x="73" y="730" type="qcurve" smooth="yes"/>
    </contour>
    <contour>
      <point x="566" y="548" type="line"/>
      <point x="644" y="998" type="line"/>
      <point x="644" y="998"/>
      <point x="644" y="998"/>
      <point x="644" y="998" type="qcurve"/>
      <point x="744" y="998" type="line"/>
      <point x="744" y="998"/>
      <point x="744" y="998"/>
      <point x="744" y="998" type="qcurve"/>
      <point x="666" y="548" type="line"/>
    </contour>
    <contour>
      <point x="386" y="1124" type="line"/>
      <point x="424" y="1124" type="line"/>
      <point x="617" y="1435" type="line"/>
      <point x="711" y="1124" type="line"/>
      <point x="1062" y="1124" type="line"/>
      <point x="917" y="1472" type="line"/>
      <point x="603" y="1472" type="line"/>
    </contour>
  </outline>
  <guideline angle="0" color="1,0,0,1" x="0" y="-1030"/>
</glyph>
